<?xml version="1.0" encoding="UTF-8"?>
<svg version="1.1" xmlns="http://www.w3.org/2000/svg" width="500" height="500">
<path d="M0 0 C3.16515148 0.01610888 6.32902677 0.00001809 9.49414062 -0.01904297 C27.64855869 -0.03870457 45.75876514 1.43014561 63.35351562 6.14111328 C64.82667236 6.52299805 64.82667236 6.52299805 66.32958984 6.91259766 C96.11644433 14.84807316 124.46696912 27.89485304 149.16601562 46.39111328 C149.84277344 46.89513672 150.51953125 47.39916016 151.21679688 47.91845703 C152.47252346 48.85700216 153.72515185 49.79970712 154.97460938 50.74658203 C156.74720678 52.07682001 158.53450476 53.38745457 160.32617188 54.69189453 C160.87732666 55.09609619 161.42848145 55.50029785 161.99633789 55.91674805 C163.60218969 57.09431009 165.21214646 58.2662679 166.82226562 59.43798828 C167.59570312 60.08251953 168.36914062 60.72705078 169.16601562 61.39111328 C169.16601562 62.05111328 169.16601562 62.71111328 169.16601562 63.39111328 C169.82601563 63.39111328 170.48601562 63.39111328 171.16601562 63.39111328 C171.16601562 64.05111328 171.16601562 64.71111328 171.16601562 65.39111328 C171.82601563 65.39111328 172.48601562 65.39111328 173.16601562 65.39111328 C173.16601562 66.05111328 173.16601562 66.71111328 173.16601562 67.39111328 C173.74867188 67.64892578 174.33132813 67.90673828 174.93164062 68.17236328 C177.34630593 69.48945345 178.9834174 70.94199712 180.91601562 72.89111328 C181.52960938 73.49955078 182.14320313 74.10798828 182.77539062 74.73486328 C184.16601562 76.39111328 184.16601562 76.39111328 184.16601562 78.39111328 C185.48601562 79.05111328 186.80601562 79.71111328 188.16601562 80.39111328 C188.16601562 81.05111328 188.16601562 81.71111328 188.16601562 82.39111328 C188.82601563 82.39111328 189.48601562 82.39111328 190.16601562 82.39111328 C191.77235578 84.12503279 193.30354432 85.92920428 194.79101562 87.76611328 C195.60828125 88.76384766 196.42554688 89.76158203 197.26757812 90.78955078 C199.16601562 93.39111328 199.16601562 93.39111328 199.16601562 95.39111328 C199.82601563 95.39111328 200.48601562 95.39111328 201.16601562 95.39111328 C202.68164062 97.29736328 202.68164062 97.29736328 204.41601562 99.89111328 C206.6534849 103.1891709 208.91790266 106.42409166 211.35351562 109.57861328 C213.47984717 112.39320477 215.34091387 115.24673266 217.03710938 118.34814453 C218.52525441 121.0412236 220.10062328 123.67974344 221.66601562 126.32861328 C229.16601562 139.19958102 229.16601562 139.19958102 229.16601562 143.39111328 C229.82601563 143.39111328 230.48601562 143.39111328 231.16601562 143.39111328 C232.51103143 146.71983956 233.8393613 150.0550314 235.16601562 153.39111328 C235.74416016 154.82197266 235.74416016 154.82197266 236.33398438 156.28173828 C238.90234617 162.76498165 241.1780099 169.31076091 243.29101562 175.95361328 C243.53255371 176.70827881 243.7740918 177.46294434 244.02294922 178.24047852 C251.45253117 201.98106943 253.92066937 225.852631 253.72851562 250.64111328 C253.7216272 252.43746719 253.7216272 252.43746719 253.71459961 254.27011108 C253.56622341 282.47778743 249.45074726 307.65748943 240.16601562 334.39111328 C239.92882812 335.08462891 239.69164062 335.77814453 239.44726562 336.49267578 C234.02225603 352.15739099 226.14456149 366.87200643 217.59179688 381.01611328 C215.7323715 384.11345746 213.94357479 387.24620091 212.16601562 390.39111328 C211.50601562 390.39111328 210.84601563 390.39111328 210.16601562 390.39111328 C209.95976562 391.23673828 209.75351562 392.08236328 209.54101562 392.95361328 C208.04248582 396.69993778 206.20554119 398.94478235 203.50585938 401.87548828 C202.0699634 403.36876761 202.0699634 403.36876761 201.16601562 405.39111328 C200.50601562 405.39111328 199.84601563 405.39111328 199.16601562 405.39111328 C198.92882812 405.93251953 198.69164062 406.47392578 198.44726562 407.03173828 C196.82253806 410.02361466 194.81582793 412.50270727 192.66601562 415.14111328 C191.87195313 416.12595703 191.07789063 417.11080078 190.25976562 418.12548828 C189.56882812 418.87314453 188.87789063 419.62080078 188.16601562 420.39111328 C187.50601562 420.39111328 186.84601563 420.39111328 186.16601562 420.39111328 C186.16601562 421.05111328 186.16601562 421.71111328 186.16601562 422.39111328 C185.50601562 422.39111328 184.84601563 422.39111328 184.16601562 422.39111328 C183.82570313 423.22642578 183.82570313 423.22642578 183.47851562 424.07861328 C181.79051526 427.05270916 179.69925046 429.11120193 177.16601562 431.39111328 C176.50601562 431.39111328 175.84601563 431.39111328 175.16601562 431.39111328 C175.16601562 432.05111328 175.16601562 432.71111328 175.16601562 433.39111328 C174.50601562 433.39111328 173.84601563 433.39111328 173.16601562 433.39111328 C172.84117187 434.23416016 172.84117187 434.23416016 172.50976562 435.09423828 C170.71532435 438.16148093 168.42709349 439.917719 165.66601562 442.14111328 C164.68632812 442.94033203 163.70664062 443.73955078 162.69726562 444.56298828 C160.16601562 446.39111328 160.16601562 446.39111328 158.16601562 446.39111328 C158.16601562 447.05111328 158.16601562 447.71111328 158.16601562 448.39111328 C148.06295156 457.39111328 148.06295156 457.39111328 143.16601562 457.39111328 C143.16601562 458.05111328 143.16601562 458.71111328 143.16601562 459.39111328 C141.40039062 460.65283203 141.40039062 460.65283203 138.91601562 462.07861328 C137.98917969 462.61357422 137.06234375 463.14853516 136.10742188 463.69970703 C135.13675781 464.25787109 134.16609375 464.81603516 133.16601562 465.39111328 C132.30878906 465.91833984 131.4515625 466.44556641 130.56835938 466.98876953 C117.63485847 474.8605262 103.5864351 481.74688995 89.16601562 486.39111328 C88.00070312 486.78685547 86.83539063 487.18259766 85.63476562 487.59033203 C81.82018348 488.88361559 78.000664 490.15850317 74.16601562 491.39111328 C73.20332764 491.70467773 72.24063965 492.01824219 71.2487793 492.34130859 C18.38561319 509.15906088 -43.1248263 503.4387845 -93.83398438 482.39111328 C-95.77092278 481.61886986 -97.70839092 480.84795328 -99.64648438 480.07861328 C-101.04268495 479.51702545 -102.43867317 478.9549072 -103.83398438 478.39111328 C-103.83398438 477.73111328 -103.83398438 477.07111328 -103.83398438 476.39111328 C-104.41881592 476.2605957 -105.00364746 476.13007813 -105.60620117 475.99560547 C-109.1807818 475.02566995 -112.34686811 473.29853826 -115.64648438 471.64111328 C-116.67612305 471.13837891 -116.67612305 471.13837891 -117.7265625 470.62548828 C-121.80770886 468.58684564 -125.46555153 466.31606292 -129.12744141 463.60058594 C-130.80656972 462.41054278 -132.50764586 461.39646308 -134.30664062 460.39892578 C-138.14171131 458.26535277 -141.70105545 455.81264142 -145.27148438 453.26611328 C-146.22571289 452.60289062 -146.22571289 452.60289062 -147.19921875 451.92626953 C-148.78273924 450.80028611 -150.31385536 449.60131308 -151.83398438 448.39111328 C-151.83398438 447.73111328 -151.83398438 447.07111328 -151.83398438 446.39111328 C-152.39601563 446.13330078 -152.95804687 445.87548828 -153.53710938 445.60986328 C-156.10103016 444.24941552 -158.28624803 442.66322367 -160.58398438 440.89111328 C-161.38320312 440.28267578 -162.18242187 439.67423828 -163.00585938 439.04736328 C-163.91078125 438.22751953 -163.91078125 438.22751953 -164.83398438 437.39111328 C-164.83398438 436.73111328 -164.83398438 436.07111328 -164.83398438 435.39111328 C-166.15398437 434.73111328 -167.47398437 434.07111328 -168.83398438 433.39111328 C-168.83398438 432.73111328 -168.83398438 432.07111328 -168.83398438 431.39111328 C-169.41664063 431.13330078 -169.99929687 430.87548828 -170.59960938 430.60986328 C-173.01427468 429.29277312 -174.65138615 427.84022944 -176.58398438 425.89111328 C-177.19757813 425.28267578 -177.81117188 424.67423828 -178.44335938 424.04736328 C-179.83398438 422.39111328 -179.83398438 422.39111328 -179.83398438 420.39111328 C-180.49398437 420.39111328 -181.15398437 420.39111328 -181.83398438 420.39111328 C-181.83398438 419.73111328 -181.83398438 419.07111328 -181.83398438 418.39111328 C-182.49398437 418.39111328 -183.15398437 418.39111328 -183.83398438 418.39111328 C-183.83398438 417.73111328 -183.83398438 417.07111328 -183.83398438 416.39111328 C-184.49398437 416.39111328 -185.15398437 416.39111328 -185.83398438 416.39111328 C-187.46153819 414.48826691 -188.96794798 412.58467896 -190.45898438 410.57861328 C-190.90338867 409.99055908 -191.34779297 409.40250488 -191.80566406 408.79663086 C-195.26976476 404.19622082 -198.66870169 399.54807292 -202.02929688 394.87158203 C-203.62923043 392.67253916 -205.28279064 390.53195139 -206.95898438 388.39111328 C-210.48292213 383.68313244 -213.11440369 378.59303463 -215.83398438 373.39111328 C-216.71575894 371.75123184 -217.59867016 370.11196131 -218.48242188 368.47314453 C-223.57643394 358.97266107 -228.37929861 349.62849875 -231.83398438 339.39111328 C-232.3908638 337.80633295 -232.94819353 336.22171081 -233.50585938 334.63720703 C-242.85030913 307.73918827 -247.40160495 281.43749311 -247.22509766 252.90893555 C-247.20896585 249.82507272 -247.22510015 246.74251611 -247.24414062 243.65869141 C-247.26412818 225.64821203 -245.75688834 207.65620156 -241.08398438 190.20361328 C-240.82939453 189.22150879 -240.57480469 188.2394043 -240.3125 187.22753906 C-234.89138784 166.87867918 -226.99770181 147.80364487 -216.83398438 129.39111328 C-216.34542969 128.50037109 -215.856875 127.60962891 -215.35351562 126.69189453 C-212.89272445 122.23218376 -210.37118214 117.80771679 -207.83398438 113.39111328 C-207.17398438 113.39111328 -206.51398438 113.39111328 -205.83398438 113.39111328 C-205.57875 112.67310547 -205.32351562 111.95509766 -205.06054688 111.21533203 C-201.56920438 103.17634916 -194.99950629 96.2356581 -189.49804688 89.48486328 C-187.7073464 87.29155806 -187.7073464 87.29155806 -185.83398438 84.39111328 C-185.17398438 84.39111328 -184.51398438 84.39111328 -183.83398438 84.39111328 C-183.83398438 83.73111328 -183.83398438 83.07111328 -183.83398438 82.39111328 C-183.17398438 82.39111328 -182.51398438 82.39111328 -181.83398438 82.39111328 C-181.83398438 81.73111328 -181.83398438 81.07111328 -181.83398438 80.39111328 C-181.17398438 80.39111328 -180.51398438 80.39111328 -179.83398438 80.39111328 C-179.59679687 79.82908203 -179.35960937 79.26705078 -179.11523438 78.68798828 C-177.54450741 75.87217286 -175.61926973 73.91155912 -173.33398438 71.64111328 C-172.14289063 70.44228516 -172.14289063 70.44228516 -170.92773438 69.21923828 C-168.83398438 67.39111328 -168.83398438 67.39111328 -166.83398438 67.39111328 C-166.83398438 66.73111328 -166.83398438 66.07111328 -166.83398438 65.39111328 C-166.17398438 65.39111328 -165.51398438 65.39111328 -164.83398438 65.39111328 C-164.83398438 64.73111328 -164.83398438 64.07111328 -164.83398438 63.39111328 C-164.17398438 63.39111328 -163.51398438 63.39111328 -162.83398438 63.39111328 C-162.83398438 62.73111328 -162.83398438 62.07111328 -162.83398438 61.39111328 C-161.32226563 60.01611328 -161.32226563 60.01611328 -159.14648438 58.39111328 C-158.33308594 57.77751953 -157.5196875 57.16392578 -156.68164062 56.53173828 C-155.74191406 55.82533203 -154.8021875 55.11892578 -153.83398438 54.39111328 C-152.72695131 53.53375434 -151.62155088 52.67428423 -150.51757812 51.81298828 C-149.94934326 51.37083984 -149.3811084 50.92869141 -148.7956543 50.47314453 C-147.67630521 49.60206072 -146.55793622 48.72971565 -145.44067383 47.85595703 C-137.0812717 41.39111328 -137.0812717 41.39111328 -133.83398438 41.39111328 C-133.83398438 40.73111328 -133.83398438 40.07111328 -133.83398438 39.39111328 C-131.73632813 37.94580078 -131.73632813 37.94580078 -128.77148438 36.26611328 C-127.68222656 35.64865234 -126.59296875 35.03119141 -125.47070312 34.39501953 C-119.30153578 30.97858769 -113.08155155 27.66160377 -106.83398438 24.39111328 C-105.65642578 23.77042969 -105.65642578 23.77042969 -104.45507812 23.13720703 C-72.45891916 6.65433726 -35.67901371 -0.21486744 0 0 Z M-130.83398438 118.39111328 C-132.08922815 120.5169532 -132.08922815 120.5169532 -132.83398438 122.39111328 C-133.49398437 122.39111328 -134.15398437 122.39111328 -134.83398438 122.39111328 C-135.96410089 124.59695569 -137.08814226 126.80556355 -138.20898438 129.01611328 C-138.52609375 129.63357422 -138.84320313 130.25103516 -139.16992188 130.88720703 C-144.1161913 140.6766986 -145.62025423 150.83169291 -143.07617188 161.59814453 C-142.12398211 164.27852123 -141.05158749 166.82155085 -139.83398438 169.39111328 C-139.52203125 170.11814453 -139.21007812 170.84517578 -138.88867188 171.59423828 C-136.62690201 176.57393327 -133.57282005 180.4306456 -129.83398438 184.39111328 C-128.94710937 185.33986328 -128.06023437 186.28861328 -127.14648438 187.26611328 C-124.94247596 189.5822027 -124.94247596 189.5822027 -121.83398438 190.39111328 C-121.83398438 191.05111328 -121.83398438 191.71111328 -121.83398438 192.39111328 C-121.17398438 192.39111328 -120.51398438 192.39111328 -119.83398438 192.39111328 C-119.50398438 193.38111328 -119.17398438 194.37111328 -118.83398438 195.39111328 C-116.49518663 197.92481083 -114.13013665 200.16330384 -111.39648438 202.26611328 C-109.24390414 204.05117982 -107.66470715 205.69661551 -105.89648438 207.82861328 C-103.13723518 211.14678731 -100.18751693 213.67974653 -96.83398438 216.39111328 C-95.15457942 218.04494354 -93.48980148 219.71366722 -91.83398438 221.39111328 C-90.8555616 222.37102327 -89.87637234 223.35016845 -88.89648438 224.32861328 C-86.85481771 226.37027995 -84.81315104 228.41194661 -82.77148438 230.45361328 C-82.03067627 231.19430054 -82.03067627 231.19430054 -81.27490234 231.94995117 C-79.92162326 233.30345954 -78.56918099 234.65780443 -77.21679688 236.01220703 C-75.71685586 237.50968912 -74.21228643 239.00256346 -72.70117188 240.48876953 C-72.04375 241.13716797 -71.38632813 241.78556641 -70.70898438 242.45361328 C-70.04640625 243.10458984 -69.38382812 243.75556641 -68.70117188 244.42626953 C-63.83398438 249.54801705 -63.83398438 249.54801705 -63.83398438 252.39111328 C-64.49398437 252.39111328 -65.15398437 252.39111328 -65.83398438 252.39111328 C-67.50276159 254.0791696 -67.50276159 254.0791696 -69.20898438 256.20361328 C-71.0696472 258.45362185 -72.70271141 260.29461614 -75.06054688 262.02783203 C-75.93839844 262.70265625 -75.93839844 262.70265625 -76.83398438 263.39111328 C-76.83398438 264.05111328 -76.83398438 264.71111328 -76.83398438 265.39111328 C-77.49398437 265.39111328 -78.15398437 265.39111328 -78.83398438 265.39111328 C-78.83398438 266.05111328 -78.83398438 266.71111328 -78.83398438 267.39111328 C-79.49398437 267.39111328 -80.15398437 267.39111328 -80.83398438 267.39111328 C-82.43457731 269.01203921 -82.43457731 269.01203921 -84.08398438 271.07861328 C-86.33474166 273.74460461 -88.53447982 276.1012142 -91.27148438 278.26611328 C-92.11710937 278.96736328 -92.96273437 279.66861328 -93.83398438 280.39111328 C-93.83398438 281.05111328 -93.83398438 281.71111328 -93.83398438 282.39111328 C-94.49398437 282.39111328 -95.15398437 282.39111328 -95.83398438 282.39111328 C-97.57091595 284.14633276 -97.57091595 284.14633276 -99.33398438 286.32861328 C-102.63156746 290.28990482 -102.63156746 290.28990482 -104.83398438 291.39111328 C-104.83398438 292.05111328 -104.83398438 292.71111328 -104.83398438 293.39111328 C-105.49398437 293.39111328 -106.15398437 293.39111328 -106.83398438 293.39111328 C-108.50276159 295.0791696 -108.50276159 295.0791696 -110.20898438 297.20361328 C-112.0696472 299.45362185 -113.70271141 301.29461614 -116.06054688 303.02783203 C-116.93839844 303.70265625 -116.93839844 303.70265625 -117.83398438 304.39111328 C-117.83398438 305.05111328 -117.83398438 305.71111328 -117.83398438 306.39111328 C-118.49398437 306.39111328 -119.15398437 306.39111328 -119.83398438 306.39111328 C-119.83398438 307.05111328 -119.83398438 307.71111328 -119.83398438 308.39111328 C-120.49398437 308.39111328 -121.15398437 308.39111328 -121.83398438 308.39111328 C-121.83398438 309.05111328 -121.83398438 309.71111328 -121.83398438 310.39111328 C-122.49398437 310.39111328 -123.15398437 310.39111328 -123.83398438 310.39111328 C-126.50065104 312.72444661 -126.50065104 312.72444661 -128.83398438 315.39111328 C-128.83398438 316.05111328 -128.83398438 316.71111328 -128.83398438 317.39111328 C-129.49398437 317.39111328 -130.15398437 317.39111328 -130.83398438 317.39111328 C-140.29692183 326.83021462 -144.1132558 339.09402219 -144.15307617 352.10791016 C-143.94017235 364.2722729 -138.01393018 374.64047359 -129.83398438 383.39111328 C-120.32899987 391.58506544 -110.51125793 395.75024134 -97.95898438 395.70361328 C-97.09917969 395.71972656 -96.239375 395.73583984 -95.35351562 395.75244141 C-89.56885064 395.75683038 -85.07187584 394.82645089 -79.83398438 392.39111328 C-78.87492187 391.95412109 -77.91585937 391.51712891 -76.92773438 391.06689453 C-71.18459474 388.0482865 -66.78231619 384.81912618 -62.39257812 380.02783203 C-60.83398437 378.39111328 -60.83398437 378.39111328 -58.83398438 377.39111328 C-58.83398438 376.73111328 -58.83398438 376.07111328 -58.83398438 375.39111328 C-58.17398438 375.39111328 -57.51398438 375.39111328 -56.83398438 375.39111328 C-55.1972293 373.77311826 -55.1972293 373.77311826 -53.52148438 371.70361328 C-49.297326 366.74481867 -44.92004431 362.45996123 -39.83398438 358.39111328 C-38.14635586 356.74567548 -36.47994948 355.07822751 -34.83398438 353.39111328 C-29.83398438 348.39111328 -29.83398438 348.39111328 -28.02148438 346.70361328 C-26.6103466 345.43893057 -26.6103466 345.43893057 -26.83398438 343.39111328 C-25.99867188 343.05080078 -25.99867188 343.05080078 -25.14648438 342.70361328 C-20.87086561 340.27691074 -17.69481619 336.95860955 -15.83398438 332.39111328 C-15.17398438 332.39111328 -14.51398438 332.39111328 -13.83398438 332.39111328 C-13.83398438 331.73111328 -13.83398438 331.07111328 -13.83398438 330.39111328 C-13.27710938 330.16423828 -12.72023437 329.93736328 -12.14648438 329.70361328 C-9.1723885 328.01561292 -7.11389572 325.92434811 -4.83398438 323.39111328 C-4.83398438 322.73111328 -4.83398438 322.07111328 -4.83398438 321.39111328 C-4.17398438 321.39111328 -3.51398438 321.39111328 -2.83398438 321.39111328 C-2.83398438 320.73111328 -2.83398438 320.07111328 -2.83398438 319.39111328 C-1.51398438 318.73111328 -0.19398438 318.07111328 1.16601562 317.39111328 C1.16601562 316.73111328 1.16601562 316.07111328 1.16601562 315.39111328 C5.71002005 317.78490489 8.8558506 320.90801056 12.35351562 324.57861328 C14.25356524 326.57056373 16.17097009 328.49036827 18.16601562 330.39111328 C18.82601562 330.39111328 19.48601562 330.39111328 20.16601562 330.39111328 C20.41351563 331.00986328 20.66101563 331.62861328 20.91601562 332.26611328 C21.98745292 334.52857822 21.98745292 334.52857822 24.16601562 335.39111328 C26.72059562 336.66840328 26.90943827 337.87224685 28.16601562 340.39111328 C29.63916641 342.16765654 29.63916641 342.16765654 31.35351562 343.84423828 C31.9696875 344.46298828 32.58585938 345.08173828 33.22070312 345.71923828 C33.86265625 346.35345703 34.50460937 346.98767578 35.16601562 347.64111328 C35.80796875 348.29080078 36.44992187 348.94048828 37.11132812 349.60986328 C37.7275 350.22345703 38.34367188 350.83705078 38.97851562 351.46923828 C39.82349609 352.31083496 39.82349609 352.31083496 40.68554688 353.16943359 C42.10320671 354.6032712 42.10320671 354.6032712 44.16601562 354.39111328 C44.41351563 355.00986328 44.66101563 355.62861328 44.91601562 356.26611328 C45.98745292 358.52857822 45.98745292 358.52857822 48.16601562 359.39111328 C50.72762347 360.6719172 50.93062956 361.84767138 52.16601562 364.39111328 C54.92379397 367.43918409 57.33258628 369.82934577 61.16601562 371.39111328 C61.16601562 372.05111328 61.16601562 372.71111328 61.16601562 373.39111328 C61.82601562 373.39111328 62.48601562 373.39111328 63.16601562 373.39111328 C63.16601562 374.05111328 63.16601562 374.71111328 63.16601562 375.39111328 C63.82601562 375.39111328 64.48601562 375.39111328 65.16601562 375.39111328 C65.16601562 376.05111328 65.16601562 376.71111328 65.16601562 377.39111328 C66.74742984 379.02992781 66.74742984 379.02992781 68.79101562 380.70361328 C69.52578125 381.32494141 70.26054687 381.94626953 71.01757812 382.58642578 C71.7265625 383.18197266 72.43554688 383.77751953 73.16601562 384.39111328 C73.689375 384.86291016 74.21273437 385.33470703 74.75195312 385.82080078 C84.40103896 394.40368929 95.71203302 396.11475587 108.19335938 395.85595703 C115.51217605 395.4119195 121.66726956 392.6540442 128.16601562 389.39111328 C128.82601563 389.06111328 129.48601562 388.73111328 130.16601562 388.39111328 C130.16601562 387.73111328 130.16601562 387.07111328 130.16601562 386.39111328 C130.72289062 386.16423828 131.27976562 385.93736328 131.85351562 385.70361328 C139.82195936 381.18098305 146.20125219 371.62797772 148.92773438 362.97314453 C151.64630088 350.84563862 150.71441111 338.42705628 144.72851562 327.39111328 C140.87939425 321.40466572 135.72149109 316.61758974 130.58642578 311.74731445 C128.40771591 309.66709216 126.29088421 307.52611638 124.16601562 305.39111328 C123.29460937 304.53130859 122.42320312 303.67150391 121.52539062 302.78564453 C120.66429687 301.93357422 119.80320312 301.08150391 118.91601562 300.20361328 C118.04460937 299.34380859 117.17320312 298.48400391 116.27539062 297.59814453 C114.16601562 295.39111328 114.16601562 295.39111328 113.16601562 293.39111328 C112.50601562 293.39111328 111.84601563 293.39111328 111.16601562 293.39111328 C111.16601562 292.73111328 111.16601562 292.07111328 111.16601562 291.39111328 C109.5480206 289.7543582 109.5480206 289.7543582 107.47851562 288.07861328 C103.64307202 284.81612699 100.07787888 281.39356357 96.59960938 277.75048828 C95.15683429 276.26251783 93.66448356 274.82298264 92.16601562 273.39111328 C91.50601563 273.39111328 90.84601563 273.39111328 90.16601562 273.39111328 C89.90699463 272.80539551 89.64797363 272.21967773 89.38110352 271.61621094 C88.07599437 269.22626422 86.67262235 267.68392988 84.72460938 265.78955078 C84.05880859 265.13470703 83.39300781 264.47986328 82.70703125 263.80517578 C82.01287109 263.13228516 81.31871094 262.45939453 80.60351562 261.76611328 C79.22503026 260.42199459 77.84862162 259.07574175 76.47460938 257.72705078 C75.86415771 257.13456543 75.25370605 256.54208008 74.62475586 255.93164062 C73.16601562 254.39111328 73.16601562 254.39111328 72.16601562 252.39111328 C71.50601563 252.39111328 70.84601563 252.39111328 70.16601562 252.39111328 C70.74039349 248.51406273 72.59329617 246.27567752 75.16601562 243.39111328 C75.82601562 243.06111328 76.48601562 242.73111328 77.16601562 242.39111328 C77.16601562 241.73111328 77.16601562 241.07111328 77.16601562 240.39111328 C77.82601562 240.39111328 78.48601562 240.39111328 79.16601562 240.39111328 C79.16601562 239.73111328 79.16601562 239.07111328 79.16601562 238.39111328 C79.74867188 238.13330078 80.33132813 237.87548828 80.93164062 237.60986328 C83.34630593 236.29277312 84.9834174 234.84022944 86.91601562 232.89111328 C87.52960938 232.28267578 88.14320313 231.67423828 88.77539062 231.04736328 C90.3803565 229.49627051 90.3803565 229.49627051 90.16601562 227.39111328 C90.82601562 227.39111328 91.48601562 227.39111328 92.16601562 227.39111328 C92.16601562 226.73111328 92.16601562 226.07111328 92.16601562 225.39111328 C92.75390869 225.12919189 93.34180176 224.86727051 93.94750977 224.59741211 C96.2851123 223.3263552 97.80254167 221.98373372 99.66210938 220.09033203 C100.30341797 219.44257813 100.94472656 218.79482422 101.60546875 218.12744141 C102.26482422 217.45132813 102.92417969 216.77521484 103.60351562 216.07861328 C104.25900391 215.41410156 104.91449219 214.74958984 105.58984375 214.06494141 C106.873489 212.76327104 108.15527379 211.45976297 109.43505859 210.15429688 C111.66341401 207.88445444 113.91317097 205.63663162 116.16601562 203.39111328 C117.14534977 202.41211412 118.12450726 201.43293822 119.10351562 200.45361328 C138.16601562 181.39111328 138.16601562 181.39111328 140.12304688 179.55908203 C148.2536643 170.93098897 150.687743 159.75443318 150.41210938 148.24267578 C149.41940773 136.73994243 145.19163501 124.99163487 136.16601562 117.39111328 C133.49729188 114.98534326 133.49729188 114.98534326 130.16601562 114.39111328 C130.16601562 113.73111328 130.16601562 113.07111328 130.16601562 112.39111328 C127.8958146 111.41045841 125.62489309 110.43153638 123.35351562 109.45361328 C122.71091797 109.17582031 122.06832031 108.89802734 121.40625 108.61181641 C110.98604764 104.13058949 98.64185474 103.60848419 87.66601562 106.89111328 C74.64058016 112.36553992 65.26413354 122.91896211 55.54101562 132.79345703 C54.06257863 134.28258973 52.58331593 135.77090305 51.10327148 137.25843811 C47.23808372 141.14624868 43.38118052 145.04215861 39.5269165 148.9407959 C33.33239353 155.2059423 27.12995255 161.46317061 20.91851807 167.71154976 C18.75418777 169.89258672 16.59637906 172.07993155 14.43896484 174.26780701 C13.12037863 175.59684757 11.80154464 176.92564238 10.48242188 178.25415039 C9.58477364 179.16965416 9.58477364 179.16965416 8.66899109 180.10365295 C4.50722713 184.27737611 4.50722713 184.27737611 1.16601562 185.39111328 C0.82570312 184.55580078 0.82570312 184.55580078 0.47851562 183.70361328 C-1.58203731 180.07311525 -4.24046391 177.16510894 -8.02148438 175.32861328 C-10.37942979 174.10898634 -10.66929737 172.7204873 -11.83398438 170.39111328 C-12.49398437 170.06111328 -13.15398437 169.73111328 -13.83398438 169.39111328 C-16.36243966 168.12688564 -16.59821202 166.862658 -17.83398438 164.39111328 C-18.49398437 164.06111328 -19.15398437 163.73111328 -19.83398438 163.39111328 C-21.83398438 162.39111328 -21.83398438 162.39111328 -22.70898438 160.59423828 C-24.05896337 157.95052942 -25.73069974 156.22893259 -27.83398438 154.14111328 C-28.53523438 153.43470703 -29.23648438 152.72830078 -29.95898438 152.00048828 C-31.67509205 150.17400929 -31.67509205 150.17400929 -33.83398438 150.39111328 C-34.08148438 149.77236328 -34.32898438 149.15361328 -34.58398438 148.51611328 C-36.04027077 146.04042641 -37.21210944 145.43986326 -39.83398438 144.39111328 C-39.83398438 143.73111328 -39.83398438 143.07111328 -39.83398438 142.39111328 C-40.49398437 142.39111328 -41.15398437 142.39111328 -41.83398438 142.39111328 C-41.83398438 141.73111328 -41.83398438 141.07111328 -41.83398438 140.39111328 C-44.26637783 137.75022896 -46.77384561 135.43895094 -49.58398438 133.20361328 C-51.83398438 131.39111328 -51.83398438 131.39111328 -52.83398438 129.39111328 C-53.49398437 129.39111328 -54.15398437 129.39111328 -54.83398438 129.39111328 C-54.83398438 128.73111328 -54.83398438 128.07111328 -54.83398438 127.39111328 C-55.49398437 127.39111328 -56.15398437 127.39111328 -56.83398438 127.39111328 C-56.83398438 126.73111328 -56.83398438 126.07111328 -56.83398438 125.39111328 C-57.49398437 125.39111328 -58.15398437 125.39111328 -58.83398438 125.39111328 C-58.83398438 124.73111328 -58.83398438 124.07111328 -58.83398438 123.39111328 C-61.16731771 120.72444661 -61.16731771 120.72444661 -63.83398438 118.39111328 C-64.49398437 118.39111328 -65.15398437 118.39111328 -65.83398438 118.39111328 C-65.83398438 117.73111328 -65.83398438 117.07111328 -65.83398438 116.39111328 C-77.44969011 107.10769492 -90.07689901 104.00727272 -104.64160156 105.125 C-114.77800321 106.35536501 -123.76447907 111.04408608 -130.83398438 118.39111328 Z " fill="#D80101" transform="translate(246.833984375,-0.39111328125)"/>
<path d="M0 0 C0 1.32 0 2.64 0 4 C-0.66 4 -1.32 4 -2 4 C-2 4.66 -2 5.32 -2 6 C-2.99 6 -3.98 6 -5 6 C-5.2475 7.11375 -5.495 8.2275 -5.75 9.375 C-7 13 -7 13 -8.9375 14.3125 C-9.618125 14.539375 -10.29875 14.76625 -11 15 C-14.10818505 16.75589949 -14.10818505 16.75589949 -15.5 19.5625 C-17 22 -17 22 -20 23 C-20.66 22.67 -21.32 22.34 -22 22 C-22 22.66 -22 23.32 -22 24 C-22.66 24 -23.32 24 -24 24 C-24.0928125 25.175625 -24.0928125 25.175625 -24.1875 26.375 C-24.455625 27.24125 -24.72375 28.1075 -25 29 C-26.65204456 29.70211894 -28.31923769 30.36971413 -30 31 C-30.165 31.66 -30.33 32.32 -30.5 33 C-30.7475 33.99 -30.7475 33.99 -31 35 C-32.66666667 35.66666667 -34.33333333 36.33333333 -36 37 C-36.76230794 38.8817921 -36.76230794 38.8817921 -37 41 C-38.63636364 44.81818182 -38.63636364 44.81818182 -41 46 C-41 46.66 -41 47.32 -41 48 C-42.33333333 49.33333333 -43.66666667 50.66666667 -45 52 C-46.25314636 53.84535055 -47.46080273 55.72228111 -48.625 57.625 C-51.80555556 62.80555556 -51.80555556 62.80555556 -54 65 C-54.99 64.67 -55.98 64.34 -57 64 C-56.01 62.02 -55.02 60.04 -54 58 C-53.34 58 -52.68 58 -52 58 C-51.74476562 57.28199219 -51.48953125 56.56398437 -51.2265625 55.82421875 C-47.73522001 47.78523588 -41.16552191 40.84454481 -35.6640625 34.09375 C-33.87336202 31.90044478 -33.87336202 31.90044478 -32 29 C-31.34 29 -30.68 29 -30 29 C-30 28.34 -30 27.68 -30 27 C-29.34 27 -28.68 27 -28 27 C-28 26.34 -28 25.68 -28 25 C-27.34 25 -26.68 25 -26 25 C-25.7628125 24.43796875 -25.525625 23.8759375 -25.28125 23.296875 C-23.71052303 20.48105958 -21.78528536 18.52044584 -19.5 16.25 C-18.7059375 15.45078125 -17.911875 14.6515625 -17.09375 13.828125 C-15 12 -15 12 -13 12 C-13 11.34 -13 10.68 -13 10 C-12.34 10 -11.68 10 -11 10 C-11 9.34 -11 8.68 -11 8 C-10.34 8 -9.68 8 -9 8 C-9 7.34 -9 6.68 -9 6 C-7.5390625 4.4921875 -7.5390625 4.4921875 -5.625 2.875 C-4.99851563 2.33617187 -4.37203125 1.79734375 -3.7265625 1.2421875 C-2 0 -2 0 0 0 Z " fill="#B1282A" transform="translate(93,55)"/>
<path d="M0 0 C0.825 0.00064453 1.65 0.00128906 2.5 0.00195312 C7.27101998 0.03603184 11.9512871 0.14285874 16.625 1.1875 C17.285 2.1775 17.945 3.1675 18.625 4.1875 C17.15740234 3.95160156 17.15740234 3.95160156 15.66015625 3.7109375 C1.85213695 1.76263048 -11.45286815 2.24711688 -23.390625 10.1953125 C-26.9740101 12.96987639 -29.85280794 15.40421191 -32.375 19.1875 C-33.035 19.1875 -33.695 19.1875 -34.375 19.1875 C-34.65214844 19.88617188 -34.92929688 20.58484375 -35.21484375 21.3046875 C-36.85086004 25.36994011 -38.55635606 29.40544528 -40.25390625 33.4453125 C-42.13708858 38.05156335 -42.5670199 41.89033342 -42.5625 46.8125 C-42.56314453 47.52728516 -42.56378906 48.24207031 -42.56445312 48.97851562 C-42.5114023 54.29806684 -41.84174814 59.0538815 -40.375 64.1875 C-42.3125 63.5625 -42.3125 63.5625 -44.375 62.1875 C-45.80451103 57.24504165 -45.59280372 51.93170821 -45.625 46.8125 C-45.645625 46.00039062 -45.66625 45.18828125 -45.6875 44.3515625 C-45.72441676 38.59254767 -44.65367344 34.4758499 -42.375 29.1875 C-41.69764783 27.19109361 -41.02661065 25.19245586 -40.375 23.1875 C-39.715 23.1875 -39.055 23.1875 -38.375 23.1875 C-38.375 21.8675 -38.375 20.5475 -38.375 19.1875 C-37.385 19.1875 -36.395 19.1875 -35.375 19.1875 C-35.045 18.1975 -34.715 17.2075 -34.375 16.1875 C-33.715 16.1875 -33.055 16.1875 -32.375 16.1875 C-32.375 14.5375 -32.375 12.8875 -32.375 11.1875 C-31.055 11.1875 -29.735 11.1875 -28.375 11.1875 C-28.375 10.5275 -28.375 9.8675 -28.375 9.1875 C-26.74435236 8.12978261 -25.07219127 7.13476954 -23.375 6.1875 C-22.385 5.5275 -21.395 4.8675 -20.375 4.1875 C-17.1875 4.0625 -17.1875 4.0625 -14.375 4.1875 C-14.375 3.5275 -14.375 2.8675 -14.375 2.1875 C-9.62457583 -0.26527003 -5.20748272 -0.07658063 0 0 Z " fill="#BA292A" transform="translate(146.375,102.8125)"/>
<path d="M0 0 C0.7020474 2.4520038 1.04830667 3.77658166 0.5 6.3125 C-0.13575897 9.72970447 0.3999234 12.59956595 1 16 C0.01 16 -0.98 16 -2 16 C-5.31886177 22.97466383 -8.0337775 30.02874836 -9.51171875 37.6328125 C-10 40 -10 40 -11.125 42.625 C-12.31560114 45.09435498 -12.31560114 45.09435498 -11 48 C-11.45375 48.37125 -11.9075 48.7425 -12.375 49.125 C-16.08750824 53.40866335 -16.48787482 59.29759092 -17.125 64.75 C-17.25563843 65.80779663 -17.25563843 65.80779663 -17.38891602 66.88696289 C-17.83991449 70.76821578 -18.0661708 74.53448562 -17.9375 78.4375 C-17.7951034 83.37112339 -19.15923779 87.46383598 -21 92 C-21.33 92 -21.66 92 -22 92 C-22.62041949 60.14796964 -13.01208676 28.78864617 0 0 Z " fill="#AA2526" transform="translate(22,144)"/>
<path d="M0 0 C0.33 0 0.66 0 1 0 C1.19466332 1.79090253 1.38051213 3.58276505 1.5625 5.375 C1.66691406 6.37273437 1.77132812 7.37046875 1.87890625 8.3984375 C2 11 2 11 1 13 C1.99 12.67 2.98 12.34 4 12 C5.18017757 19.67115419 5 27.25944885 5 35 C5.66 35 6.32 35 7 35 C6.79375 36.2375 6.5875 37.475 6.375 38.75 C5.92268351 42.28178632 6.23438387 43.88420683 8 47 C7.979375 47.9075 7.95875 48.815 7.9375 49.75 C7.99621604 52.80323408 8.37453306 54.2570015 9.5 57 C10.91642636 60.45794228 11.28290889 63.22788141 11 67 C11.66 67.33 12.32 67.66 13 68 C13 70.97 13 73.94 13 77 C10.59939308 74.59939308 10.26994343 73.00815244 9.37890625 69.75 C9.0845166 68.67492187 8.79012695 67.59984375 8.48681641 66.4921875 C8.18179199 65.33976562 7.87676758 64.18734375 7.5625 63 C7.24974121 61.82695312 6.93698242 60.65390625 6.61474609 59.4453125 C4.16204635 50.04093888 2.17990133 40.64830712 1 31 C0.90501221 30.23187988 0.81002441 29.46375977 0.7121582 28.67236328 C0.00569071 22.39031317 -0.12017041 16.19212795 -0.0625 9.875 C-0.05798828 8.91851562 -0.05347656 7.96203125 -0.04882812 6.9765625 C-0.03720017 4.65097242 -0.02086102 2.3255224 0 0 Z " fill="#B12D2B" transform="translate(0,253)"/>
<path d="M0 0 C0.66 0.33 1.32 0.66 2 1 C1.01 1.66 0.02 2.32 -1 3 C-1.185625 3.99 -1.185625 3.99 -1.375 5 C-2 7 -2 7 -4.1875 8.1875 C-7.1148728 9.03318548 -9.98376679 9.57913025 -13 10 C-13.33 11.32 -13.66 12.64 -14 14 C-14.928125 14.061875 -15.85625 14.12375 -16.8125 14.1875 C-20.16239064 14.6920527 -20.16239064 14.6920527 -21.875 17.4375 C-23.13399669 19.83878524 -23.13399669 19.83878524 -23 22 C-26.16240582 24.10827055 -27.50657469 24.33817465 -31.1875 24.625 C-32.08855469 24.69976562 -32.98960938 24.77453125 -33.91796875 24.8515625 C-34.60503906 24.90054688 -35.29210937 24.94953125 -36 25 C-30.47740945 18.9251504 -23.75186845 13.81005231 -16 11 C-16 10.34 -16 9.68 -16 9 C-13.515625 7.34375 -13.515625 7.34375 -10.25 5.5 C-9.18265625 4.8915625 -8.1153125 4.283125 -7.015625 3.65625 C-6.02046875 3.1096875 -5.0253125 2.563125 -4 2 C-3.25234375 1.5771875 -2.5046875 1.154375 -1.734375 0.71875 C-0.87585938 0.36296875 -0.87585938 0.36296875 0 0 Z " fill="#BE2626" transform="translate(129,30)"/>
<path d="M0 0 C2.5625 0.9375 2.5625 0.9375 4.375 3.875 C5.5625 6.9375 5.5625 6.9375 5.5625 8.9375 C7.2125 8.9375 8.8625 8.9375 10.5625 8.9375 C10.2325 10.2575 9.9025 11.5775 9.5625 12.9375 C10.5525 12.9375 11.5425 12.9375 12.5625 12.9375 C14.5625 15.25 14.5625 15.25 16.5625 17.9375 C17.14 18.494375 17.7175 19.05125 18.3125 19.625 C19.5625 20.9375 19.5625 20.9375 19.5625 22.9375 C21.2125 23.2675 22.8625 23.5975 24.5625 23.9375 C24.8925 25.5875 25.2225 27.2375 25.5625 28.9375 C24.5725 28.9375 23.5825 28.9375 22.5625 28.9375 C22.2325 27.9475 21.9025 26.9575 21.5625 25.9375 C21.00046875 25.6590625 20.4384375 25.380625 19.859375 25.09375 C16.62219535 23.46414936 14.32630516 20.99089264 11.8125 18.4375 C11.30589844 17.93863281 10.79929687 17.43976563 10.27734375 16.92578125 C6.5625 13.19091139 6.5625 13.19091139 6.5625 10.9375 C5.9025 10.9375 5.2425 10.9375 4.5625 10.9375 C4.5625 10.2775 4.5625 9.6175 4.5625 8.9375 C4.005625 8.73125 3.44875 8.525 2.875 8.3125 C-0.36251302 6.38749226 -2.11981141 3.89899098 -4.4375 0.9375 C-2.4375 -0.0625 -2.4375 -0.0625 0 0 Z " fill="#E03F44" transform="translate(353.4375,282.0625)"/>
<path d="M0 0 C0 1.32 0 2.64 0 4 C-0.66 4 -1.32 4 -2 4 C-2 4.66 -2 5.32 -2 6 C-2.99 6 -3.98 6 -5 6 C-5.2475 7.11375 -5.495 8.2275 -5.75 9.375 C-7 13 -7 13 -8.9375 14.3125 C-9.618125 14.539375 -10.29875 14.76625 -11 15 C-14.10818505 16.75589949 -14.10818505 16.75589949 -15.5 19.5625 C-17 22 -17 22 -20 23 C-20.66 22.67 -21.32 22.34 -22 22 C-22 22.66 -22 23.32 -22 24 C-23.32 23.67 -24.64 23.34 -26 23 C-24.21427748 21.16052663 -22.42197551 19.32842259 -20.625 17.5 C-20.11710937 16.97535156 -19.60921875 16.45070313 -19.0859375 15.91015625 C-17.76167396 14.56846819 -16.38394135 13.28004185 -15 12 C-14.34 12 -13.68 12 -13 12 C-13 11.34 -13 10.68 -13 10 C-12.34 10 -11.68 10 -11 10 C-11 9.34 -11 8.68 -11 8 C-10.34 8 -9.68 8 -9 8 C-9 7.34 -9 6.68 -9 6 C-7.5390625 4.4921875 -7.5390625 4.4921875 -5.625 2.875 C-4.68527344 2.06675781 -4.68527344 2.06675781 -3.7265625 1.2421875 C-2 0 -2 0 0 0 Z " fill="#B92123" transform="translate(93,55)"/>
<path d="M0 0 C2.28795413 2.9620256 4.1323729 6.00717951 5.96875 9.26953125 C9.22835989 14.73925542 13.7170749 19.47804993 19 23 C19 23.66 19 24.32 19 25 C19.66 25 20.32 25 21 25 C22.38232443 26.62626404 23.71937515 28.2925002 25 30 C22.69 29.67 20.38 29.34 18 29 C18 27.35 18 25.7 18 24 C16.8553125 23.7834375 16.8553125 23.7834375 15.6875 23.5625 C13 23 13 23 10 22 C9.67 23.32 9.34 24.64 9 26 C8.67 25.34 8.34 24.68 8 24 C7.34 23.67 6.68 23.34 6 23 C6.495 18.545 6.495 18.545 7 14 C5.68 13.67 4.36 13.34 3 13 C0.89172945 9.83759418 0.66182535 8.49342531 0.375 4.8125 C0.30023438 3.91144531 0.22546875 3.01039063 0.1484375 2.08203125 C0.09945312 1.39496094 0.05046875 0.70789063 0 0 Z " fill="#BF1E1D" transform="translate(106,167)"/>
<path d="M0 0 C2.475 0.99 2.475 0.99 5 2 C4.01 2.495 4.01 2.495 3 3 C3 3.66 3 4.32 3 5 C2.34 5 1.68 5 1 5 C0.773125 5.556875 0.54625 6.11375 0.3125 6.6875 C-1.37550036 9.66159588 -3.46676517 11.72008865 -6 14 C-6.66 14 -7.32 14 -8 14 C-8 14.66 -8 15.32 -8 16 C-8.66 16 -9.32 16 -10 16 C-10.66 17.32 -11.32 18.64 -12 20 C-12.66 20 -13.32 20 -14 20 C-13.814375 19.443125 -13.62875 18.88625 -13.4375 18.3125 C-12.92219908 15.58876658 -13.3658427 13.67755306 -14 11 C-14 10.34 -14 9.68 -14 9 C-13.34 9 -12.68 9 -12 9 C-12 9.66 -12 10.32 -12 11 C-11.01 11 -10.02 11 -9 11 C-9.33 10.01 -9.66 9.02 -10 8 C-9.0925 7.4225 -8.185 6.845 -7.25 6.25 C-4.47977054 4.33214884 -2.28054501 2.45597155 0 0 Z " fill="#EB0302" transform="translate(430,417)"/>
<path d="M0 0 C0.66 0.33 1.32 0.66 2 1 C1.79503906 1.81339844 1.59007812 2.62679687 1.37890625 3.46484375 C-0.22664223 10.29418631 -1.25669815 16.75478269 -1.5625 23.75 C-2.1334914 36.72985807 -2.1334914 36.72985807 -4 42 C-4.99 42.495 -4.99 42.495 -6 43 C-6.1769072 35.34150963 -5.70706144 27.96337766 -4.6875 20.375 C-4.51057617 18.91707031 -4.51057617 18.91707031 -4.33007812 17.4296875 C-3.53040125 11.32753781 -2.18914338 5.75355229 0 0 Z " fill="#AF3F40" transform="translate(6,193)"/>
<path d="M0 0 C5.08955224 6.07462687 5.08955224 6.07462687 4.875 10.6875 C5.01223373 14.32419379 5.97249293 16.71218932 7.33203125 20.03125 C8.2467651 22.72730766 8.21125489 25.18326809 8 28 C8.66 28.33 9.32 28.66 10 29 C10 31.97 10 34.94 10 38 C6.28717602 34.28717602 5.75690629 28.47293753 4.4375 23.5 C4.12103516 22.35273438 3.80457031 21.20546875 3.47851562 20.0234375 C1.6876356 13.34661093 0.39479011 6.90735007 0 0 Z " fill="#AB393A" transform="translate(3,292)"/>
<path d="M0 0 C1.98 0.99 1.98 0.99 4 2 C4 2.99 4 3.98 4 5 C4.99 5.33 5.98 5.66 7 6 C7 6.66 7 7.32 7 8 C10.04913228 9.01111093 10.04913228 9.01111093 13 8 C13 8.99 13 9.98 13 11 C12.34 11 11.68 11 11 11 C12.25790559 14.48343088 13.75673511 17.07400232 16 20 C16.33 20.99 16.66 21.98 17 23 C17.99 23.33 18.98 23.66 20 24 C20.33 25.98 20.66 27.96 21 30 C16.6525667 26.06013857 13.38995754 21.55447242 9.99609375 16.78125 C8.26153516 14.36440907 6.46356417 12.0250388 4.625 9.6875 C2.2959783 6.61800129 0.9443687 3.77747482 0 0 Z " fill="#B53132" transform="translate(35,378)"/>
<path d="M0 0 C0.53294678 0.21293701 1.06589355 0.42587402 1.61499023 0.64526367 C7.57032903 2.84991836 12.7440043 3.43335875 19.0625 3.3125 C20.3319043 3.31733398 20.3319043 3.31733398 21.62695312 3.32226562 C27.06328665 3.27615948 31.7791864 2.51494129 37 1 C37 1.99 37 2.98 37 4 C35.68 4 34.36 4 33 4 C32.67 4.99 32.34 5.98 32 7 C23.75 6.67 15.5 6.34 7 6 C7 5.34 7 4.68 7 4 C5.35 4 3.7 4 2 4 C1.34 2.68 0.68 1.36 0 0 Z " fill="#BD4341" transform="translate(130,391)"/>
<path d="M0 0 C0.33 0.99 0.66 1.98 1 3 C-0.8125 5.6875 -0.8125 5.6875 -3 8 C-3.66 8 -4.32 8 -5 8 C-5 8.66 -5 9.32 -5 10 C-5.99 10 -6.98 10 -8 10 C-8.33 11.32 -8.66 12.64 -9 14 C-9.99 14 -10.98 14 -12 14 C-12 14.66 -12 15.32 -12 16 C-12.66 16 -13.32 16 -14 16 C-14 16.99 -14 17.98 -14 19 C-14.66 19 -15.32 19 -16 19 C-16.33 19.99 -16.66 20.98 -17 22 C-18.65 22.33 -20.3 22.66 -22 23 C-20.44848291 18.34544873 -17.02645229 15.81649614 -13.25 12.8125 C-10.92512612 11.19690923 -10.92512612 11.19690923 -10 9 C-9.34 9 -8.68 9 -8 9 C-8 8.34 -8 7.68 -8 7 C-5.47107279 4.26602464 -3.10404867 2.06936578 0 0 Z " fill="#D24E4D" transform="translate(241,323)"/>
<path d="M0 0 C0.99 0 1.98 0 3 0 C3 1.65 3 3.3 3 5 C4.216875 5.061875 5.43375 5.12375 6.6875 5.1875 C11.17383464 5.72840559 13.14764741 7.45616799 16 11 C16.33 11.66 16.66 12.32 17 13 C15.68 13 14.36 13 13 13 C13 13.99 13 14.98 13 16 C12.34 16 11.68 16 11 16 C11 15.01 11 14.02 11 13 C10.01 13 9.02 13 8 13 C6.3125 10.5 6.3125 10.5 5 8 C3.68 8.33 2.36 8.66 1 9 C0.34 6.69 -0.32 4.38 -1 2 C-0.67 1.67 -0.34 1.34 0 1 C0 0.67 0 0.34 0 0 Z " fill="#C10305" transform="translate(121,191)"/>
<path d="M0 0 C1.98 0 3.96 0 6 0 C6 0.66 6 1.32 6 2 C7.11375 2.12375 8.2275 2.2475 9.375 2.375 C13 3 13 3 15 5 C16.90838468 5.60979594 16.90838468 5.60979594 19.09765625 6 C20.29938477 6.2475 20.29938477 6.2475 21.52539062 6.5 C23.22055725 6.83407441 24.91587071 7.16740452 26.61132812 7.5 C27.41119141 7.665 28.21105469 7.83 29.03515625 8 C29.7712915 8.144375 30.50742676 8.28875 31.26586914 8.4375 C31.83813232 8.623125 32.41039551 8.80875 33 9 C33.495 9.99 33.495 9.99 34 11 C29.84566505 12.74805782 26.13226334 11.14874962 22.0625 9.875 C20.94210327 9.53529175 20.94210327 9.53529175 19.79907227 9.1887207 C13.07220801 7.10937779 6.51810398 4.66392076 0 2 C0 1.34 0 0.68 0 0 Z " fill="#C52C2F" transform="translate(153,480)"/>
<path d="M0 0 C4.18710675 3.51137771 8.1339676 7.1339676 12 11 C13.64864545 12.35555293 15.31003995 13.69631653 17 15 C16.67 15.66 16.34 16.32 16 17 C14.68 16.67 13.36 16.34 12 16 C12 16.66 12 17.32 12 18 C11.34 18 10.68 18 10 18 C9.67 15.69 9.34 13.38 9 11 C6.03 10.505 6.03 10.505 3 10 C2.67 9.01 2.34 8.02 2 7 C1.34 7 0.68 7 0 7 C-1.04449911 3.86650268 -0.93423645 3.01031744 0 0 Z " fill="#D43737" transform="translate(280,345)"/>
<path d="M0 0 C2.62538284 0.14053872 5.25017427 0.28718947 7.875 0.4375 C8.99455078 0.49647461 8.99455078 0.49647461 10.13671875 0.55664062 C15.7734375 0.88671875 15.7734375 0.88671875 18 2 C20.85207778 2.31255647 23.70496854 2.51037482 26.56640625 2.71875 C29 3 29 3 30 4 C32.32817964 4.36760731 34.6618385 4.70241581 37 5 C37 5.66 37 6.32 37 7 C30.66050433 7.26711358 24.72776791 6.24934734 18.5 5.125 C17.49324219 4.95097656 16.48648438 4.77695312 15.44921875 4.59765625 C10.19094475 3.66729322 5.09874928 2.58977857 0 1 C0 0.67 0 0.34 0 0 Z " fill="#CA3F3F" transform="translate(185,492)"/>
<path d="M0 0 C2.17841025 2.17841025 2.4908567 3.23160581 3.3125 6.125 C4.6168886 10.25778226 6.40380245 13.59069709 8.81640625 17.17578125 C10.03732386 19.05752555 11.03164359 20.97850021 12 23 C9.35261084 24.4606285 8.10551666 25 5 25 C5.66 23.35 6.32 21.7 7 20 C6.34 20 5.68 20 5 20 C1.80835533 13.16076141 -0.73226358 7.61554118 0 0 Z " fill="#BD2F31" transform="translate(103,358)"/>
<path d="M0 0 C3.17730766 1.73307691 4.8693062 4.26166365 7.0625 7.125 C6.4025 7.125 5.7425 7.125 5.0625 7.125 C4.7325 7.785 4.4025 8.445 4.0625 9.125 C4.0625 8.465 4.0625 7.805 4.0625 7.125 C2.7425 7.125 1.4225 7.125 0.0625 7.125 C0.7225 8.775 1.3825 10.425 2.0625 12.125 C0.125 11.8125 0.125 11.8125 -1.9375 11.125 C-2.2675 10.135 -2.5975 9.145 -2.9375 8.125 C-4.5875 8.125 -6.2375 8.125 -7.9375 8.125 C-7.9375 7.465 -7.9375 6.805 -7.9375 6.125 C-7.2775 6.125 -6.6175 6.125 -5.9375 6.125 C-5.9375 5.465 -5.9375 4.805 -5.9375 4.125 C-2.78103741 0.17942177 -2.78103741 0.17942177 0 0 Z " fill="#D83235" transform="translate(249.9375,314.875)"/>
<path d="M0 0 C0.33 0.66 0.66 1.32 1 2 C0.06553465 4.03144641 -0.93224776 6.03533587 -2 8 C-2.99 8 -3.98 8 -5 8 C-5.66 10.31 -6.32 12.62 -7 15 C-7.66 15 -8.32 15 -9 15 C-9.33 15.66 -9.66 16.32 -10 17 C-10.99 17 -11.98 17 -13 17 C-13 17.66 -13 18.32 -13 19 C-14.65 19 -16.3 19 -18 19 C-17.67 18.34 -17.34 17.68 -17 17 C-16.34 17 -15.68 17 -15 17 C-15 16.34 -15 15.68 -15 15 C-14.34 15 -13.68 15 -13 15 C-12.34 13.68 -11.68 12.36 -11 11 C-10.34 11 -9.68 11 -9 11 C-8.773125 10.443125 -8.54625 9.88625 -8.3125 9.3125 C-6.63575448 6.35823409 -4.45423315 4.33152149 -2 2 C-1.34 1.34 -0.68 0.68 0 0 Z " fill="#CE2B2C" transform="translate(203,360)"/>
<path d="M0 0 C0.33 0 0.66 0 1 0 C2.19701511 6.74681246 1.82326501 12.55517902 0.6875 19.25 C0.49256958 20.40218018 0.49256958 20.40218018 0.29370117 21.57763672 C-0.48126244 25.86294842 -1.5034576 29.89594487 -3 34 C-3.33 34 -3.66 34 -4 34 C-4.05382106 31.37472811 -4.09358313 28.75055287 -4.125 26.125 C-4.14175781 25.37863281 -4.15851563 24.63226563 -4.17578125 23.86328125 C-4.1933959 21.90805539 -4.10320189 19.95257979 -4 18 C-3.34 17.34 -2.68 16.68 -2 16 C-1.53340269 13.27530214 -1.16400746 10.61820198 -0.875 7.875 C-0.78863281 7.12089844 -0.70226562 6.36679687 -0.61328125 5.58984375 C-0.40110739 3.72742873 -0.19954237 1.86381069 0 0 Z " fill="#E6383A" transform="translate(496,280)"/>
<path d="M0 0 C0 0.33 0 0.66 0 1 C-1.7015625 1.2165625 -1.7015625 1.2165625 -3.4375 1.4375 C-6.80777201 1.61171478 -6.80777201 1.61171478 -8 3 C-10.33297433 3.04092937 -12.66705225 3.04241723 -15 3 C-15 3.66 -15 4.32 -15 5 C-16.65 5.66 -18.3 6.32 -20 7 C-20.33 6.67 -20.66 6.34 -21 6 C-22.99958364 5.95919217 -25.00045254 5.95745644 -27 6 C-27.33 6.66 -27.66 7.32 -28 8 C-29.65 8 -31.3 8 -33 8 C-29.5766053 5.71773687 -26.14414826 4.67250814 -22.25 3.5 C-21.5590625 3.28730469 -20.868125 3.07460937 -20.15625 2.85546875 C-18.77702481 2.43288659 -17.39624167 2.0153544 -16.01391602 1.60302734 C-14.08136808 1.02436406 -12.15571465 0.42282469 -10.23046875 -0.1796875 C-6.4833281 -1.13119843 -3.75889954 -0.76712235 0 0 Z " fill="#CA3D3C" transform="translate(200,6)"/>
<path d="M0 0 C1.37605154 2.75210308 0.57652184 3.86924579 -0.375 6.75 C-2.00752152 11.9233787 -3 16.55024381 -3 22 C-4.65 22.33 -6.3 22.66 -8 23 C-6.9559635 16.31816637 -5.5957524 10.2534035 -3 4 C-2.34 4 -1.68 4 -1 4 C-0.67 2.68 -0.34 1.36 0 0 Z " fill="#AC3030" transform="translate(14,170)"/>
<path d="M0 0 C0.99 0.33 1.98 0.66 3 1 C2.27683594 2.39412109 2.27683594 2.39412109 1.5390625 3.81640625 C0.90071567 5.06493755 0.26271322 6.31364495 -0.375 7.5625 C-0.69210938 8.17158203 -1.00921875 8.78066406 -1.3359375 9.40820312 C-3.43311374 13.53701886 -4.85603936 17.51082113 -6 22 C-6.33 22 -6.66 22 -7 22 C-7 18.37 -7 14.74 -7 11 C-5.68 10.34 -4.36 9.68 -3 9 C-3 8.01 -3 7.02 -3 6 C-3.99 6.33 -4.98 6.66 -6 7 C-5.1875 5.0625 -5.1875 5.0625 -4 3 C-3.01 2.67 -2.02 2.34 -1 2 C-0.67 1.34 -0.34 0.68 0 0 Z " fill="#C43634" transform="translate(110,320)"/>
<path d="M0 0 C0.81919922 -0.00128906 1.63839844 -0.00257812 2.48242188 -0.00390625 C3.34029297 -0.00003906 4.19816406 0.00382812 5.08203125 0.0078125 C5.92056641 0.00394531 6.75910156 0.00007813 7.62304688 -0.00390625 C12.46812565 0.00365828 17.15687781 0.06361445 21.89453125 1.1328125 C22.55453125 2.1228125 23.21453125 3.1128125 23.89453125 4.1328125 C22.98574219 3.96910156 22.07695312 3.80539063 21.140625 3.63671875 C15.76573069 2.86887671 10.3743158 3.0265976 4.95703125 3.0703125 C3.89162109 3.07482422 2.82621094 3.07933594 1.72851562 3.08398438 C-0.88287166 3.09569463 -3.49413999 3.11209526 -6.10546875 3.1328125 C-6.10546875 2.4728125 -6.10546875 1.8128125 -6.10546875 1.1328125 C-3.82293185 -0.00845595 -2.53469051 0.0038584 0 0 Z " fill="#B31C1D" transform="translate(141.10546875,102.8671875)"/>
<path d="M0 0 C2.5625 0.9375 2.5625 0.9375 4.375 3.875 C5.5625 6.9375 5.5625 6.9375 5.5625 8.9375 C7.2125 8.9375 8.8625 8.9375 10.5625 8.9375 C9.9025 10.2575 9.2425 11.5775 8.5625 12.9375 C7.2425 12.2775 5.9225 11.6175 4.5625 10.9375 C4.5625 10.2775 4.5625 9.6175 4.5625 8.9375 C4.005625 8.73125 3.44875 8.525 2.875 8.3125 C-0.36251302 6.38749226 -2.11981141 3.89899098 -4.4375 0.9375 C-2.4375 -0.0625 -2.4375 -0.0625 0 0 Z " fill="#E52729" transform="translate(353.4375,282.0625)"/>
<path d="M0 0 C0.66 0.66 1.32 1.32 2 2 C1.67 2.66 1.34 3.32 1 4 C0.34 4 -0.32 4 -1 4 C-1.38478516 4.87398437 -1.38478516 4.87398437 -1.77734375 5.765625 C-3.10785826 8.19710839 -4.58443013 9.81735553 -6.5625 11.75 C-7.49255859 12.67039062 -7.49255859 12.67039062 -8.44140625 13.609375 C-10 15 -10 15 -11 15 C-10.67 11.7 -10.34 8.4 -10 5 C-8.02 5.66 -6.04 6.32 -4 7 C-3.8453125 5.824375 -3.8453125 5.824375 -3.6875 4.625 C-3 2 -3 2 0 0 Z " fill="#CF312F" transform="translate(182,248)"/>
<path d="M0 0 C-3.28111375 2.18740917 -5.26834963 2.50955856 -9.125 3.0625 C-12.87916835 3.31773724 -12.87916835 3.31773724 -16 5 C-18.69654854 5.07319621 -21.36691458 5.09242537 -24.0625 5.0625 C-24.82111328 5.05798828 -25.57972656 5.05347656 -26.36132812 5.04882812 C-28.24091871 5.0370068 -30.12046899 5.01907078 -32 5 C-28.91048384 3.25067256 -26.26623206 2.59272108 -22.75390625 2.1484375 C-21.75166016 2.01953125 -20.74941406 1.890625 -19.71679688 1.7578125 C-18.67587891 1.63148437 -17.63496094 1.50515625 -16.5625 1.375 C-15.00692383 1.17390625 -15.00692383 1.17390625 -13.41992188 0.96875 C-8.91145034 0.40120959 -4.55005627 -0.07700648 0 0 Z " fill="#D14747" transform="translate(230,0)"/>
<path d="M0 0 C-0.33 1.32 -0.66 2.64 -1 4 C1.64 4.66 4.28 5.32 7 6 C6.34 7.32 5.68 8.64 5 10 C5.99 10.33 6.98 10.66 8 11 C7.67 11.99 7.34 12.98 7 14 C5.2925002 12.71937515 3.62626404 11.38232443 2 10 C2 9.34 2 8.68 2 8 C0.68 7.34 -0.64 6.68 -2 6 C-2 5.34 -2 4.68 -2 4 C-2.9590625 3.566875 -2.9590625 3.566875 -3.9375 3.125 C-6 2 -6 2 -7 0 C-4.3333581 -1.33332095 -2.83319697 -0.67102033 0 0 Z " fill="#B52828" transform="translate(80,427)"/>
<path d="M0 0 C-0.1875 2.375 -0.1875 2.375 -1 5 C-2.65204456 5.70211894 -4.31923769 6.36971413 -6 7 C-6.165 7.66 -6.33 8.32 -6.5 9 C-6.665 9.66 -6.83 10.32 -7 11 C-9.5625 12.25 -9.5625 12.25 -12 13 C-12 13.66 -12 14.32 -12 15 C-12.99 15.33 -13.98 15.66 -15 16 C-13.51131293 11.39860359 -11.25370145 8.49772906 -8 5 C-7.34 5 -6.68 5 -6 5 C-6 4.34 -6 3.68 -6 3 C-5.34 3 -4.68 3 -4 3 C-4 2.34 -4 1.68 -4 1 C-2 0 -2 0 0 0 Z " fill="#B32C2B" transform="translate(69,79)"/>
<path d="M0 0 C0.66 0 1.32 0 2 0 C2.04898438 1.05058594 2.09796875 2.10117188 2.1484375 3.18359375 C2.53376426 10.65875491 3.05427553 17.73596197 5 25 C3.0625 24.375 3.0625 24.375 1 23 C-0.39908891 18.18010209 -0.11740876 13.1090258 -0.0625 8.125 C-0.05798828 7.34125 -0.05347656 6.5575 -0.04882812 5.75 C-0.03714093 3.83329986 -0.01920908 1.91663952 0 0 Z " fill="#B12D2F" transform="translate(101,142)"/>
<path d="M0 0 C6.2131811 3.52538646 11.71981272 7.17895944 17 12 C14 13 14 13 12 13 C11.67 12.01 11.34 11.02 11 10 C9.02 10 7.04 10 5 10 C5 8.68 5 7.36 5 6 C4.01 6 3.02 6 2 6 C1.34 4.02 0.68 2.04 0 0 Z " fill="#E03434" transform="translate(388,41)"/>
<path d="M0 0 C0.33 0.99 0.66 1.98 1 3 C0.525625 3.433125 0.05125 3.86625 -0.4375 4.3125 C-2.23686957 6.02309613 -2.23686957 6.02309613 -3 9 C-7.90746443 13.2343708 -12.63398343 14.6589634 -19 15 C-16.06171403 12.49701566 -13.82097239 11.53069061 -10 11 C-10 10.34 -10 9.68 -10 9 C-6.53846154 6 -6.53846154 6 -4 6 C-3.566875 5.071875 -3.566875 5.071875 -3.125 4.125 C-2 2 -2 2 0 0 Z " fill="#DD4141" transform="translate(387,377)"/>
<path d="M0 0 C0.99 0 1.98 0 3 0 C3 1.65 3 3.3 3 5 C4.27875 5.2475 5.5575 5.495 6.875 5.75 C10.79173989 6.70496485 10.79173989 6.70496485 12.5 9.125 C12.7475 10.053125 12.7475 10.053125 13 11 C12.01 11.495 12.01 11.495 11 12 C8.828125 10.92578125 8.828125 10.92578125 6.25 9.3125 C5.36054687 8.75949219 4.47109375 8.20648438 3.5546875 7.63671875 C0.67672659 5.79288752 -2.17915165 3.93005413 -5 2 C-4.360625 1.855625 -3.72125 1.71125 -3.0625 1.5625 C-1.02454854 1.18992819 -1.02454854 1.18992819 0 0 Z " fill="#BF3435" transform="translate(108,452)"/>
<path d="M0 0 C4.875 2.75 4.875 2.75 6 5 C6.86105697 10.64470683 7.1267754 16.2314343 7.1875 21.9375 C7.20167969 23.22527344 7.21585937 24.51304687 7.23046875 25.83984375 C7 29 7 29 5 31 C5.05220703 29.69289063 5.05220703 29.69289063 5.10546875 28.359375 C5.33750746 18.14967175 3.92171773 9.42917351 0 0 Z " fill="#D8393A" transform="translate(391,327)"/>
<path d="M0 0 C4.554787 3.80014774 8.95279259 7.65665546 13 12 C13 12.66 13 13.32 13 14 C13.99 14.33 14.98 14.66 16 15 C13 16 13 16 10 15 C8.97265625 13.40625 8.97265625 13.40625 8.0625 11.5 C6.65514378 8.62100992 6.65514378 8.62100992 3.875 7.25 C3.25625 7.1675 2.6375 7.085 2 7 C0 4 0 4 0 0 Z " fill="#CD5C59" transform="translate(155,221)"/>
<path d="M0 0 C2.125 0.9375 2.125 0.9375 4 2 C2.52386015 3.50297876 1.04400843 5.00231285 -0.4375 6.5 C-1.26121094 7.3353125 -2.08492188 8.170625 -2.93359375 9.03125 C-5 11 -5 11 -6 11 C-6.49046322 5.60490463 -6.49046322 5.60490463 -4.125 2.6875 C-2 1 -2 1 0 0 Z " fill="#D62928" transform="translate(266,164)"/>
<path d="M0 0 C2.97 0.495 2.97 0.495 6 1 C6 1.99 6 2.98 6 4 C7.65 4.33 9.3 4.66 11 5 C13.42857143 11.28571429 13.42857143 11.28571429 12 15 C9 10.25 9 10.25 9 8 C8.443125 7.79375 7.88625 7.5875 7.3125 7.375 C4.07498698 5.44999226 2.31768859 2.96149098 0 0 Z " fill="#DA4748" transform="translate(379,114)"/>
<path d="M0 0 C0.66 0 1.32 0 2 0 C2 7.26 2 14.52 2 22 C1.01 21.67 0.02 21.34 -1 21 C-0.67 14.07 -0.34 7.14 0 0 Z " fill="#A91416" transform="translate(101,339)"/>
<path d="M0 0 C2.475 0.99 2.475 0.99 5 2 C4.01 2.495 4.01 2.495 3 3 C3 3.66 3 4.32 3 5 C2.34 5 1.68 5 1 5 C0.79375 5.556875 0.5875 6.11375 0.375 6.6875 C-1.55000774 9.92501302 -4.03850902 11.68231141 -7 14 C-7 12.68 -7 11.36 -7 10 C-6.34 10 -5.68 10 -5 10 C-5 9.34 -5 8.68 -5 8 C-4.01 8 -3.02 8 -2 8 C-2.33 6.68 -2.66 5.36 -3 4 C-2.01 4 -1.02 4 0 4 C-0.33 3.01 -0.66 2.02 -1 1 C-0.67 0.67 -0.34 0.34 0 0 Z " fill="#E52C2F" transform="translate(430,417)"/>
<path d="M0 0 C0.99 0.495 0.99 0.495 2 1 C2.33 1.99 2.66 2.98 3 4 C5.00016466 5.20882096 5.00016466 5.20882096 7 6 C6.01 6.495 6.01 6.495 5 7 C5 8.32 5 9.64 5 11 C5.66 11 6.32 11 7 11 C7 11.99 7 12.98 7 14 C7.66 14 8.32 14 9 14 C9.33 16.31 9.66 18.62 10 21 C6.77534841 18.29129266 5.14395221 14.76746282 3.3125 11.0625 C2.99216797 10.44181641 2.67183594 9.82113281 2.34179688 9.18164062 C0.64673927 5.78791121 0 3.87452418 0 0 Z " fill="#BC585A" transform="translate(20,348)"/>
<path d="M0 0 C0 0.66 0 1.32 0 2 C-0.66 2 -1.32 2 -2 2 C-2.268125 2.639375 -2.53625 3.27875 -2.8125 3.9375 C-4 6 -4 6 -7 7 C-7 7.66 -7 8.32 -7 9 C-7.66 9 -8.32 9 -9 9 C-9.66 10.32 -10.32 11.64 -11 13 C-13 10 -13 10 -13 8 C-11.68 8 -10.36 8 -9 8 C-8.67 6.68 -8.34 5.36 -8 4 C-7.34 4.33 -6.68 4.66 -6 5 C-5.814375 4.0409375 -5.814375 4.0409375 -5.625 3.0625 C-5.41875 2.381875 -5.2125 1.70125 -5 1 C-3 0 -3 0 0 0 Z " fill="#C13A38" transform="translate(125,308)"/>
<path d="M0 0 C0.66 0 1.32 0 2 0 C2.19573608 1.43640171 2.38127816 2.87419504 2.5625 4.3125 C2.66691406 5.11300781 2.77132813 5.91351563 2.87890625 6.73828125 C3 9 3 9 2 12 C-0.64 9.36 -3.28 6.72 -6 4 C-5.01 4 -4.02 4 -3 4 C-2.67 3.34 -2.34 2.68 -2 2 C-1.34 2 -0.68 2 0 2 C0 1.34 0 0.68 0 0 Z " fill="#E22E30" transform="translate(333,258)"/>
<path d="M0 0 C0.99 0.495 0.99 0.495 2 1 C2 1.66 2 2.32 2 3 C2.61875 3.20625 3.2375 3.4125 3.875 3.625 C6.87073529 5.56341695 7.10497461 7.62644275 8 11 C8.33 11.99 8.66 12.98 9 14 C8.34 14.66 7.68 15.32 7 16 C6.01 16 5.02 16 4 16 C4.33 13.69 4.66 11.38 5 9 C4.34 9 3.68 9 3 9 C1.35173889 6.03312999 0.55728913 3.34373475 0 0 Z " fill="#C80304" transform="translate(149,215)"/>
<path d="M0 0 C1.32 0.33 2.64 0.66 4 1 C3.65066406 1.83144531 3.30132812 2.66289062 2.94140625 3.51953125 C2.48636719 4.60621094 2.03132813 5.69289062 1.5625 6.8125 C1.11003906 7.89144531 0.65757813 8.97039062 0.19140625 10.08203125 C-0.60375013 12.0295126 -1.33479648 14.00438943 -2 16 C-2.99 16 -3.98 16 -5 16 C-3.41078475 10.63904723 -1.81027062 5.29156027 0 0 Z " fill="#BD3034" transform="translate(106,126)"/>
<path d="M0 0 C3.59915877 4.6758302 6.4479758 9.68328292 9 15 C8.01 15.495 8.01 15.495 7 16 C7 15.34 7 14.68 7 14 C6.071875 13.8453125 6.071875 13.8453125 5.125 13.6875 C3 13 3 13 1 10 C0.5859375 7.51953125 0.5859375 7.51953125 0.375 4.8125 C0.30023438 3.91144531 0.22546875 3.01039063 0.1484375 2.08203125 C0.09945312 1.39496094 0.05046875 0.70789063 0 0 Z " fill="#BE3A39" transform="translate(106,167)"/>
<path d="M0 0 C0 0.99 0 1.98 0 3 C-3.16240582 5.10827055 -4.50657469 5.33817465 -8.1875 5.625 C-9.08855469 5.69976562 -9.98960938 5.77453125 -10.91796875 5.8515625 C-11.60503906 5.90054688 -12.29210937 5.94953125 -13 6 C-9.70862872 2.32140857 -5.25202969 -2.62601484 0 0 Z " fill="#BA0406" transform="translate(106,49)"/>
<path d="M0 0 C0 3.59857954 -0.95830515 5.09451118 -3 8 C-3.66 8 -4.32 8 -5 8 C-5.20625 8.61875 -5.4125 9.2375 -5.625 9.875 C-7.54775888 12.84653645 -9.66594527 13.13024659 -13 14 C-8.88380164 9.08064098 -4.59589638 4.47352044 0 0 Z " fill="#E14C49" transform="translate(354,211)"/>
<path d="M0 0 C4 2.66666667 8 5.33333333 12 8 C10.625 9.5 10.625 9.5 9 11 C8.34 11 7.68 11 7 11 C6.67 10.34 6.34 9.68 6 9 C5.01 9 4.02 9 3 9 C3.33 8.34 3.66 7.68 4 7 C3.525625 6.5875 3.05125 6.175 2.5625 5.75 C0.83733482 3.817815 0.43415125 2.51807725 0 0 Z " fill="#C13B3F" transform="translate(115,381)"/>
<path d="M0 0 C3.0721297 3.0721297 3.56746919 6.87726553 4.6875 11 C4.92533203 11.83273438 5.16316406 12.66546875 5.40820312 13.5234375 C5.62798828 14.32007813 5.84777344 15.11671875 6.07421875 15.9375 C6.27619873 16.66839844 6.47817871 17.39929688 6.6862793 18.15234375 C7 20 7 20 6 22 C3.08292101 19.08292101 2.11210179 15.9477686 1.875 11.828125 C1.875 9.88496989 1.93303445 7.94200087 2 6 C1.34 6 0.68 6 0 6 C-0.38218767 4.34385343 -0.71395102 2.67542976 -1 1 C-0.67 0.67 -0.34 0.34 0 0 Z " fill="#E33E3F" transform="translate(487,170)"/>
<path d="M0 0 C1.18851562 0.00902344 2.37703125 0.01804687 3.6015625 0.02734375 C4.51679688 0.03894531 5.43203125 0.05054688 6.375 0.0625 C6.375 0.3925 6.375 0.7225 6.375 1.0625 C3.68874546 1.57013865 1.00131617 2.06877197 -1.6875 2.5625 C-2.43966797 2.70558594 -3.19183594 2.84867187 -3.96679688 2.99609375 C-8.60240175 3.838931 -12.9139615 4.21265262 -17.625 4.0625 C-17.625 3.4025 -17.625 2.7425 -17.625 2.0625 C-16.68527344 1.97162109 -16.68527344 1.97162109 -15.7265625 1.87890625 C-14.50066406 1.75322266 -14.50066406 1.75322266 -13.25 1.625 C-12.43789063 1.54378906 -11.62578125 1.46257812 -10.7890625 1.37890625 C-1.27268603 -0.01247731 -1.27268603 -0.01247731 0 0 Z " fill="#D75656" transform="translate(295.625,494.9375)"/>
<path d="M0 0 C7.53216715 0.44238385 14.6802723 1.13905228 22 3 C22 3.33 22 3.66 22 4 C14.44862068 4.30071865 7.41143564 3.42625566 0 2 C0 1.34 0 0.68 0 0 Z " fill="#DB5253" transform="translate(285,2)"/>
<path d="M0 0 C0.33 0 0.66 0 1 0 C1.3884811 7.38114092 0.15940249 11.76089627 -4 18 C-4.99 17.67 -5.98 17.34 -7 17 C-6.57847656 16.27554687 -6.15695312 15.55109375 -5.72265625 14.8046875 C-5.17480469 13.83789062 -4.62695312 12.87109375 -4.0625 11.875 C-3.51722656 10.92367188 -2.97195313 9.97234375 -2.41015625 8.9921875 C-0.97051473 5.93743568 -0.39132616 3.33865613 0 0 Z " fill="#DF4144" transform="translate(395,359)"/>
<path d="M0 0 C0.33 0.66 0.66 1.32 1 2 C0.0625 4.125 0.0625 4.125 -1 6 C-1.66 6 -2.32 6 -3 6 C-3.2475 6.598125 -3.495 7.19625 -3.75 7.8125 C-5.19482573 10.34094503 -6.48280545 11.55070617 -9 13 C-9.99 12.67 -10.98 12.34 -12 12 C-8.04 8.04 -4.08 4.08 0 0 Z " fill="#DC4242" transform="translate(374,191)"/>
<path d="M0 0 C0.84566329 2.4023301 1.12831471 3.62427185 0.29296875 6.0703125 C-0.07183594 6.74835938 -0.43664063 7.42640625 -0.8125 8.125 C-1.16957031 8.80820313 -1.52664062 9.49140625 -1.89453125 10.1953125 C-3 12 -3 12 -5 14 C-5.99 13.67 -6.98 13.34 -8 13 C-7.01 11.02 -6.02 9.04 -5 7 C-4.34 7 -3.68 7 -3 7 C-2.690625 6.21625 -2.38125 5.4325 -2.0625 4.625 C-1 2 -1 2 0 0 Z " fill="#B33F41" transform="translate(44,106)"/>
<path d="M0 0 C-1.36983503 3.16115776 -1.9890638 3.9927092 -5 6 C-5 5.34 -5 4.68 -5 4 C-9.02992782 4.55312735 -13.02022924 5.1558062 -17 6 C-12.3149827 1.90060986 -6.26086269 -0.58695588 0 0 Z " fill="#C52E2D" transform="translate(161,17)"/>
<path d="M0 0 C1.98 0 3.96 0 6 0 C6 0.66 6 1.32 6 2 C7.11375 2.0825 8.2275 2.165 9.375 2.25 C10.57125 2.4975 11.7675 2.745 13 3 C14.2265625 5.046875 14.2265625 5.046875 15 7 C13.24859857 6.54705135 11.49892656 6.08741252 9.75 5.625 C8.77546875 5.36976563 7.8009375 5.11453125 6.796875 4.8515625 C4.34162697 4.10401491 2.24382595 3.22876183 0 2 C0 1.34 0 0.68 0 0 Z " fill="#D16265" transform="translate(153,480)"/>
<path d="M0 0 C3.37329915 1.39584792 5.04232662 2.92365611 7 6 C7.33 6.99 7.66 7.98 8 9 C8.99 9.33 9.98 9.66 11 10 C11.33 11.98 11.66 13.96 12 16 C7.49486569 11.76790414 3.485708 7.11304141 0 2 C0 1.34 0 0.68 0 0 Z " fill="#B54141" transform="translate(44,392)"/>
<path d="M0 0 C0.33 0.99 0.66 1.98 1 3 C-0.32 3 -1.64 3 -3 3 C-3.33 3.99 -3.66 4.98 -4 6 C-10.27 5.67 -16.54 5.34 -23 5 C-23 4.67 -23 4.34 -23 4 C-17.72 4 -12.44 4 -7 4 C-7 3.34 -7 2.68 -7 2 C-4.69 1.34 -2.38 0.68 0 0 Z " fill="#BE2120" transform="translate(166,392)"/>
<path d="M0 0 C2.31 1.98 4.62 3.96 7 6 C5.68 6.33 4.36 6.66 3 7 C3 7.99 3 8.98 3 10 C2.34 10 1.68 10 1 10 C1 9.01 1 8.02 1 7 C0.01 7 -0.98 7 -2 7 C-1.42415568 4.61435923 -0.77772405 2.33317216 0 0 Z " fill="#C52122" transform="translate(131,197)"/>
<path d="M0 0 C0.66 0 1.32 0 2 0 C1.835 0.94875 1.67 1.8975 1.5 2.875 C0.81458208 7.5763877 0.91416559 12.26003286 1 17 C-0.40941586 14.3580824 -1.38509186 11.91456276 -2.0625 9 C-2.21847656 8.34 -2.37445313 7.68 -2.53515625 7 C-2.68855469 6.34 -2.84195312 5.68 -3 5 C-3.33115335 3.66612356 -3.66386776 2.33263048 -4 1 C-2.68 1.33 -1.36 1.66 0 2 C0 1.34 0 0.68 0 0 Z " fill="#E13433" transform="translate(396,128)"/>
<path d="M0 0 C1.65 0.33 3.3 0.66 5 1 C-0.33333333 3.66666667 -5.66666667 6.33333333 -11 9 C-10.63802104 6.37565253 -10.17343943 5.17986311 -8.3125 3.25 C-5.39572708 1.67336599 -3.26709987 1.77724319 0 2 C0 1.34 0 0.68 0 0 Z " fill="#BE363A" transform="translate(132,105)"/>
<path d="M0 0 C2.64 0.33 5.28 0.66 8 1 C5.01767477 4.32643967 2.13629913 6.29152862 -2 8 C-2.66 7.67 -3.32 7.34 -4 7 C-3.67 6.34 -3.34 5.68 -3 5 C-2.34 5 -1.68 5 -1 5 C-0.67 3.35 -0.34 1.7 0 0 Z " fill="#DE3535" transform="translate(366,466)"/>
<path d="M0 0 C1.98 0.66 3.96 1.32 6 2 C6.33 1.34 6.66 0.68 7 0 C9.02350324 3.03525486 9.32124018 4.19426202 9.625 7.6875 C9.69976562 8.49574219 9.77453125 9.30398438 9.8515625 10.13671875 C9.92503906 11.05904297 9.92503906 11.05904297 10 12 C7.22542591 10.61271295 6.59506214 8.6584369 5 6 C3.38935478 3.94570401 1.70345278 1.97968837 0 0 Z " fill="#E33F40" transform="translate(381,315)"/>
<path d="M0 0 C2.04119788 1.61594832 4.04072937 3.2856382 6 5 C6 5.66 6 6.32 6 7 C7.32 7.66 8.64 8.32 10 9 C9.01 9.66 8.02 10.32 7 11 C7 10.34 7 9.68 7 9 C6.21625 8.9175 5.4325 8.835 4.625 8.75 C2 8 2 8 0.6875 6.1875 C0 4 0 4 0 0 Z " fill="#C43A39" transform="translate(138,204)"/>
<path d="M0 0 C6.75 1.875 6.75 1.875 9 3 C9 3.99 9 4.98 9 6 C10.32 6.33 11.64 6.66 13 7 C13 7.99 13 8.98 13 10 C11.02 9.01 9.04 8.02 7 7 C7 6.34 7 5.68 7 5 C6.401875 4.731875 5.80375 4.46375 5.1875 4.1875 C3.02775192 3.01506533 1.64209744 1.80630718 0 0 Z " fill="#C04345" transform="translate(88,441)"/>
<path d="M0 0 C0.99 0 1.98 0 3 0 C1.5129879 4.59621922 -0.79812128 7.46972347 -4 11 C-4.33 11 -4.66 11 -5 11 C-4.75 7.625 -4.75 7.625 -4 4 C-1.9375 2.5625 -1.9375 2.5625 0 2 C0 1.34 0 0.68 0 0 Z " fill="#E84E4D" transform="translate(453,392)"/>
<path d="M0 0 C5.21202675 2.52704327 8.3880132 6.61773359 12 11 C8.125 13 8.125 13 7 13 C7 11.35 7 9.7 7 8 C5.68 7.67 4.36 7.34 3 7 C3.33 6.01 3.66 5.02 4 4 C2.68 4 1.36 4 0 4 C0 2.68 0 1.36 0 0 Z " fill="#D84C4C" transform="translate(268,333)"/>
<path d="M0 0 C2.31 0.33 4.62 0.66 7 1 C6.06725891 2.12894876 5.12859878 3.25300876 4.1875 4.375 C3.66542969 5.00148437 3.14335937 5.62796875 2.60546875 6.2734375 C1 8 1 8 -2 10 C-2.36923077 5.44615385 -2.36923077 5.44615385 -0.5 3.1875 C-0.005 2.795625 0.49 2.40375 1 2 C0.67 1.34 0.34 0.68 0 0 Z " fill="#D41E22" transform="translate(275,152)"/>
<path d="M0 0 C0.33 0.33 0.66 0.66 1 1 C3.32817964 1.36760731 5.6618385 1.70241581 8 2 C8 2.66 8 3.32 8 4 C1.79895188 4.27560214 -3.93184478 3.22899346 -10 2 C-10 1.67 -10 1.34 -10 1 C-6.60169639 0.22324489 -3.48880949 -0.19382275 0 0 Z " fill="#D15051" transform="translate(214,495)"/>
<path d="M0 0 C1.32 0.33 2.64 0.66 4 1 C3.34 1 2.68 1 2 1 C1.74476563 1.58265625 1.48953125 2.1653125 1.2265625 2.765625 C-0.11741087 5.21388223 -1.61810296 6.81743248 -3.625 8.75 C-4.57246094 9.67039062 -4.57246094 9.67039062 -5.5390625 10.609375 C-6.02117187 11.06828125 -6.50328125 11.5271875 -7 12 C-7.33 11.01 -7.66 10.02 -8 9 C-7.34 8.01 -6.68 7.02 -6 6 C-5.01 6 -4.02 6 -3 6 C-3 5.01 -3 4.02 -3 3 C-2.34 3 -1.68 3 -1 3 C-0.67 2.01 -0.34 1.02 0 0 Z " fill="#CB6564" transform="translate(138,292)"/>
<path d="M0 0 C0.88365234 0.00902344 1.76730469 0.01804687 2.67773438 0.02734375 C4.84777359 0.05080363 7.01767247 0.08667135 9.1875 0.125 C9.1875 0.455 9.1875 0.785 9.1875 1.125 C8.22070312 1.16238281 7.25390625 1.19976562 6.2578125 1.23828125 C-1.52467329 1.63125826 -8.4428368 2.36787894 -15.8125 5.125 C-14.8125 2.125 -14.8125 2.125 -12.86328125 0.9453125 C-8.5490687 -0.21471904 -4.44428808 -0.08616815 0 0 Z " fill="#E27372" transform="translate(346.8125,103.875)"/>
<path d="M0 0 C0.99 0 1.98 0 3 0 C3 0.66 3 1.32 3 2 C3.66 2 4.32 2 5 2 C5 2.66 5 3.32 5 4 C3.375 5.125 3.375 5.125 1 6 C-2.25 5.125 -2.25 5.125 -5 4 C-5 3.34 -5 2.68 -5 2 C-3.35 2 -1.7 2 0 2 C0 1.34 0 0.68 0 0 Z " fill="#BD0B0C" transform="translate(106,448)"/>
<path d="M0 0 C0.99 1.32 1.98 2.64 3 4 C2.67 4.66 2.34 5.32 2 6 C1.34 6 0.68 6 0 6 C0.165 6.9075 0.33 7.815 0.5 8.75 C1 12 1 12 1 16 C0.01 16.33 -0.98 16.66 -2 17 C-1.85941524 14.54126232 -1.71277001 12.08314825 -1.5625 9.625 C-1.52318359 8.92632812 -1.48386719 8.22765625 -1.44335938 7.5078125 C-1.11328125 2.2265625 -1.11328125 2.2265625 0 0 Z " fill="#A30203" transform="translate(5,206)"/>
<path d="M0 0 C2.625 0.375 2.625 0.375 5 1 C-4.1 8 -4.1 8 -7 8 C-6.67 6.35 -6.34 4.7 -6 3 C-5.38125 2.87625 -4.7625 2.7525 -4.125 2.625 C-1.80879168 2.12802644 -1.80879168 2.12802644 0 0 Z " fill="#DF3E40" transform="translate(382,459)"/>
<path d="M0 0 C0.66 0.66 1.32 1.32 2 2 C-0.475 7.94 -0.475 7.94 -3 14 C-3.33 14 -3.66 14 -4 14 C-4 11.36 -4 8.72 -4 6 C-3.34 6 -2.68 6 -2 6 C-1.855625 5.195625 -1.71125 4.39125 -1.5625 3.5625 C-1 1 -1 1 0 0 Z " fill="#E5403F" transform="translate(481,342)"/>
<path d="M0 0 C1.5 1.25 1.5 1.25 3 3 C3 4.32 3 5.64 3 7 C1.68 7 0.36 7 -1 7 C-1 6.34 -1 5.68 -1 5 C-2.32 4.34 -3.64 3.68 -5 3 C-2 1 -2 1 0 0 Z " fill="#EB0202" transform="translate(373,296)"/>
<path d="M0 0 C1.32 0.33 2.64 0.66 4 1 C2.4169423 5.2742558 -0.50568404 7.26531794 -4 10 C-4 8.68 -4 7.36 -4 6 C-3.34 6 -2.68 6 -2 6 C-1.7834375 5.071875 -1.7834375 5.071875 -1.5625 4.125 C-1 2 -1 2 0 0 Z " fill="#C8514E" transform="translate(147,281)"/>
<path d="M0 0 C1.65 0 3.3 0 5 0 C4.01 0.495 4.01 0.495 3 1 C3 1.66 3 2.32 3 3 C2.34 3 1.68 3 1 3 C0.731875 3.61875 0.46375 4.2375 0.1875 4.875 C-1 7 -1 7 -4 9 C-4 7.35 -4 5.7 -4 4 C-3.34 4 -2.68 4 -2 4 C-1.34 2.68 -0.68 1.36 0 0 Z " fill="#CC4542" transform="translate(165,264)"/>
<path d="M0 0 C0 0.99 0 1.98 0 3 C-0.639375 3.28875 -1.27875 3.5775 -1.9375 3.875 C-4.15206079 4.82823451 -4.15206079 4.82823451 -5 7 C-7.31 7 -9.62 7 -12 7 C-9.6975881 4.39954125 -7.50103323 3.15260817 -4.3125 1.8125 C-3.50425781 1.46832031 -2.69601563 1.12414062 -1.86328125 0.76953125 C-1.24839844 0.51558594 -0.63351563 0.26164062 0 0 Z " fill="#C43F3B" transform="translate(143,23)"/>
<path d="M0 0 C1.32 0.33 2.64 0.66 4 1 C3.67 1.66 3.34 2.32 3 3 C3.66 3 4.32 3 5 3 C5.99 5.64 6.98 8.28 8 11 C4 10 4 10 2.734375 8.22265625 C2.40953125 7.50980469 2.0846875 6.79695313 1.75 6.0625 C1.41484375 5.35222656 1.0796875 4.64195312 0.734375 3.91015625 C0 2 0 2 0 0 Z " fill="#E70200" transform="translate(355,281)"/>
<path d="M0 0 C1.0625 1.875 1.0625 1.875 2 4 C1.67 4.66 1.34 5.32 1 6 C0.01 6.33 -0.98 6.66 -2 7 C-2.33 9.31 -2.66 11.62 -3 14 C-4.32 14 -5.64 14 -7 14 C-5.23570801 9.02790438 -2.6060834 4.56561939 0 0 Z " fill="#BF5452" transform="translate(35,120)"/>
<path d="M0 0 C2.5 1.375 2.5 1.375 5 3 C5 3.66 5 4.32 5 5 C5.66 5 6.32 5 7 5 C7 5.66 7 6.32 7 7 C7.66 7 8.32 7 9 7 C8.67 7.99 8.34 8.98 8 10 C7.34 10 6.68 10 6 10 C6 8.68 6 7.36 6 6 C4.68 6 3.36 6 2 6 C1.67 5.34 1.34 4.68 1 4 C-1.01669827 2.86649466 -1.01669827 2.86649466 -3 2 C-2.01 1.34 -1.02 0.68 0 0 Z " fill="#E24343" transform="translate(411,58)"/>
<path d="M0 0 C0.33 0.66 0.66 1.32 1 2 C0.06553465 4.03144641 -0.93224776 6.03533587 -2 8 C-2.99 8 -3.98 8 -5 8 C-5.66 9.32 -6.32 10.64 -7 12 C-7.66 11.01 -8.32 10.02 -9 9 C-7.6078125 7.88625 -7.6078125 7.88625 -6.1875 6.75 C-3.72873042 4.70974439 -1.78352451 2.67528677 0 0 Z " fill="#CF4746" transform="translate(203,360)"/>
<path d="M0 0 C0.33 0.99 0.66 1.98 1 3 C-0.3125 4.5 -0.3125 4.5 -2 6 C-2.99 6 -3.98 6 -5 6 C-5 6.66 -5 7.32 -5 8 C-6.32 8.33 -7.64 8.66 -9 9 C-7.45665977 5.21180126 -4.44676575 0 0 0 Z " fill="#CA3134" transform="translate(216,349)"/>
<path d="M0 0 C1.54046762 4.10791365 0.75996191 7.78566579 0 12 C-0.99 12.495 -0.99 12.495 -2 13 C-2.33 13.99 -2.66 14.98 -3 16 C-3.66 16 -4.32 16 -5 16 C-4.54548816 14.26982492 -4.08621143 12.54090123 -3.625 10.8125 C-3.36976562 9.84957031 -3.11453125 8.88664063 -2.8515625 7.89453125 C-2.05233704 5.17789793 -1.0968638 2.60862825 0 0 Z " fill="#BA5558" transform="translate(16,158)"/>
<path d="M0 0 C-4.75 4 -4.75 4 -7 4 C-7 4.66 -7 5.32 -7 6 C-8.98 6.99 -8.98 6.99 -11 8 C-11 6.68 -11 5.36 -11 4 C-9.35 3.67 -7.7 3.34 -6 3 C-6 2.01 -6 1.02 -6 0 C-3.50907189 -1.24546405 -2.58919267 -0.7767578 0 0 Z " fill="#E03C40" transform="translate(412,442)"/>
<path d="M0 0 C0.99 0.33 1.98 0.66 3 1 C1.18690997 4.77727089 -0.9073259 8.37269822 -3 12 C-3.33 12 -3.66 12 -4 12 C-4 10.02 -4 8.04 -4 6 C-3.34 6 -2.68 6 -2 6 C-2 5.34 -2 4.68 -2 4 C-1.34 4 -0.68 4 0 4 C0 2.68 0 1.36 0 0 Z " fill="#E34142" transform="translate(463,376)"/>
<path d="M0 0 C0.66 0 1.32 0 2 0 C1.343621 4.48525648 0.29925791 8.66914029 -1 13 C-1.33 13 -1.66 13 -2 13 C-2.05391993 11.20866022 -2.09275571 9.41686101 -2.125 7.625 C-2.14820312 6.62726563 -2.17140625 5.62953125 -2.1953125 4.6015625 C-2 2 -2 2 0 0 Z " fill="#C14143" transform="translate(105,329)"/>
<path d="M0 0 C0.99 0.33 1.98 0.66 3 1 C0.03 3.97 -2.94 6.94 -6 10 C-6.66 8.68 -7.32 7.36 -8 6 C-6.68 6 -5.36 6 -4 6 C-3.67 4.68 -3.34 3.36 -3 2 C-2.01 2 -1.02 2 0 2 C0 1.34 0 0.68 0 0 Z " fill="#CD272A" transform="translate(305,127)"/>
<path d="M0 0 C3.12482562 -0.08687496 6.24934246 -0.14034568 9.375 -0.1875 C10.70917969 -0.22520508 10.70917969 -0.22520508 12.0703125 -0.26367188 C13.34648437 -0.27817383 13.34648437 -0.27817383 14.6484375 -0.29296875 C15.82672119 -0.31653442 15.82672119 -0.31653442 17.02880859 -0.34057617 C17.67930176 -0.22818604 18.32979492 -0.1157959 19 0 C19.66 0.99 20.32 1.98 21 3 C14.07 2.34 7.14 1.68 0 1 C0 0.67 0 0.34 0 0 Z " fill="#DC8083" transform="translate(144,104)"/>
<path d="M0 0 C0 1.32 0 2.64 0 4 C-0.66 4 -1.32 4 -2 4 C-2 4.66 -2 5.32 -2 6 C-2.99 6 -3.98 6 -5 6 C-5 6.66 -5 7.32 -5 8 C-6.32 8 -7.64 8 -9 8 C-9 6 -9 6 -7.5390625 4.4921875 C-6.59160156 3.69167969 -6.59160156 3.69167969 -5.625 2.875 C-4.99851562 2.33617187 -4.37203125 1.79734375 -3.7265625 1.2421875 C-2 0 -2 0 0 0 Z " fill="#C04C4D" transform="translate(93,55)"/>
<path d="M0 0 C1.65 0.33 3.3 0.66 5 1 C5.33 1.99 5.66 2.98 6 4 C3 6 3 6 0.8125 5.625 C0.214375 5.41875 -0.38375 5.2125 -1 5 C-0.67 3.35 -0.34 1.7 0 0 Z " fill="#EC191B" transform="translate(393,448)"/>
<path d="M0 0 C0.66 0 1.32 0 2 0 C2 0.66 2 1.32 2 2 C3.65 2.33 5.3 2.66 7 3 C7.33 4.65 7.66 6.3 8 8 C7.01 8 6.02 8 5 8 C4.67 7.01 4.34 6.02 4 5 C3.01 4.67 2.02 4.34 1 4 C0.3125 1.9375 0.3125 1.9375 0 0 Z " fill="#DB3033" transform="translate(371,303)"/>
<path d="M0 0 C0.66 0 1.32 0 2 0 C2 0.66 2 1.32 2 2 C2.66 2 3.32 2 4 2 C3.835 2.763125 3.67 3.52625 3.5 4.3125 C2.90854604 7.03596236 2.90854604 7.03596236 3 10 C2.68330179 12.33564933 2.35179197 14.6693782 2 17 C1.67 17 1.34 17 1 17 C0.67 11.39 0.34 5.78 0 0 Z " fill="#950606" transform="translate(1,268)"/>
<path d="M0 0 C1.32 0.66 2.64 1.32 4 2 C4 2.66 4 3.32 4 4 C4.66 4 5.32 4 6 4 C7.38232443 5.62626404 8.71937515 7.2925002 10 9 C7.69 8.67 5.38 8.34 3 8 C3 6.35 3 4.7 3 3 C1.68 2.67 0.36 2.34 -1 2 C-0.67 1.34 -0.34 0.68 0 0 Z " fill="#C03F40" transform="translate(121,188)"/>
<path d="M0 0 C1.39484599 2.78969197 0.52597532 4.02138137 -0.4375 6.9375 C-1.3987855 9.86446346 -2 11.89923374 -2 15 C-2.66 15 -3.32 15 -4 15 C-4.0270043 13.54176788 -4.04639787 12.08339325 -4.0625 10.625 C-4.07410156 9.81289062 -4.08570313 9.00078125 -4.09765625 8.1640625 C-4 6 -4 6 -3 4 C-2.34 4 -1.68 4 -1 4 C-0.67 2.68 -0.34 1.36 0 0 Z " fill="#9F0D0F" transform="translate(14,170)"/>
<path d="M0 0 C0 0.99 0 1.98 0 3 C1.32 3.33 2.64 3.66 4 4 C1.69 5.32 -0.62 6.64 -3 8 C-3.33 7.01 -3.66 6.02 -4 5 C-3.34 5 -2.68 5 -2 5 C-2 4.01 -2 3.02 -2 2 C-2.66 1.67 -3.32 1.34 -4 1 C-2 0 -2 0 0 0 Z " fill="#DE2C2F" transform="translate(325,106)"/>
<path d="M0 0 C5.61 0.33 11.22 0.66 17 1 C17 1.33 17 1.66 17 2 C15.62714844 2.07347656 15.62714844 2.07347656 14.2265625 2.1484375 C13.03804688 2.22320312 11.84953125 2.29796875 10.625 2.375 C8.84996094 2.47941406 8.84996094 2.47941406 7.0390625 2.5859375 C3.89437681 2.70217346 3.89437681 2.70217346 2 5 C1.34 3.35 0.68 1.7 0 0 Z " fill="#D74A4B" transform="translate(267,0)"/>
<path d="M0 0 C0.66 0 1.32 0 2 0 C2.680625 1.423125 2.680625 1.423125 3.375 2.875 C4.80238254 6.00313679 4.80238254 6.00313679 7 8 C6.67 8.66 6.34 9.32 6 10 C5.01 9.67 4.02 9.34 3 9 C3 8.01 3 7.02 3 6 C2.34 5.67 1.68 5.34 1 5 C-0.125 2.9375 -0.125 2.9375 -1 1 C-0.67 0.67 -0.34 0.34 0 0 Z " fill="#AB0404" transform="translate(48,392)"/>
<path d="M0 0 C0.99 0 1.98 0 3 0 C5.32590854 3.63423209 5.16265833 6.77088331 5 11 C3 10 3 10 2.1484375 7.71484375 C1.89320312 6.79832031 1.63796875 5.88179688 1.375 4.9375 C1.11460938 4.01839844 0.85421875 3.09929687 0.5859375 2.15234375 C0.39257812 1.44207031 0.19921875 0.73179687 0 0 Z " fill="#B34547" transform="translate(15,337)"/>
<path d="M0 0 C0.66 0 1.32 0 2 0 C1.54619105 1.89692143 1.08675008 3.79249595 0.625 5.6875 C0.36976563 6.74324219 0.11453125 7.79898437 -0.1484375 8.88671875 C-0.91905489 11.70406766 -1.85498543 14.31668325 -3 17 C-4.33496082 12.99511755 -3.26433733 10.99264419 -2 7 C-1.62063047 5.68875631 -1.24542213 4.37629934 -0.875 3.0625 C-0.58625 2.051875 -0.2975 1.04125 0 0 Z " fill="#E85A57" transform="translate(489,319)"/>
<path d="M0 0 C-0.9520721 1.00596297 -1.91187346 2.00461563 -2.875 3 C-3.40867188 3.556875 -3.94234375 4.11375 -4.4921875 4.6875 C-6 6 -6 6 -8 6 C-8 4.68 -8 3.36 -8 2 C-7.34 2 -6.68 2 -6 2 C-6 1.34 -6 0.68 -6 0 C-3.50907189 -1.24546405 -2.58919267 -0.7767578 0 0 Z " fill="#CE514D" transform="translate(161,274)"/>
<path d="M0 0 C1.98 0 3.96 0 6 0 C5.07347299 1.17539996 4.13336613 2.34010577 3.1875 3.5 C2.66542969 4.1496875 2.14335937 4.799375 1.60546875 5.46875 C0 7 0 7 -3 7 C-3 6.34 -3 5.68 -3 5 C-2.01 5 -1.02 5 0 5 C0 3.35 0 1.7 0 0 Z " fill="#D24948" transform="translate(251,178)"/>
<path d="M0 0 C1.5 1.3125 1.5 1.3125 3 3 C3 3.99 3 4.98 3 6 C3.66 6 4.32 6 5 6 C5.625 8.875 5.625 8.875 6 12 C5.34 12.66 4.68 13.32 4 14 C2 7.375 2 7.375 2 4 C1.34 4 0.68 4 0 4 C0 2.68 0 1.36 0 0 Z " fill="#E24145" transform="translate(473,137)"/>
<path d="M0 0 C0.81753595 3.13721111 1.40690698 5.74474415 1 9 C-1 11.3125 -1 11.3125 -3 13 C-3.93045933 10.44855176 -4.08564091 9.25993522 -3.22265625 6.640625 C-2.83980469 5.85171875 -2.45695312 5.0628125 -2.0625 4.25 C-1.68222656 3.45078125 -1.30195313 2.6515625 -0.91015625 1.828125 C-0.60980469 1.22484375 -0.30945313 0.6215625 0 0 Z " fill="#B03838" transform="translate(27,134)"/>
<path d="M0 0 C1.43861294 0.08746284 2.87597508 0.19565348 4.3125 0.3125 C5.11300781 0.37050781 5.91351563 0.42851563 6.73828125 0.48828125 C9.36272334 1.08206694 10.30820672 1.95780294 12 4 C11.67 4.99 11.34 5.98 11 7 C9.72881136 6.20890398 8.45806377 5.41709922 7.1875 4.625 C6.47980469 4.18414062 5.77210938 3.74328125 5.04296875 3.2890625 C3.34567961 2.21811524 1.66985642 1.11323761 0 0 Z " fill="#CC4A4D" transform="translate(167,108)"/>
<path d="M0 0 C1.98 0 3.96 0 6 0 C6.33 0.99 6.66 1.98 7 3 C8.49985609 4.66710346 8.49985609 4.66710346 10 6 C6.24633583 6 4.21284338 4.88579937 1 3 C0.67 2.01 0.34 1.02 0 0 Z " fill="#C34343" transform="translate(122,464)"/>
<path d="M0 0 C2 0.875 2 0.875 4 2 C4.66 2.33 5.32 2.66 6 3 C5.67 3.66 5.34 4.32 5 5 C3.68 4.67 2.36 4.34 1 4 C1 4.66 1 5.32 1 6 C0.34 6 -0.32 6 -1 6 C-1.33 4.35 -1.66 2.7 -2 1 C-1.34 0.67 -0.68 0.34 0 0 Z " fill="#D71C1C" transform="translate(291,357)"/>
<path d="M0 0 C0.33 0 0.66 0 1 0 C1.08069658 2.95887459 1.14034665 5.9155659 1.1875 8.875 C1.22520508 10.13763672 1.22520508 10.13763672 1.26367188 11.42578125 C1.27333984 12.23144531 1.28300781 13.03710938 1.29296875 13.8671875 C1.3086792 14.61081543 1.32438965 15.35444336 1.34057617 16.12060547 C1.17199097 17.05090576 1.17199097 17.05090576 1 18 C0.01 18.66 -0.98 19.32 -2 20 C-1.34 13.4 -0.68 6.8 0 0 Z " fill="#DB090A" transform="translate(398,342)"/>
<path d="M0 0 C1.17539996 0.92652701 2.34010577 1.86663387 3.5 2.8125 C4.1496875 3.33457031 4.799375 3.85664063 5.46875 4.39453125 C7 6 7 6 7 9 C6.67 8.34 6.34 7.68 6 7 C4.35 7 2.7 7 1 7 C0.67 4.69 0.34 2.38 0 0 Z " fill="#CC3C3C" transform="translate(173,239)"/>
<path d="M0 0 C1.2065625 0.0309375 1.2065625 0.0309375 2.4375 0.0625 C1.48328192 1.21176266 0.52397955 2.35680541 -0.4375 3.5 C-0.97117187 4.13808594 -1.50484375 4.77617187 -2.0546875 5.43359375 C-3.5625 7.0625 -3.5625 7.0625 -5.5625 8.0625 C-5.8925 6.7425 -6.2225 5.4225 -6.5625 4.0625 C-5.2425 4.0625 -3.9225 4.0625 -2.5625 4.0625 C-2.8925 3.0725 -3.2225 2.0825 -3.5625 1.0625 C-2.5625 0.0625 -2.5625 0.0625 0 0 Z " fill="#D3292B" transform="translate(295.5625,136.9375)"/>
<path d="M0 0 C0.99 0 1.98 0 3 0 C3.33 2.31 3.66 4.62 4 7 C0.56404834 5.47291037 -2.11912454 3.40072955 -5 1 C-3.35 1 -1.7 1 0 1 C0 0.67 0 0.34 0 0 Z " fill="#C34141" transform="translate(108,452)"/>
<path d="M0 0 C1.65 0.33 3.3 0.66 5 1 C5 1.66 5 2.32 5 3 C4.34 3 3.68 3 3 3 C2.34 4.32 1.68 5.64 1 7 C0.34 7 -0.32 7 -1 7 C-0.7525 6.1028125 -0.7525 6.1028125 -0.5 5.1875 C0.1114124 2.88655664 0.1114124 2.88655664 0 0 Z " fill="#E72D2F" transform="translate(417,430)"/>
<path d="M0 0 C1.67542976 0.28604898 3.34385343 0.61781233 5 1 C4.19152271 2.16945792 3.37810888 3.33550461 2.5625 4.5 C2.11003906 5.1496875 1.65757812 5.799375 1.19140625 6.46875 C0.79824219 6.9740625 0.40507812 7.479375 0 8 C-0.33 8 -0.66 8 -1 8 C-1.04241723 5.66705225 -1.04092937 3.33297433 -1 1 C-0.67 0.67 -0.34 0.34 0 0 Z " fill="#E72E30" transform="translate(436,411)"/>
<path d="M0 0 C1.32 0.66 2.64 1.32 4 2 C3.35546875 2.38800781 2.7109375 2.77601563 2.046875 3.17578125 C-0.20878584 4.83946485 -0.20878584 4.83946485 -0.609375 7.48046875 C-0.65578125 8.37378906 -0.7021875 9.26710937 -0.75 10.1875 C-0.80671875 11.08855469 -0.8634375 11.98960937 -0.921875 12.91796875 C-0.96054687 13.94857422 -0.96054687 13.94857422 -1 15 C-1.33 15 -1.66 15 -2 15 C-2.05406122 13.06280622 -2.09282025 11.12518079 -2.125 9.1875 C-2.14820313 8.10855469 -2.17140625 7.02960938 -2.1953125 5.91796875 C-2 3 -2 3 0 0 Z " fill="#A90606" transform="translate(2,233)"/>
<path d="M0 0 C0.33 0 0.66 0 1 0 C1.14285714 8.57142857 1.14285714 8.57142857 0 12 C-0.99 12 -1.98 12 -3 12 C-3 12.66 -3 13.32 -3 14 C-3.66 13.67 -4.32 13.34 -5 13 C-4.360625 11.96875 -3.72125 10.9375 -3.0625 9.875 C-1.18288629 6.61390342 -0.36873469 3.77953056 0 0 Z " fill="#E05351" transform="translate(395,160)"/>
<path d="M0 0 C-6.25 3.125 -6.25 3.125 -10.625 2.5625 C-11.85089844 2.40974609 -11.85089844 2.40974609 -13.1015625 2.25390625 C-13.72804688 2.17011719 -14.35453125 2.08632813 -15 2 C-15 1.67 -15 1.34 -15 1 C-9.92928099 0.28832014 -5.11791642 -0.10662326 0 0 Z " fill="#D54448" transform="translate(314,492)"/>
<path d="M0 0 C2.475 0.99 2.475 0.99 5 2 C5 2.99 5 3.98 5 5 C3.02 5.99 3.02 5.99 1 7 C0.67 4.69 0.34 2.38 0 0 Z " fill="#EC0102" transform="translate(378,304)"/>
<path d="M0 0 C0.66 0.33 1.32 0.66 2 1 C1.01 1.66 0.02 2.32 -1 3 C-1.33 3.99 -1.66 4.98 -2 6 C-4.31 6 -6.62 6 -9 6 C-3.30379747 1.25316456 -3.30379747 1.25316456 0 0 Z " fill="#CA5251" transform="translate(129,30)"/>
<path d="M0 0 C-3.6441774 2.4294516 -5.71241272 2.16179575 -10 2 C-10 1.01 -10 0.02 -10 -1 C-6.18510326 -2.46726798 -3.70988378 -1.43336419 0 0 Z " fill="#E72929" transform="translate(364,26)"/>
<path d="M0 0 C2.3129482 2.3129482 2.49580975 3.47904875 3.125 6.625 C3.29257813 7.44226563 3.46015625 8.25953125 3.6328125 9.1015625 C3.81457031 10.04128906 3.81457031 10.04128906 4 11 C3.01 11.495 3.01 11.495 2 12 C-0.60018816 8.09971775 -0.15085514 4.52565431 0 0 Z " fill="#BF4747" transform="translate(103,358)"/>
<path d="M0 0 C2.97 0.495 2.97 0.495 6 1 C6 1.99 6 2.98 6 4 C7.65 4.33 9.3 4.66 11 5 C10.67 5.99 10.34 6.98 10 8 C9.67 7.34 9.34 6.68 9 6 C8.236875 5.71125 7.47375 5.4225 6.6875 5.125 C3.71091157 3.87898624 2.13992716 2.37769684 0 0 Z " fill="#E02C2D" transform="translate(379,114)"/>
<path d="M0 0 C2.40072955 2.88087546 4.47291037 5.56404834 6 9 C3.69 8.34 1.38 7.68 -1 7 C-0.67 4.69 -0.34 2.38 0 0 Z " fill="#E64A4A" transform="translate(453,103)"/>
<path d="M0 0 C-0.33 0.99 -0.66 1.98 -1 3 C-1.99 3.33 -2.98 3.66 -4 4 C-4.66 3.67 -5.32 3.34 -6 3 C-6 3.66 -6 4.32 -6 5 C-7.32 4.67 -8.64 4.34 -10 4 C-6.95860798 0.50239917 -4.5534811 0 0 0 Z " fill="#B9211F" transform="translate(77,74)"/>
<path d="M0 0 C1.98 0.495 1.98 0.495 4 1 C3.01 2.485 3.01 2.485 2 4 C2.99 4.33 3.98 4.66 5 5 C4.67 5.99 4.34 6.98 4 8 C2.35 6.68 0.7 5.36 -1 4 C-0.67 2.68 -0.34 1.36 0 0 Z " fill="#BF3234" transform="translate(83,433)"/>
<path d="M0 0 C0.33 0 0.66 0 1 0 C1.3125 2.1875 1.3125 2.1875 1 5 C-1.5 7.8125 -1.5 7.8125 -4 10 C-4 8.35 -4 6.7 -4 5 C-3.34 5 -2.68 5 -2 5 C-1.34 3.35 -0.68 1.7 0 0 Z " fill="#E52C2E" transform="translate(445,402)"/>
<path d="M0 0 C0.99 0.66 1.98 1.32 3 2 C3 2.66 3 3.32 3 4 C0.35261084 5.4606285 -0.89448334 6 -4 6 C-3.34 4.68 -2.68 3.36 -2 2 C-1.34 2 -0.68 2 0 2 C0 1.34 0 0.68 0 0 Z " fill="#C72427" transform="translate(112,377)"/>
<path d="M0 0 C0.33 0.66 0.66 1.32 1 2 C1.66 2.309375 2.32 2.61875 3 2.9375 C5 4 5 4 6 7 C6.99 7.33 7.98 7.66 9 8 C8.01 8.33 7.02 8.66 6 9 C2.23497089 6.4899806 0.89501717 4.32591633 0 0 Z " fill="#DE6C6E" transform="translate(311,375)"/>
<path d="M0 0 C0 0.66 0 1.32 0 2 C-0.66 2 -1.32 2 -2 2 C-2.33 2.99 -2.66 3.98 -3 5 C-4.65 5.33 -6.3 5.66 -8 6 C-6.56530686 1.69592058 -4.58010985 0 0 0 Z " fill="#CE2F31" transform="translate(227,340)"/>
<path d="M0 0 C0.66 0.66 1.32 1.32 2 2 C1.67 2.66 1.34 3.32 1 4 C0.34 4 -0.32 4 -1 4 C-1.66 5.32 -2.32 6.64 -3 8 C-3.33 8 -3.66 8 -4 8 C-4.25 5.6875 -4.25 5.6875 -4 3 C-2 1.1875 -2 1.1875 0 0 Z " fill="#CB4A4C" transform="translate(182,248)"/>
<path d="M0 0 C0.33 1.32 0.66 2.64 1 4 C-0.98 5.32 -2.96 6.64 -5 8 C-5.66 7.67 -6.32 7.34 -7 7 C-4.69 4.69 -2.38 2.38 0 0 Z " fill="#D93635" transform="translate(335,230)"/>
<path d="M0 0 C1.83836919 3.67673838 2.93651813 7.04992447 4 11 C3.34 11.66 2.68 12.32 2 13 C2 11.68 2 10.36 2 9 C1.34 9 0.68 9 0 9 C0 6.03 0 3.06 0 0 Z " fill="#E65A5A" transform="translate(483,157)"/>
<path d="M0 0 C2.0625 0.4375 2.0625 0.4375 4 1 C3.34 2.65 2.68 4.3 2 6 C1.01 6 0.02 6 -1 6 C-1.042721 4.33388095 -1.04063832 2.66617115 -1 1 C-0.67 0.67 -0.34 0.34 0 0 Z " fill="#EA0106" transform="translate(337,18)"/>
<path d="M0 0 C1.65 0 3.3 0 5 0 C5.33 1.65 5.66 3.3 6 5 C6.99 5.33 7.98 5.66 9 6 C8.01 6.495 8.01 6.495 7 7 C6.01 6.67 5.02 6.34 4 6 C3.66666667 4.66666667 3.33333333 3.33333333 3 2 C2.01 1.67 1.02 1.34 0 1 C0 0.67 0 0.34 0 0 Z " fill="#BF1C1C" transform="translate(128,466)"/>
<path d="M0 0 C0.66 0 1.32 0 2 0 C0.84414715 3.91211733 -0.35534962 6.8745041 -3 10 C-3 7.69 -3 5.38 -3 3 C-2.01 2.67 -1.02 2.34 0 2 C0 1.34 0 0.68 0 0 Z " fill="#E44545" transform="translate(474,358)"/>
<path d="M0 0 C0 0.66 0 1.32 0 2 C-0.66 2 -1.32 2 -2 2 C-2.28875 2.639375 -2.5775 3.27875 -2.875 3.9375 C-4 6 -4 6 -6 7 C-5.625 4.0625 -5.625 4.0625 -5 1 C-3 0 -3 0 0 0 Z " fill="#C45351" transform="translate(125,308)"/>
<path d="M0 0 C1.32 0 2.64 0 4 0 C4 0.66 4 1.32 4 2 C5.65 2 7.3 2 9 2 C8.34 3.32 7.68 4.64 7 6 C5.68 5.34 4.36 4.68 3 4 C3 3.34 3 2.68 3 2 C2.01 1.67 1.02 1.34 0 1 C0 0.67 0 0.34 0 0 Z " fill="#DC2B2E" transform="translate(355,289)"/>
<path d="M0 0 C-0.625 1.875 -0.625 1.875 -2 4 C-5.125 5.25 -5.125 5.25 -8 6 C-3.375 0 -3.375 0 0 0 Z " fill="#E03435" transform="translate(349,219)"/>
<path d="M0 0 C2.875 -0.125 2.875 -0.125 6 0 C6.66 0.66 7.32 1.32 8 2 C6.35 2.66 4.7 3.32 3 4 C2.67 3.34 2.34 2.68 2 2 C1.01 2 0.02 2 -1 2 C-0.67 1.34 -0.34 0.68 0 0 Z " fill="#C11B1D" transform="translate(119,388)"/>
<path d="M0 0 C1.65 0 3.3 0 5 0 C5.66 1.65 6.32 3.3 7 5 C4 5 4 5 1.8125 3.0625 C0 1 0 1 0 0 Z " fill="#DF4A4A" transform="translate(336,270)"/>
<path d="M0 0 C0.99 0.33 1.98 0.66 3 1 C2.67 1.99 2.34 2.98 2 4 C-1.5625 5.1875 -1.5625 5.1875 -5 6 C-4.67 5.34 -4.34 4.68 -4 4 C-3.34 4 -2.68 4 -2 4 C-2 3.34 -2 2.68 -2 2 C-1.34 2 -0.68 2 0 2 C0 1.34 0 0.68 0 0 Z " fill="#DE5156" transform="translate(326,238)"/>
<path d="M0 0 C3.24732932 1.62366466 3.70155136 4.75387839 5 8 C4.01 8.495 4.01 8.495 3 9 C3 8.34 3 7.68 3 7 C2.01 6.67 1.02 6.34 0 6 C0 4.02 0 2.04 0 0 Z " fill="#E64447" transform="translate(459,112)"/>
<path d="M0 0 C0.66 0.33 1.32 0.66 2 1 C1.67 2.32 1.34 3.64 1 5 C-1.31 5.33 -3.62 5.66 -6 6 C-4 4 -2 2 0 0 Z " fill="#BE3A3C" transform="translate(99,49)"/>
<path d="M0 0 C1.65 0 3.3 0 5 0 C5.66 1.65 6.32 3.3 7 5 C2.25 3.125 2.25 3.125 0 2 C0 1.34 0 0.68 0 0 Z " fill="#F00106" transform="translate(394,50)"/>
<path d="M0 0 C0.33 0.66 0.66 1.32 1 2 C-1 5 -1 5 -4.125 5.6875 C-5.07375 5.790625 -6.0225 5.89375 -7 6 C-2.25 1.125 -2.25 1.125 0 0 Z " fill="#C65152" transform="translate(108,43)"/>
<path d="M0 0 C1.5625 1.25 1.5625 1.25 3 3 C2.6875 5.1875 2.6875 5.1875 2 7 C0.35 5.02 -1.3 3.04 -3 1 C-2.01 0.67 -1.02 0.34 0 0 Z " fill="#BA423F" transform="translate(70,420)"/>
<path d="M0 0 C0 0.66 0 1.32 0 2 C-0.66 2 -1.32 2 -2 2 C-2 2.66 -2 3.32 -2 4 C-2.66 4 -3.32 4 -4 4 C-4 4.99 -4 5.98 -4 7 C-4.99 6.67 -5.98 6.34 -7 6 C-5.81636731 2.44910192 -3.99368042 0 0 0 Z " fill="#F40202" transform="translate(463,378)"/>
<path d="M0 0 C0.99 0.495 0.99 0.495 2 1 C2.33 1.99 2.66 2.98 3 4 C5.00016466 5.20882096 5.00016466 5.20882096 7 6 C7 6.33 7 6.66 7 7 C4.625 7.1875 4.625 7.1875 2 7 C0 4 0 4 0 0 Z " fill="#AE3434" transform="translate(20,348)"/>
<path d="M0 0 C3 2 3 2 3.6875 4.625 C3.790625 5.40875 3.89375 6.1925 4 7 C2.68 7 1.36 7 0 7 C-1.04449911 3.86650268 -0.93423645 3.01031744 0 0 Z " fill="#DA2623" transform="translate(280,345)"/>
<path d="M0 0 C0.66 0.33 1.32 0.66 2 1 C2.59355614 3.64860427 2.74209269 6.29197322 3 9 C1.68 8.01 0.36 7.02 -1 6 C-0.67 4.02 -0.34 2.04 0 0 Z " fill="#D11216" transform="translate(171,237)"/>
<path d="M0 0 C1.98 0.99 1.98 0.99 4 2 C4 2.66 4 3.32 4 4 C4.99 4.33 5.98 4.66 7 5 C4 6 4 6 1 5 C0.67 3.35 0.34 1.7 0 0 Z " fill="#C84547" transform="translate(164,231)"/>
<path d="M0 0 C1.32 0.33 2.64 0.66 4 1 C4 2.32 4 3.64 4 5 C1.5625 4.625 1.5625 4.625 -1 4 C-1.33 3.34 -1.66 2.68 -2 2 C-1.34 2 -0.68 2 0 2 C0 1.34 0 0.68 0 0 Z " fill="#CE1212" transform="translate(247,178)"/>
<path d="M0 0 C2.15377564 2.62198774 3.40072174 4.64404172 4 8 C2.68 7.67 1.36 7.34 0 7 C0 4.69 0 2.38 0 0 Z " fill="#E65B5D" transform="translate(479,149)"/>
<path d="M0 0 C2.12038635 2.61514317 4.13091744 5.19637616 6 8 C5.01 8.495 5.01 8.495 4 9 C4 8.34 4 7.68 4 7 C2.68 6.34 1.36 5.68 0 5 C0 3.35 0 1.7 0 0 Z " fill="#E24D4C" transform="translate(447,95)"/>
<path d="M0 0 C0 0.99 0 1.98 0 3 C-0.639375 3.12375 -1.27875 3.2475 -1.9375 3.375 C-2.618125 3.58125 -3.29875 3.7875 -4 4 C-4.33 4.66 -4.66 5.32 -5 6 C-5.66 5.67 -6.32 5.34 -7 5 C-7 4.34 -7 3.68 -7 3 C-2.61538462 0 -2.61538462 0 0 0 Z " fill="#B50102" transform="translate(64,89)"/>
<path d="M0 0 C1.98 0 3.96 0 6 0 C6 0.66 6 1.32 6 2 C6.66 2.33 7.32 2.66 8 3 C2.25 3.125 2.25 3.125 0 2 C0 1.34 0 0.68 0 0 Z " fill="#C12F33" transform="translate(153,480)"/>
<path d="M0 0 C0.66 0.33 1.32 0.66 2 1 C1.67 1.99 1.34 2.98 1 4 C-0.32 3.34 -1.64 2.68 -3 2 C-2.01 1.34 -1.02 0.68 0 0 Z M-5 3 C-4.34 3.33 -3.68 3.66 -3 4 C-4.65 4.33 -6.3 4.66 -8 5 C-7.01 4.34 -6.02 3.68 -5 3 Z " fill="#F10101" transform="translate(381,387)"/>
<path d="M0 0 C0.66 0 1.32 0 2 0 C2 0.66 2 1.32 2 2 C2.99 2.33 3.98 2.66 5 3 C3.68 3.33 2.36 3.66 1 4 C1 4.66 1 5.32 1 6 C0.34 6 -0.32 6 -1 6 C-0.67 4.02 -0.34 2.04 0 0 Z " fill="#A30303" transform="translate(26,353)"/>
<path d="M0 0 C1.32 0 2.64 0 4 0 C3.6875 1.875 3.6875 1.875 3 4 C2.01 4.66 1.02 5.32 0 6 C0 4.02 0 2.04 0 0 Z " fill="#CD4242" transform="translate(171,257)"/>
<path d="M0 0 C0.99 0.495 0.99 0.495 2 1 C2 1.66 2 2.32 2 3 C3.32 3.66 4.64 4.32 6 5 C5.34 5.66 4.68 6.32 4 7 C2 5.75 2 5.75 0 4 C0 2.68 0 1.36 0 0 Z " fill="#CD484D" transform="translate(149,215)"/>
<path d="M0 0 C1.32 0 2.64 0 4 0 C3.6875 1.875 3.6875 1.875 3 4 C2.01 4.66 1.02 5.32 0 6 C0 4.02 0 2.04 0 0 Z " fill="#D5363A" transform="translate(260,169)"/>
<path d="M0 0 C2.31 0.33 4.62 0.66 7 1 C5.35 2.65 3.7 4.3 2 6 C2 4.35 2 2.7 2 1 C1.34 0.67 0.68 0.34 0 0 Z " fill="#D12C2F" transform="translate(275,152)"/>
<path d="M0 0 C2.97 0.33 5.94 0.66 9 1 C9.33 1.99 9.66 2.98 10 4 C6.7 3.01 3.4 2.02 0 1 C0 0.67 0 0.34 0 0 Z " fill="#DF686C" transform="translate(363,106)"/>
<path d="M0 0 C0.33 0.99 0.66 1.98 1 3 C0.67 3.66 0.34 4.32 0 5 C-0.66 5 -1.32 5 -2 5 C-2 5.66 -2 6.32 -2 7 C-2.99 7.33 -3.98 7.66 -5 8 C-3.8141763 4.62496331 -2.72426311 2.35277269 0 0 Z " fill="#BD5657" transform="translate(59,87)"/>
<path d="M0 0 C3.45925163 1.2491742 6.14693203 2.67527795 9 5 C5.625 4.75 5.625 4.75 2 4 C0.5625 1.9375 0.5625 1.9375 0 0 Z " fill="#DD5151" transform="translate(364,27)"/>
<path d="M0 0 C1.65 0 3.3 0 5 0 C5.33 0.99 5.66 1.98 6 3 C5.01 3.66 4.02 4.32 3 5 C2.01 3.35 1.02 1.7 0 0 Z " fill="#EC2424" transform="translate(410,435)"/>
<path d="M0 0 C0.99 0.33 1.98 0.66 3 1 C1.25 5.875 1.25 5.875 -1 7 C-0.67 4.69 -0.34 2.38 0 0 Z " fill="#E32B2C" transform="translate(449,396)"/>
<path d="M0 0 C0 3 0 3 -1 5 C-1.66 5 -2.32 5 -3 5 C-3.33 5.66 -3.66 6.32 -4 7 C-3.67 5.02 -3.34 3.04 -3 1 C-2.01 0.67 -1.02 0.34 0 0 Z " fill="#E60403" transform="translate(391,376)"/>
<path d="M0 0 C2.97 0.495 2.97 0.495 6 1 C6 2.65 6 4.3 6 6 C3.97945196 4.35830472 1.97956942 2.69088222 0 1 C0 0.67 0 0.34 0 0 Z " fill="#DD5657" transform="translate(360,294)"/>
<path d="M0 0 C0.66 0.33 1.32 0.66 2 1 C2 4 2 4 1 7 C0.01 7 -0.98 7 -2 7 C-2.33 6.01 -2.66 5.02 -3 4 C-2.34 4 -1.68 4 -1 4 C-0.67 2.68 -0.34 1.36 0 0 Z " fill="#EA0203" transform="translate(374,193)"/>
<path d="M0 0 C1.625 1.6875 1.625 1.6875 3 4 C2.1875 6.75 2.1875 6.75 1 9 C0.67 9 0.34 9 0 9 C0 6.03 0 3.06 0 0 Z " fill="#EC4B4D" transform="translate(465,121)"/>
<path d="M0 0 C1.32 0.33 2.64 0.66 4 1 C3.01 2.98 2.02 4.96 1 7 C0.67 7 0.34 7 0 7 C0 4.69 0 2.38 0 0 Z " fill="#C64F51" transform="translate(106,126)"/>
<path d="M0 0 C0.99 0.33 1.98 0.66 3 1 C2.34 2.32 1.68 3.64 1 5 C0.01 4.67 -0.98 4.34 -2 4 C-1.34 2.68 -0.68 1.36 0 0 Z " fill="#BA3535" transform="translate(38,115)"/>
<path d="M0 0 C0.66 0.33 1.32 0.66 2 1 C0.95125002 3.62187494 0.35068687 4.79371361 -2.125 6.25 C-2.74375 6.4975 -3.3625 6.745 -4 7 C-4.33 6.34 -4.66 5.68 -5 5 C-3.35 4.34 -1.7 3.68 0 3 C0 2.01 0 1.02 0 0 Z " fill="#BB0103" transform="translate(68,81)"/>
</svg>
