<?xml version="1.0" encoding="UTF-8"?>
<svg version="1.1" xmlns="http://www.w3.org/2000/svg" width="500" height="500">
<path d="M0 0 C3.64154761 0.02145098 7.28111872 0.00005551 10.92260742 -0.02539062 C57.38239492 -0.07960275 101.84880052 14.53403083 140.64331055 39.85742188 C142.36698125 40.9750531 144.10992528 42.06346011 145.86987305 43.12304688 C157.12088063 49.95459393 166.56719418 58.82371427 176.1472168 67.77148438 C176.85700684 68.43269287 177.56679688 69.09390137 178.2980957 69.77514648 C182.07370241 73.341295 185.52888552 77.00215227 188.84619141 80.99536133 C190.30397137 82.71248237 190.30397137 82.71248237 192.7487793 84.54882812 C195.87529434 87.05500289 198.14976753 89.92109166 200.5847168 93.08398438 C201.30751831 94.01488892 201.30751831 94.01488892 202.04492188 94.96459961 C206.12001853 100.27771759 209.74589608 105.79161272 213.2097168 111.52148438 C213.84393555 112.53726563 214.4781543 113.55304688 215.1315918 114.59960938 C217.18331835 117.89191478 219.20250653 121.2018674 221.2097168 124.52148438 C221.8594043 125.58882813 222.5090918 126.65617187 223.1784668 127.75585938 C234.74181211 147.30341931 242.79830807 168.50970097 248.4597168 190.45898438 C248.81102661 191.79558105 248.81102661 191.79558105 249.16943359 193.15917969 C253.56717547 211.01505241 254.70080607 228.74302896 254.60083008 247.07836914 C254.58471723 250.58389072 254.60079357 254.08826256 254.61987305 257.59375 C254.63307008 271.17182488 253.78552767 284.18530923 251.2097168 297.52148438 C250.99605469 298.66125732 250.78239258 299.80103027 250.56225586 300.9753418 C249.98222825 303.86263702 249.33971439 306.72172786 248.6472168 309.58398438 C248.2747583 311.1240918 248.2747583 311.1240918 247.89477539 312.6953125 C240.80592906 340.6126467 228.52667657 365.3457298 213.2097168 389.52148438 C212.7859375 390.19179688 212.3621582 390.86210937 211.92553711 391.55273438 C207.45118824 398.57993261 202.50770023 405.099349 197.2097168 411.52148438 C196.19071289 412.82859375 196.19071289 412.82859375 195.15112305 414.16210938 C193.23624071 416.48925009 191.15282136 418.22726741 188.8112793 420.10742188 C187.10639776 421.61270752 185.72425741 423.20908928 184.2722168 424.95898438 C171.80835534 439.50472159 156.29862358 452.58944934 139.47143555 461.72851562 C136.47260338 463.37697546 133.63040237 465.14276565 130.7722168 467.02148438 C98.58669426 487.59606805 58.07833335 500.50960867 19.8034668 500.75976562 C18.60653198 500.76783737 17.40959717 500.77590912 16.1763916 500.78422546 C13.6414533 500.79802198 11.10649678 500.80876384 8.5715332 500.81665039 C6.02557782 500.82807806 3.47964459 500.84838002 0.93383789 500.87817383 C-47.65429024 501.44536275 -91.88272406 487.05723181 -132.60131836 460.89428711 C-134.56905431 459.66022741 -136.55715328 458.50446057 -138.5871582 457.37695312 C-141.53124612 455.67153635 -144.04825219 453.87222044 -146.6652832 451.70898438 C-150.75797216 448.35071966 -154.9256111 445.12669026 -159.1730957 441.96679688 C-159.70676758 441.48984375 -160.24043945 441.01289063 -160.7902832 440.52148438 C-160.7902832 439.86148437 -160.7902832 439.20148438 -160.7902832 438.52148438 C-161.4502832 438.52148438 -162.1102832 438.52148438 -162.7902832 438.52148438 C-162.7902832 437.86148437 -162.7902832 437.20148438 -162.7902832 436.52148438 C-163.37455078 436.26173828 -163.95881836 436.00199219 -164.56079102 435.734375 C-166.94589484 434.43682837 -168.54218957 433.02807315 -170.4621582 431.11523438 C-171.12602539 430.45394531 -171.78989258 429.79265625 -172.47387695 429.11132812 C-173.49674805 428.07685547 -173.49674805 428.07685547 -174.5402832 427.02148438 C-175.23766602 426.33183594 -175.93504883 425.6421875 -176.65356445 424.93164062 C-177.31227539 424.27035156 -177.97098633 423.6090625 -178.6496582 422.92773438 C-179.55409668 422.01991211 -179.55409668 422.01991211 -180.47680664 421.09375 C-181.7902832 419.52148438 -181.7902832 419.52148438 -181.7902832 417.52148438 C-182.36004883 417.28945313 -182.92981445 417.05742187 -183.5168457 416.81835938 C-194.56288596 410.51718177 -201.81832983 394.41184363 -208.24243164 384.01074219 C-209.50886635 381.9740595 -210.79608331 379.95690565 -212.1105957 377.95117188 C-227.51045354 354.07204009 -237.39261627 326.2945369 -242.7902832 298.52148438 C-242.92125397 297.88641968 -243.05222473 297.25135498 -243.18716431 296.5970459 C-246.00863241 282.66053444 -246.28496828 268.86755855 -246.23632812 254.68115234 C-246.22784293 250.92293984 -246.25664859 247.16626581 -246.28833008 243.40820312 C-246.3474914 223.24410796 -244.40530992 203.43025859 -238.6652832 184.02148438 C-238.22587402 182.50312988 -238.22587402 182.50312988 -237.77758789 180.95410156 C-227.71259153 147.33846489 -209.79054924 108.00926956 -183.7902832 83.52148438 C-183.1302832 83.52148438 -182.4702832 83.52148438 -181.7902832 83.52148438 C-181.53053711 82.9372168 -181.27079102 82.35294922 -181.00317383 81.75097656 C-179.7056272 79.36587273 -178.29687198 77.76957801 -176.3840332 75.84960938 C-175.72274414 75.18574219 -175.06145508 74.521875 -174.38012695 73.83789062 C-173.69047852 73.15597656 -173.00083008 72.4740625 -172.2902832 71.77148438 C-171.60063477 71.07410156 -170.91098633 70.37671875 -170.20043945 69.65820312 C-169.53915039 68.99949219 -168.87786133 68.34078125 -168.1965332 67.66210938 C-167.59131836 67.05915039 -166.98610352 66.45619141 -166.36254883 65.83496094 C-164.7902832 64.52148438 -164.7902832 64.52148438 -162.7902832 64.52148438 C-162.7902832 63.86148438 -162.7902832 63.20148437 -162.7902832 62.52148438 C-161.22087519 61.08335764 -159.58154286 59.72118388 -157.9152832 58.39648438 C-156.91239258 57.59597656 -155.90950195 56.79546875 -154.8762207 55.97070312 C-153.34868164 54.75833984 -153.34868164 54.75833984 -151.7902832 53.52148438 C-150.89567383 52.78542969 -150.00106445 52.049375 -149.0793457 51.29101562 C-148.24145508 50.60394531 -147.40356445 49.916875 -146.5402832 49.20898438 C-145.79262695 48.59410156 -145.0449707 47.97921875 -144.2746582 47.34570312 C-141.84049766 45.55835568 -139.32838146 44.067341 -136.69165039 42.59985352 C-134.70643874 41.4739316 -132.77177735 40.2868342 -130.8371582 39.07617188 C-90.67104001 13.96766446 -47.62412108 -0.33220931 0 0 Z M90.5222168 117.70898438 C88.22976355 120.90844257 86.2623864 124.15046515 84.4206543 127.62695312 C81.29939736 133.41445495 77.95509499 139.0394179 74.5222168 144.64648438 C73.9128125 145.64494385 73.3034082 146.64340332 72.67553711 147.67211914 C68.16633867 155.030504 63.52491621 162.29309111 58.8112793 169.52148438 C56.12169632 173.6480789 53.46471143 177.79416756 50.8347168 181.95898438 C50.441875 182.57314209 50.0490332 183.1872998 49.64428711 183.82006836 C47.47066409 187.27831555 45.55445924 190.7803101 43.76049805 194.45117188 C41.39812267 199.25755684 38.68666961 203.72141744 35.7722168 208.20898438 C31.09825623 215.49853974 26.55732266 222.85677581 22.0847168 230.27148438 C17.4371272 237.97106107 12.65031623 245.51034681 7.4909668 252.87695312 C5.51250822 255.86413212 3.95596068 258.98632185 2.38549805 262.20507812 C-0.72162533 268.53587889 -4.31827461 274.45196109 -8.1027832 280.39648438 C-8.75706299 281.43498535 -9.41134277 282.47348633 -10.08544922 283.54345703 C-12.95204635 288.08515443 -15.83987547 292.61220325 -18.7668457 297.11523438 C-19.4023938 298.09387451 -19.4023938 298.09387451 -20.05078125 299.09228516 C-21.1439855 300.76803281 -22.24606944 302.43797846 -23.34887695 304.10742188 C-24.96116846 306.33907489 -24.96116846 306.33907489 -24.7902832 308.52148438 C-28.57181376 304.96913749 -31.7008812 301.14578957 -34.8527832 297.02929688 C-40.167204 290.1505506 -45.78272073 283.51498599 -51.4152832 276.89648438 C-55.07489112 272.59453184 -58.62674103 268.23305966 -62.05981445 263.74804688 C-64.76601569 260.26602723 -67.59511248 256.88603315 -70.40356445 253.48632812 C-72.07040639 251.41573397 -73.68691438 249.34428878 -75.27075195 247.21289062 C-82.78676432 237.09855218 -89.8921399 228.22808958 -102.7902832 225.52148438 C-113.86101547 224.06749419 -122.03664891 226.41901435 -130.9152832 233.12695312 C-137.46972405 239.07397811 -141.33483527 247.32937794 -142.1027832 256.08398438 C-141.62448985 273.46197609 -125.61492458 287.86641884 -115.1652832 300.43164062 C-112.1221781 304.10071176 -109.15731403 307.82389983 -106.2277832 311.58398438 C-102.24435851 316.69498834 -98.19585571 321.74782096 -94.1027832 326.77148438 C-93.54727783 327.45331787 -92.99177246 328.13515137 -92.41943359 328.83764648 C-91.35279987 330.14666072 -90.28615019 331.45566194 -89.21948242 332.76464844 C-84.74951926 338.25932813 -80.34705189 343.80578697 -75.98242188 349.38427734 C-69.35548831 357.84883344 -62.62631502 366.22481431 -55.7902832 374.52148438 C-55.25161621 375.17810059 -54.71294922 375.8347168 -54.15795898 376.51123047 C-52.58686196 378.41888927 -51.00339328 380.31547823 -49.4152832 382.20898438 C-48.9519458 382.77294922 -48.4886084 383.33691406 -48.01123047 383.91796875 C-41.28991049 391.84598675 -33.96946981 395.42793012 -23.6574707 396.80664062 C-14.40209468 397.23755894 -5.75238582 393.39999126 1.2097168 387.52148438 C4.01729142 384.19139491 6.40556165 380.76083506 8.6784668 377.04882812 C9.32605957 375.9941333 9.97365234 374.93943848 10.64086914 373.8527832 C11.32358887 372.73282959 12.00630859 371.61287598 12.7097168 370.45898438 C13.42644784 369.28916655 14.14341001 368.11949031 14.8605957 366.94995117 C19.6502943 359.12833981 24.36135646 351.26104317 29.04492188 343.37548828 C32.01136298 338.41534287 35.12972584 333.6000514 38.3972168 328.83398438 C41.82310265 323.83080425 44.76725197 318.73418924 47.5222168 313.33398438 C51.19330552 306.16122925 55.37663628 299.47501954 59.83203125 292.76611328 C65.60938207 284.02539792 71.00291434 275.06380948 76.38549805 266.0769043 C82.11984607 256.52801532 82.11984607 256.52801532 85.0534668 252.51757812 C86.97857938 249.84264813 88.35714298 247.38494139 89.7097168 244.39648438 C95.40667061 232.71191584 102.77428123 221.87186622 109.7800293 210.94335938 C116.25207522 200.84732285 122.52159636 190.69569691 128.47143555 180.28320312 C131.46440046 175.05236404 134.5474837 169.87710033 137.6472168 164.70898438 C138.14366699 163.87866699 138.64011719 163.04834961 139.15161133 162.19287109 C141.1799317 158.81741891 143.2224531 155.50288003 145.44799805 152.25195312 C149.8841707 145.37637733 151.36909689 137.34971944 149.77612305 129.34179688 C147.25713927 120.29848867 141.46733876 113.58333845 133.5300293 108.74023438 C118.37878068 100.78200278 101.42202427 104.34715898 90.5222168 117.70898438 Z " fill="#3597D8" transform="translate(245.790283203125,-0.521484375)"/>
<path d="M0 0 C50.11987869 0 94.46893942 11.94321232 136.43359375 39.3359375 C138.15726445 40.45356873 139.90020848 41.54197574 141.66015625 42.6015625 C152.91116383 49.43310955 162.35747738 58.3022299 171.9375 67.25 C172.64729004 67.9112085 173.35708008 68.57241699 174.08837891 69.25366211 C177.86398561 72.81981062 181.31916873 76.48066789 184.63647461 80.47387695 C186.09425458 82.19099799 186.09425458 82.19099799 188.5390625 84.02734375 C191.66557755 86.53351851 193.94005073 89.39960729 196.375 92.5625 C197.09780151 93.49340454 197.09780151 93.49340454 197.83520508 94.44311523 C201.91030173 99.75623321 205.53617928 105.27012834 209 111 C209.63421875 112.01578125 210.2684375 113.0315625 210.921875 114.078125 C212.97360156 117.3704304 214.99278974 120.68038303 217 124 C217.6496875 125.06734375 218.299375 126.1346875 218.96875 127.234375 C230.53209532 146.78193494 238.58859127 167.9882166 244.25 189.9375 C244.48420654 190.82856445 244.71841309 191.71962891 244.9597168 192.63769531 C249.35745867 210.49356804 250.49108927 228.22154459 250.39111328 246.55688477 C250.37500043 250.06240634 250.39107677 253.56677818 250.41015625 257.07226562 C250.42335328 270.65034051 249.57581087 283.66382485 247 297 C246.78633789 298.13977295 246.57267578 299.2795459 246.35253906 300.45385742 C245.77251146 303.34115264 245.12999759 306.20024348 244.4375 309.0625 C244.18919434 310.08923828 243.94088867 311.11597656 243.68505859 312.17382812 C236.59621227 340.09116233 224.31695977 364.82424543 209 389 C208.5762207 389.6703125 208.15244141 390.340625 207.71582031 391.03125 C203.24147144 398.05844823 198.29798343 404.57786462 193 411 C192.32066406 411.87140625 191.64132812 412.7428125 190.94140625 413.640625 C189.02652391 415.96776571 186.94310456 417.70578304 184.6015625 419.5859375 C182.89668096 421.09122315 181.51454061 422.6876049 180.0625 424.4375 C167.59863854 438.98323722 152.08890678 452.06796496 135.26171875 461.20703125 C132.26288658 462.85549109 129.42068557 464.62128127 126.5625 466.5 C93.68426522 487.51739972 52.55578397 500.32049044 13.5 500.0625 C12.200625 500.05798828 10.90125 500.05347656 9.5625 500.04882812 C6.37495175 500.0371092 3.18750045 500.02070219 0 500 C-0.20091925 485.25734356 -0.38418542 470.51455536 -0.54658794 455.77142239 C-0.62240779 448.92552616 -0.70394628 442.07978828 -0.79907227 435.23413086 C-0.89086507 428.6271757 -0.96655614 422.02016211 -1.03244972 415.41288948 C-1.06021147 412.89267599 -1.09336015 410.37251587 -1.13199425 407.8524456 C-1.18520425 404.3214612 -1.21922186 400.79077216 -1.2487793 397.25952148 C-1.26891586 396.21870422 -1.28905243 395.17788696 -1.30979919 394.10552979 C-1.34821958 385.42915067 1.0915502 380.21847593 5.625 372.82421875 C5.96837402 372.26121567 6.31174805 371.69821259 6.66552734 371.1181488 C7.77264012 369.30521114 8.88617915 367.49632258 10 365.6875 C10.77124049 364.42782081 11.54207074 363.16789036 12.3125 361.90771484 C13.83883125 359.41247199 15.36757934 356.91873747 16.8984375 354.42626953 C18.69078276 351.50675125 20.47313797 348.58131856 22.25 345.65234375 C26.30425107 338.97467155 30.40585694 332.346867 34.6875 325.8125 C37.64208903 321.2968988 40.28425569 316.6736195 42.75 311.875 C46.26649375 305.0686546 50.34266504 298.72918081 54.57128906 292.34643555 C60.35736702 283.56713037 65.77389551 274.57468358 71.17553711 265.5559082 C76.90974874 256.00705115 76.90974874 256.00705115 79.84375 251.99609375 C81.76886259 249.32116376 83.14742618 246.86345701 84.5 243.875 C90.19695381 232.19043147 97.56456443 221.35038184 104.5703125 210.421875 C111.04235842 200.32583848 117.31187956 190.17421254 123.26171875 179.76171875 C126.25468367 174.53087966 129.3377669 169.35561596 132.4375 164.1875 C132.9339502 163.35718262 133.43040039 162.52686523 133.94189453 161.67138672 C135.9702149 158.29593454 138.01273631 154.98139566 140.23828125 151.73046875 C144.6744539 144.85489296 146.15938009 136.82823507 144.56640625 128.8203125 C142.23577461 120.45320015 137.33252237 114.16067233 130 109.5625 C121.41148733 104.88610019 113.4533072 103.64808695 104 106.125 C92.75168119 109.88026171 86.67446198 116.88044908 81.2421875 127.07421875 C78.10500253 132.86820573 74.75233464 138.50657127 71.3125 144.125 C70.7030957 145.12345947 70.09369141 146.12191895 69.46582031 147.15063477 C64.95662187 154.50901963 60.31519941 161.77160673 55.6015625 169 C52.91197952 173.12659453 50.25499463 177.27268318 47.625 181.4375 C47.2321582 182.05165771 46.83931641 182.66581543 46.43457031 183.29858398 C44.26094729 186.75683118 42.34474245 190.25882573 40.55078125 193.9296875 C38.18840587 198.73607246 35.47695281 203.19993307 32.5625 207.6875 C27.88851869 214.97708772 23.34879393 222.33598794 18.875 229.75 C14.77030041 236.52797336 10.62438032 243.26706662 6.25 249.875 C5.84378418 250.49342773 5.43756836 251.11185547 5.01904297 251.74902344 C2.24821302 255.87589349 2.24821302 255.87589349 0 257 C0 172.19 0 87.38 0 0 Z " fill="#2A7FB6" transform="translate(250,0)"/>
<path d="M0 0 C0.33 0 0.66 0 1 0 C1.77368686 15.7029777 -1.3389388 30.84844453 -4.9375 46.0625 C-5.29835693 47.59535645 -5.29835693 47.59535645 -5.66650391 49.15917969 C-7.33386971 55.95919975 -9.47774843 62.47007285 -12 69 C-12.33 69 -12.66 69 -13 69 C-12.85904936 67.3745692 -12.71207913 65.74965949 -12.5625 64.125 C-12.48128906 63.22007812 -12.40007812 62.31515625 -12.31640625 61.3828125 C-12 59 -12 59 -11 57 C-10.96921968 54.26934611 -11.06707816 51.55326832 -11.16015625 48.82421875 C-10.98978915 45.81994034 -10.26030271 43.71335759 -9 41 C-8.34 41 -7.68 41 -7 41 C-7 42.65 -7 44.3 -7 46 C-3.84138661 30.70148166 -1.17853302 15.58477994 0 0 Z " fill="#90BFDB" transform="translate(499,264)"/>
<path d="M0 0 C0.66 0.33 1.32 0.66 2 1 C1.835 1.5775 1.67 2.155 1.5 2.75 C0.85537969 5.26664369 0.85537969 5.26664369 1 9 C-0.9375 8.625 -0.9375 8.625 -3 8 C-3.495 7.01 -3.495 7.01 -4 6 C-4.99 6.66 -5.98 7.32 -7 8 C-7.99 8 -8.98 8 -10 8 C-10 8.66 -10 9.32 -10 10 C-11.98 10 -13.96 10 -16 10 C-16 10.66 -16 11.32 -16 12 C-18.20571604 13.58847863 -20.51217315 14.95817483 -22.8359375 16.3671875 C-25.12411569 18.09364686 -25.96204306 19.36518623 -27 22 C-27.556875 21.814375 -28.11375 21.62875 -28.6875 21.4375 C-31.399133 20.92448835 -33.34371039 21.3359276 -36 22 C-33.80029675 18.70044513 -32.01761186 17.94154207 -28.5234375 16.2890625 C-25.50732003 14.74832138 -22.68176167 12.98686749 -19.8125 11.1875 C-15.20361186 8.32309756 -10.5676733 5.55241139 -5.8125 2.9375 C-4.74644531 2.34839844 -3.68039063 1.75929688 -2.58203125 1.15234375 C-1.72996094 0.77207031 -0.87789062 0.39179688 0 0 Z " fill="#66A9D6" transform="translate(142,23)"/>
<path d="M0 0 C0.66 0.66 1.32 1.32 2 2 C0.36608111 3.63391889 -1.60730274 3.34011943 -3.86328125 3.54296875 C-16.52764755 4.79813975 -28.22230324 6.77265218 -40.30859375 10.79296875 C-44 12 -44 12 -46 12 C-46 12.66 -46 13.32 -46 14 C-47.57914015 14.53341184 -49.16354387 15.05125763 -50.75 15.5625 C-51.63171875 15.85253906 -52.5134375 16.14257812 -53.421875 16.44140625 C-56.13018796 17.02820739 -57.39972846 16.75639869 -60 16 C-17.1902834 -1.17206478 -17.1902834 -1.17206478 0 0 Z " fill="#B9DFF4" transform="translate(213,2)"/>
<path d="M0 0 C1 2 1 2 0.3984375 3.96435547 C0.06070312 4.75729004 -0.27703125 5.55022461 -0.625 6.3671875 C-0.99882812 7.24802002 -1.37265625 8.12885254 -1.7578125 9.03637695 C-2.16773438 9.97312256 -2.57765625 10.90986816 -3 11.875 C-3.40992188 12.82141357 -3.81984375 13.76782715 -4.2421875 14.74291992 C-7.33720901 21.76739323 -10.60191736 28.67775621 -15 35 C-15.33 35 -15.66 35 -16 35 C-16 33.35 -16 31.7 -16 30 C-15.34 30 -14.68 30 -14 30 C-14 28.35 -14 26.7 -14 25 C-12.68 24.67 -11.36 24.34 -10 24 C-10 22.68 -10 21.36 -10 20 C-9.34 20 -8.68 20 -8 20 C-8.04125 18.7625 -8.0825 17.525 -8.125 16.25 C-8.125 11.37836136 -6.6792355 9.01885325 -4 5 C-3.34 5 -2.68 5 -2 5 C-2 3.68 -2 2.36 -2 1 C-1.34 0.67 -0.68 0.34 0 0 Z " fill="#6AA3C7" transform="translate(483,339)"/>
<path d="M0 0 C0.99 0.99 1.98 1.98 3 3 C1.59157329 5.58813455 0.17374062 8.17030697 -1.25 10.75 C-1.64574219 11.47960937 -2.04148437 12.20921875 -2.44921875 12.9609375 C-4.59846205 16.83662213 -6.61364899 20.04859315 -10 23 C-10 20.69 -10 18.38 -10 16 C-9.01 16 -8.02 16 -7 16 C-6.7834375 14.1128125 -6.7834375 14.1128125 -6.5625 12.1875 C-6.26251314 9.57332877 -5.84186703 7.52560108 -5 5 C-5 4.01 -5 3.02 -5 2 C-4.01 1.67 -3.02 1.34 -2 1 C-2 1.99 -2 2.98 -2 4 C-1.34 2.68 -0.68 1.36 0 0 Z " fill="#5F9ABE" transform="translate(333,116)"/>
<path d="M0 0 C2.475 0.495 2.475 0.495 5 1 C5.33 1.99 5.66 2.98 6 4 C6.845625 4.45375 7.69125 4.9075 8.5625 5.375 C9.366875 5.91125 10.17125 6.4475 11 7 C11.3125 9.6875 11.3125 9.6875 11 12 C11.66 12 12.32 12 13 12 C13.33 12.66 13.66 13.32 14 14 C16.52733235 14.65555119 16.52733235 14.65555119 19 15 C18.01 15.495 18.01 15.495 17 16 C17.515625 17.11375 18.03125 18.2275 18.5625 19.375 C19.036875 20.57125 19.51125 21.7675 20 23 C19.67 23.66 19.34 24.32 19 25 C18.52691406 24.40574219 18.05382812 23.81148438 17.56640625 23.19921875 C13.06773771 17.56053674 8.51188587 11.97761969 3.8828125 6.4453125 C2.26011309 4.33782323 1.07005057 2.4216934 0 0 Z " fill="#74B3DD" transform="translate(170,246)"/>
<path d="M0 0 C-18.34545407 6.61192978 -38.30181967 13.3396238 -58 13 C-58 12.67 -58 12.34 -58 12 C-56.86123413 11.80422363 -56.86123413 11.80422363 -55.69946289 11.60449219 C-41.36394083 9.12720291 -27.09976224 6.60551063 -13 3 C-13 2.34 -13 1.68 -13 1 C-11.39796533 0.63631108 -9.79325797 0.28438048 -8.1875 -0.0625 C-7.29417969 -0.25972656 -6.40085937 -0.45695312 -5.48046875 -0.66015625 C-3 -1 -3 -1 0 0 Z " fill="#BADEEF" transform="translate(336,486)"/>
<path d="M0 0 C4.25067976 0.23881518 8.50064674 0.48742524 12.75024414 0.74462891 C14.19214817 0.8305734 15.63420685 0.9139666 17.07641602 0.99462891 C24.88161162 1.43291025 32.40916017 1.9814303 40 4 C40 4.33 40 4.66 40 5 C26.31300811 5.72460545 13.41933951 3.52789161 0 1 C0 0.67 0 0.34 0 0 Z " fill="#74B7DF" transform="translate(197,495)"/>
<path d="M0 0 C6.18913044 4.77078805 10.94662365 10.29350458 15 17 C15 17.99 15 18.98 15 20 C9.4 18.53913043 9.4 18.53913043 7.5625 16.0625 C7 14 7 14 8 11 C7.360625 10.731875 6.72125 10.46375 6.0625 10.1875 C4 9 4 9 3 6 C2.01 5.67 1.02 5.34 0 5 C0 3.35 0 1.7 0 0 Z " fill="#76B4DC" transform="translate(155,331)"/>
<path d="M0 0 C1.50433594 0.01353516 1.50433594 0.01353516 3.0390625 0.02734375 C3.80992187 0.03894531 4.58078125 0.05054688 5.375 0.0625 C5.375 0.3925 5.375 0.7225 5.375 1.0625 C-0.38581841 2.3607126 -5.71239655 3.31956972 -11.625 3.0625 C-11.625 3.7225 -11.625 4.3825 -11.625 5.0625 C-19.875 5.0625 -28.125 5.0625 -36.625 5.0625 C-36.625 4.7325 -36.625 4.4025 -36.625 4.0625 C-31.345 4.0625 -26.065 4.0625 -20.625 4.0625 C-20.295 3.0725 -19.965 2.0825 -19.625 1.0625 C-18.78195312 1.07410156 -17.93890625 1.08570313 -17.0703125 1.09765625 C-15.97460938 1.10667969 -14.87890625 1.11570312 -13.75 1.125 C-12.65945313 1.13660156 -11.56890625 1.14820313 -10.4453125 1.16015625 C-6.76752963 1.0328092 -3.84081701 -0.04466066 0 0 Z " fill="#5C9BC2" transform="translate(289.625,494.9375)"/>
<path d="M0 0 C3.45826342 -0.05789006 6.91640293 -0.09355821 10.375 -0.125 C11.35984375 -0.14175781 12.3446875 -0.15851563 13.359375 -0.17578125 C14.77089844 -0.18544922 14.77089844 -0.18544922 16.2109375 -0.1953125 C17.51490479 -0.21102295 17.51490479 -0.21102295 18.84521484 -0.22705078 C21 0 21 0 23 2 C18.9842668 2.98128819 15.37169204 3.01238973 11.25 2.875 C5.11482548 2.81041922 0.64561744 3.66388244 -5 6 C-4.67 4.68 -4.34 3.36 -4 2 C-2.68 2 -1.36 2 0 2 C0 1.34 0 0.68 0 0 Z " fill="#60A6D5" transform="translate(125,223)"/>
<path d="M0 0 C0.66 0.33 1.32 0.66 2 1 C1.01 2.485 1.01 2.485 0 4 C-0.66 4 -1.32 4 -2 4 C-2 4.99 -2 5.98 -2 7 C-3.9375 8.3125 -3.9375 8.3125 -7 10 C-13.99564877 14.38264154 -13.99564877 14.38264154 -20 20 C-20.33 19.01 -20.66 18.02 -21 17 C-14.03914614 11.28310101 -7.04719722 5.6102416 0 0 Z " fill="#83BDE0" transform="translate(104,45)"/>
<path d="M0 0 C0.66 0.33 1.32 0.66 2 1 C1.20335938 1.78310547 1.20335938 1.78310547 0.390625 2.58203125 C-5.81884799 9.05212081 -10.04624696 15.938179 -10.375 25.125 C-9.94804578 29.53686029 -9.11097652 33.71480484 -8 38 C-9.32 37.34 -10.64 36.68 -12 36 C-12.53206712 23.2599485 -12.52292773 13.92342431 -3.75 3.875 C-2.51329811 2.57059545 -1.26792288 1.27407784 0 0 Z " fill="#B8DEF2" transform="translate(115,231)"/>
<path d="M0 0 C0.33 1.32 0.66 2.64 1 4 C0.34 4 -0.32 4 -1 4 C-1 5.65 -1 7.3 -1 9 C-1.99 9.495 -1.99 9.495 -3 10 C-3.67939174 11.99571323 -4.34561559 13.99594773 -5 16 C-5.66 16.66 -6.32 17.32 -7 18 C-7.16687448 20.58354218 -7.16687448 20.58354218 -7 23 C-8.65 23.33 -10.3 23.66 -12 24 C-10.53398626 19.0751101 -8.4482205 14.79646907 -6 10.3125 C-5.64421875 9.64927734 -5.2884375 8.98605469 -4.921875 8.30273438 C-3.38103452 5.4481549 -1.80058312 2.70087468 0 0 Z " fill="#6DB2DF" transform="translate(34,122)"/>
<path d="M0 0 C0.33 0.66 0.66 1.32 1 2 C-0.07983398 4.06298828 -0.07983398 4.06298828 -1.74609375 6.5703125 C-2.33583984 7.46621094 -2.92558594 8.36210937 -3.53320312 9.28515625 C-4.47583008 10.69087891 -4.47583008 10.69087891 -5.4375 12.125 C-6.37432617 13.54232422 -6.37432617 13.54232422 -7.33007812 14.98828125 C-8.87963298 17.33035653 -10.43650079 19.66722003 -12 22 C-12.33 20.68 -12.66 19.36 -13 18 C-12.34 18 -11.68 18 -11 18 C-10.87625 17.236875 -10.7525 16.47375 -10.625 15.6875 C-10 13 -10 13 -8 10 C-7.34 10 -6.68 10 -6 10 C-6 8.02 -6 6.04 -6 4 C-5.01 3.67 -4.02 3.34 -3 3 C-2.67 2.34 -2.34 1.68 -2 1 C-1.34 0.67 -0.68 0.34 0 0 Z " fill="#6DA2C3" transform="translate(311,157)"/>
<path d="M0 0 C1.32 0.33 2.64 0.66 4 1 C0.27653164 5.42094803 -3.29521038 9.57833482 -8 13 C-8.48798077 6.65625 -8.48798077 6.65625 -6.1875 3.5625 C-4 2 -4 2 -1 2 C-0.67 1.34 -0.34 0.68 0 0 Z " fill="#4D94C4" transform="translate(429,420)"/>
<path d="M0 0 C0.33 0 0.66 0 1 0 C1.32704762 4.68768255 0.77558689 7.19641797 -2 11 C-4.64179436 14.01919355 -7.90885088 16.4583885 -11 19 C-9.41305672 14.46463751 -7.0435173 10.68503997 -4.4375 6.6875 C-4.02564453 6.04232422 -3.61378906 5.39714844 -3.18945312 4.73242188 C-2.15659145 3.13495169 -1.08192254 1.56465902 0 0 Z " fill="#85B2CF" transform="translate(307,289)"/>
<path d="M0 0 C3.45501463 4.30891792 5.22281204 8.96919025 7.25 14.0625 C7.81460937 15.42858398 7.81460937 15.42858398 8.390625 16.82226562 C8.74125 17.69689453 9.091875 18.57152344 9.453125 19.47265625 C9.77442383 20.26937744 10.09572266 21.06609863 10.42675781 21.88696289 C11 24 11 24 10 27 C7.90250005 24.64031256 7.03094296 23.45383006 6.8125 20.25 C6.874375 19.5075 6.93625 18.765 7 18 C6.34 18 5.68 18 5 18 C4.71125 16.88625 4.4225 15.7725 4.125 14.625 C3.30758671 10.99708908 3.30758671 10.99708908 1 9 C0.5859375 6.8359375 0.5859375 6.8359375 0.375 4.375 C0.30023438 3.55773437 0.22546875 2.74046875 0.1484375 1.8984375 C0.09945313 1.27195313 0.05046875 0.64546875 0 0 Z " fill="#8AB9D6" transform="translate(476,142)"/>
<path d="M0 0 C0.928125 0.474375 1.85625 0.94875 2.8125 1.4375 C5.91196237 3.04488875 5.91196237 3.04488875 9 4 C8.67 4.99 8.34 5.98 8 7 C7.34 7 6.68 7 6 7 C6.33 7.928125 6.66 8.85625 7 9.8125 C8.41510658 14.75526511 8.55188601 19.90317038 8 25 C7.34 25.99 6.68 26.98 6 28 C6.05220703 26.74896484 6.05220703 26.74896484 6.10546875 25.47265625 C6.31911191 16.59120487 5.89881378 9.02239736 0 2 C0 1.34 0 0.68 0 0 Z " fill="#7FB4D5" transform="translate(389,116)"/>
<path d="M0 0 C0.66 0.33 1.32 0.66 2 1 C2 1.99 2 2.98 2 4 C2.66 4.33 3.32 4.66 4 5 C-0.455 8.96 -0.455 8.96 -5 13 C-5.66 12.67 -6.32 12.34 -7 12 C-6.34 11.01 -5.68 10.02 -5 9 C-4.87625 8.38125 -4.7525 7.7625 -4.625 7.125 C-3.75703376 4.17391478 -1.98591271 2.30622121 0 0 Z " fill="#63A2CB" transform="translate(409,436)"/>
<path d="M0 0 C0.33 0 0.66 0 1 0 C1.33 3.63 1.66 7.26 2 11 C2.66 11 3.32 11 4 11 C4.90413673 14.83724172 5.10576898 18.37502274 5.0625 22.3125 C5.05347656 23.38113281 5.04445313 24.44976562 5.03515625 25.55078125 C5.02355469 26.35902344 5.01195312 27.16726563 5 28 C4.67 28 4.34 28 4 28 C3.67 24.7 3.34 21.4 3 18 C2.34 18 1.68 18 1 18 C0.10395632 11.95170514 -0.11269443 6.1105424 0 0 Z " fill="#7EBCDE" transform="translate(0,269)"/>
<path d="M0 0 C0.33 0.66 0.66 1.32 1 2 C0.02768637 3.64287475 -0.94760733 5.28409473 -1.94140625 6.9140625 C-3.71864201 10.41606949 -4.3373066 14.15463435 -5 18 C-5.33 17.34 -5.66 16.68 -6 16 C-6.66 16 -7.32 16 -8 16 C-8.33 17.65 -8.66 19.3 -9 21 C-9.99 21.33 -10.98 21.66 -12 22 C-10.50787224 16.56316666 -7.8990817 12.30936185 -4.875 7.625 C-4.40707031 6.88894531 -3.93914062 6.15289062 -3.45703125 5.39453125 C-2.31041087 3.59269922 -1.15598924 1.79583569 0 0 Z " fill="#91BED9" transform="translate(345,226)"/>
<path d="M0 0 C1 2 1 2 0.546875 3.8046875 C-2.28818207 11.17027694 -2.28818207 11.17027694 -5 14 C-5.66 14 -6.32 14 -7 14 C-7.33 15.65 -7.66 17.3 -8 19 C-8.99 19.33 -9.98 19.66 -11 20 C-9.56952311 14.89115395 -7.28610306 10.98255739 -4.375 6.625 C-3.95476562 5.98433594 -3.53453125 5.34367188 -3.1015625 4.68359375 C-2.07370232 3.11844302 -1.03768114 1.55865686 0 0 Z " fill="#7FACCB" transform="translate(386,159)"/>
<path d="M0 0 C2.31 0 4.62 0 7 0 C3.63086351 2.81183572 -0.05178335 4.50075001 -4.0625 6.1875 C-4.68705078 6.46013672 -5.31160156 6.73277344 -5.95507812 7.01367188 C-8.809691 8.22924342 -10.86439599 9 -14 9 C-14 8.01 -14 7.02 -14 6 C-11.69 5.34 -9.38 4.68 -7 4 C-7 3.67 -7 3.34 -7 3 C-6.030625 2.87625 -5.06125 2.7525 -4.0625 2.625 C-2.5465625 2.315625 -2.5465625 2.315625 -1 2 C-0.67 1.34 -0.34 0.68 0 0 Z " fill="#77ABCD" transform="translate(353,475)"/>
<path d="M0 0 C1.24546405 2.49092811 0.7767578 3.41080733 0 6 C-0.66 6 -1.32 6 -2 6 C-2.66 9.3 -3.32 12.6 -4 16 C-5.32 16 -6.64 16 -8 16 C-8 16.66 -8 17.32 -8 18 C-8.66 18 -9.32 18 -10 18 C-8.47146065 13.72813475 -6.28490519 10.00673137 -3.875 6.1875 C-3.50246094 5.59001953 -3.12992187 4.99253906 -2.74609375 4.37695312 C-1.8342952 2.91573749 -0.91764024 1.45755415 0 0 Z " fill="#7CADCB" transform="translate(279,335)"/>
<path d="M0 0 C0.66 0.66 1.32 1.32 2 2 C-0.04172847 4.04172847 -3.9393812 3.7284916 -6.75 4.0625 C-7.46671875 4.15337891 -8.1834375 4.24425781 -8.921875 4.33789062 C-12.63451644 4.79173374 -16.25930484 5.1104536 -20 5 C-18.68 4.67 -17.36 4.34 -16 4 C-16 3.34 -16 2.68 -16 2 C-4.79704797 -0.4797048 -4.79704797 -0.4797048 0 0 Z " fill="#82BBDE" transform="translate(213,2)"/>
<path d="M0 0 C0.66 0 1.32 0 2 0 C2.33 2.31 2.66 4.62 3 7 C3.66 7 4.32 7 5 7 C5 8.32 5 9.64 5 11 C5.66 11 6.32 11 7 11 C7 11.99 7 12.98 7 14 C7.66 14 8.32 14 9 14 C9.12375 15.134375 9.2475 16.26875 9.375 17.4375 C9.58125 18.613125 9.7875 19.78875 10 21 C10.66 21.33 11.32 21.66 12 22 C11.34 22.66 10.68 23.32 10 24 C8.32386272 20.56703905 6.66074303 17.12793117 5 13.6875 C4.52304687 12.71103516 4.04609375 11.73457031 3.5546875 10.72851562 C3.10351562 9.79072266 2.65234375 8.85292969 2.1875 7.88671875 C1.76855469 7.02264404 1.34960938 6.15856934 0.91796875 5.26831055 C0 3 0 3 0 0 Z " fill="#87BEE4" transform="translate(18,344)"/>
<path d="M0 0 C-10.22115959 7.01852959 -10.22115959 7.01852959 -15 9 C-15.66 8.67 -16.32 8.34 -17 8 C-15.3125 5.5 -15.3125 5.5 -13 3 C-10.25 2.6875 -10.25 2.6875 -8 3 C-8 2.34 -8 1.68 -8 1 C-3.375 -1.125 -3.375 -1.125 0 0 Z " fill="#6EA3C4" transform="translate(377,466)"/>
<path d="M0 0 C7.32110805 -0.85129163 13.34969322 2.19987083 20 5 C16.72143806 6.09285398 15.54699222 5.89911789 12.25 5.1875 C11.37085938 4.99800781 10.49171875 4.80851562 9.5859375 4.61328125 C6.35197335 3.84631392 3.17945769 2.96766103 0 2 C0 1.34 0 0.68 0 0 Z " fill="#76ABCC" transform="translate(324,12)"/>
<path d="M0 0 C2.66666667 2.66666667 5.33333333 5.33333333 8 8 C7.67 8.66 7.34 9.32 7 10 C6.4225 9.835 5.845 9.67 5.25 9.5 C2.73335631 8.85537969 2.73335631 8.85537969 -1 9 C-1.33 7.35 -1.66 5.7 -2 4 C-1.34 4 -0.68 4 0 4 C0 2.68 0 1.36 0 0 Z " fill="#5EAFE1" transform="translate(123,291)"/>
<path d="M0 0 C5.08190913 1.53526127 8.42477886 4.67369658 12.3125 8.125 C12.95767578 8.68832031 13.60285156 9.25164063 14.26757812 9.83203125 C15.85026301 11.21541508 17.42585141 12.60691045 19 14 C15.33540949 14 14.07586101 12.93135459 11 11 C9.9275 10.525625 8.855 10.05125 7.75 9.5625 C5 8 5 8 4.375 6.0625 C4.25125 5.381875 4.1275 4.70125 4 4 C2.02098426 1.77022004 2.02098426 1.77022004 0 0 Z " fill="#9CC7E1" transform="translate(394,45)"/>
<path d="M0 0 C1.28270075 2.56540151 0.68405835 3.26376662 0 6 C-0.03845443 7.99963028 -0.04544281 10.00051633 0 12 C-0.61875 12.103125 -1.2375 12.20625 -1.875 12.3125 C-4.36526484 12.87525373 -4.36526484 12.87525373 -6 16 C-6.66 15.67 -7.32 15.34 -8 15 C-7.566875 14.319375 -7.13375 13.63875 -6.6875 12.9375 C-4.83891243 9.7195883 -3.45315859 6.41176365 -2 3 C-1.34 2.01 -0.68 1.02 0 0 Z " fill="#5C99C2" transform="translate(350,218)"/>
<path d="M0 0 C3.05107089 3.05107089 3.56351206 6.7825311 4.6875 10.875 C4.92533203 11.69097656 5.16316406 12.50695312 5.40820312 13.34765625 C5.62798828 14.13785156 5.84777344 14.92804688 6.07421875 15.7421875 C6.27619873 16.4626123 6.47817871 17.18303711 6.6862793 17.92529297 C7.03672151 20.24284779 6.71241772 21.78573713 6 24 C5.71125 23.030625 5.4225 22.06125 5.125 21.0625 C4.35785318 17.89335797 4.35785318 17.89335797 2 17 C1.52381188 14.12817413 1.15832403 11.32879853 0.875 8.4375 C0.78863281 7.63119141 0.70226562 6.82488281 0.61328125 5.99414062 C0.40056372 3.99695936 0.19922145 1.99857263 0 0 Z " fill="#A1C9E1" transform="translate(487,169)"/>
<path d="M0 0 C0.99 0.33 1.98 0.66 3 1 C3 1.99 3 2.98 3 4 C4.32 4 5.64 4 7 4 C8.17076699 7.98060777 9.25749403 11.91621717 10 16 C7.21234235 13.4696646 5.32536505 10.60660199 3.3125 7.4375 C2.68988281 6.46683594 2.06726563 5.49617188 1.42578125 4.49609375 C0 2 0 2 0 0 Z " fill="#69ACD6" transform="translate(29,368)"/>
<path d="M0 0 C8.95737154 -0.37150389 20.07858389 -0.64358875 28 4 C26.18757948 4.02687279 24.37504767 4.04633715 22.5625 4.0625 C21.55316406 4.07410156 20.54382813 4.08570313 19.50390625 4.09765625 C17 4 17 4 16 3 C13.31137336 2.60006314 10.63647783 2.24865457 7.9375 1.9375 C7.17888672 1.84662109 6.42027344 1.75574219 5.63867188 1.66210938 C3.7595699 1.4375626 1.87983905 1.21829022 0 1 C0 0.67 0 0.34 0 0 Z " fill="#3F80AD" transform="translate(266,1)"/>
<path d="M0 0 C0.99 0.99 1.98 1.98 3 3 C1.68 5.31 0.36 7.62 -1 10 C-5 5.375 -5 5.375 -5 2 C-4.01 1.67 -3.02 1.34 -2 1 C-2 1.99 -2 2.98 -2 4 C-1.34 2.68 -0.68 1.36 0 0 Z " fill="#5194C0" transform="translate(333,116)"/>
<path d="M0 0 C4.52615993 3.67832017 8.39424999 7.41086363 12 12 C11.67 12.66 11.34 13.32 11 14 C5.7916765 11.84483165 3.68876741 7.76645131 1 3 C0.67 2.01 0.34 1.02 0 0 Z " fill="#93C5E3" transform="translate(187,371)"/>
<path d="M0 0 C2.8966148 0.11430048 5.79178316 0.2410424 8.6875 0.375 C9.50412109 0.4059375 10.32074219 0.436875 11.16210938 0.46875 C15.50126633 0.67955924 19.04283457 1.01738759 23 3 C23 3.33 23 3.66 23 4 C15.1812896 3.53430878 7.63600985 2.77541538 0 1 C0 0.67 0 0.34 0 0 Z " fill="#B2DCEF" transform="translate(197,495)"/>
<path d="M0 0 C0.66 0.99 1.32 1.98 2 3 C1.38125 3.7425 0.7625 4.485 0.125 5.25 C-1.60437281 7.48801188 -2.86106661 9.43739987 -4 12 C-4.66 12 -5.32 12 -6 12 C-6 12.66 -6 13.32 -6 14 C-6.66 13.67 -7.32 13.34 -8 13 C-5.36 8.71 -2.72 4.42 0 0 Z " fill="#5CA2D0" transform="translate(43,108)"/>
<path d="M0 0 C0.33 0.66 0.66 1.32 1 2 C-0.43359375 4.6015625 -0.43359375 4.6015625 -2.4375 7.625 C-3.09621094 8.62789062 -3.75492187 9.63078125 -4.43359375 10.6640625 C-4.95050781 11.43492187 -5.46742188 12.20578125 -6 13 C-6.66 12.67 -7.32 12.34 -8 12 C-7.01 9.03 -6.02 6.06 -5 3 C-4.01 3 -3.02 3 -2 3 C-1.34 2.01 -0.68 1.02 0 0 Z " fill="#87B4D1" transform="translate(288,195)"/>
<path d="M0 0 C0.66 0.33 1.32 0.66 2 1 C1.835 1.5775 1.67 2.155 1.5 2.75 C0.85537969 5.26664369 0.85537969 5.26664369 1 9 C-0.9375 8.6875 -0.9375 8.6875 -3 8 C-3.33 7.01 -3.66 6.02 -4 5 C-4.66 4.34 -5.32 3.68 -6 3 C-4.03533587 1.93224776 -2.03144641 0.93446535 0 0 Z " fill="#5AAADF" transform="translate(142,23)"/>
<path d="M0 0 C0.33 0.66 0.66 1.32 1 2 C-0.3984375 4.6015625 -0.3984375 4.6015625 -2.375 7.625 C-3.34566406 9.12933594 -3.34566406 9.12933594 -4.3359375 10.6640625 C-4.88507813 11.43492187 -5.43421875 12.20578125 -6 13 C-6.33 13 -6.66 13 -7 13 C-6.67 10.69 -6.34 8.38 -6 6 C-5.34 6 -4.68 6 -4 6 C-4.33 4.35 -4.66 2.7 -5 1 C-4.34 1.33 -3.68 1.66 -3 2 C-2.01 1.34 -1.02 0.68 0 0 Z " fill="#78B8DF" transform="translate(232,287)"/>
<path d="M0 0 C5.47932789 1.54545146 10.11429181 4.15543212 15 7 C15 7.33 15 7.66 15 8 C13.35 8 11.7 8 10 8 C10 7.34 10 6.68 10 6 C9.01 6.33 8.02 6.66 7 7 C6.67 6.01 6.34 5.02 6 4 C5.01 4 4.02 4 3 4 C3 3.34 3 2.68 3 2 C2.01 2.33 1.02 2.66 0 3 C0 2.01 0 1.02 0 0 Z " fill="#7CADCC" transform="translate(358,24)"/>
<path d="M0 0 C1.33333333 0.66666667 2.66666667 1.33333333 4 2 C5.010625 2.433125 6.02125 2.86625 7.0625 3.3125 C10.30451849 5.17493616 11.38669094 6.68375359 13 10 C7.65978754 8.49806525 3.86352256 4.82517494 0 1 C0 0.67 0 0.34 0 0 Z " fill="#9ECBE7" transform="translate(93,445)"/>
<path d="M0 0 C0.33 1.32 0.66 2.64 1 4 C1.66 4 2.32 4 3 4 C2.95875 4.7425 2.9175 5.485 2.875 6.25 C3.00398134 9.08758952 3.57051222 10.58773938 5 13 C0.47951843 9.86077669 -1.51545911 6.78504172 -4 2 C-3.34 2 -2.68 2 -2 2 C-1.67 2.66 -1.34 3.32 -1 4 C-0.67 2.68 -0.34 1.36 0 0 Z " fill="#91C7EA" transform="translate(53,398)"/>
<path d="M0 0 C1.32 0.33 2.64 0.66 4 1 C2.68 3.31 1.36 5.62 0 8 C-1.32 7.34 -2.64 6.68 -4 6 C-4 5.01 -4 4.02 -4 3 C-3.01 3 -2.02 3 -1 3 C-0.67 2.01 -0.34 1.02 0 0 Z " fill="#7CB4DB" transform="translate(221,300)"/>
<path d="M0 0 C0.556875 0.70125 1.11375 1.4025 1.6875 2.125 C4.09124732 5.11344261 6.53810432 8.05940238 9 11 C8.67 11.66 8.34 12.32 8 13 C0.15754923 7.08315098 0.15754923 7.08315098 -0.5 2.5625 C-0.335 1.716875 -0.17 0.87125 0 0 Z " fill="#90C3E1" transform="translate(107,269)"/>
<path d="M0 0 C0.33 0 0.66 0 1 0 C1.13277344 0.95261719 1.26554687 1.90523437 1.40234375 2.88671875 C1.66724609 4.76810547 1.66724609 4.76810547 1.9375 6.6875 C2.11152344 7.92886719 2.28554687 9.17023438 2.46484375 10.44921875 C2.89822897 13.32474548 3.39649282 16.15644813 4 19 C2.68 18.34 1.36 17.68 0 17 C0 11.39 0 5.78 0 0 Z " fill="#7FBBE2" transform="translate(103,250)"/>
<path d="M0 0 C0.99 0 1.98 0 3 0 C2.32902328 4.19360449 0.1441606 7.40334352 -2 11 C-2.33 11 -2.66 11 -3 11 C-3 9.35 -3 7.7 -3 6 C-2.34 6 -1.68 6 -1 6 C-1.0309375 4.7934375 -1.0309375 4.7934375 -1.0625 3.5625 C-1 1 -1 1 0 0 Z " fill="#639BBF" transform="translate(470,363)"/>
<path d="M0 0 C1.43410153 3.78819273 0.51009497 6.06521279 -0.9375 9.75 C-1.31777344 10.73484375 -1.69804687 11.7196875 -2.08984375 12.734375 C-2.39019531 13.48203125 -2.69054687 14.2296875 -3 15 C-3.33 15 -3.66 15 -4 15 C-3.85904936 13.3745692 -3.71207913 11.74965949 -3.5625 10.125 C-3.48128906 9.22007812 -3.40007812 8.31515625 -3.31640625 7.3828125 C-3 5 -3 5 -2 3 C-1.34 3 -0.68 3 0 3 C0 2.01 0 1.02 0 0 Z " fill="#90BEDB" transform="translate(490,318)"/>
<path d="M0 0 C1.32 0.33 2.64 0.66 4 1 C2.66511872 4.59391114 1.03977277 7.75490696 -1 11 C-2.31625194 8.36749612 -1.74813658 7.19820944 -1.0625 4.375 C-0.86785156 3.55773437 -0.67320312 2.74046875 -0.47265625 1.8984375 C-0.23869141 0.95871094 -0.23869141 0.95871094 0 0 Z " fill="#88C2E6" transform="translate(237,273)"/>
<path d="M0 0 C0.66 0.33 1.32 0.66 2 1 C0.55007731 5.10811428 -1.45407573 8.46855666 -4 12 C-4.33 12 -4.66 12 -5 12 C-4.67 9.69 -4.34 7.38 -4 5 C-3.34 5 -2.68 5 -2 5 C-1.7834375 4.0409375 -1.7834375 4.0409375 -1.5625 3.0625 C-1 1 -1 1 0 0 Z " fill="#6598BC" transform="translate(257,243)"/>
<path d="M0 0 C0.66 0.66 1.32 1.32 2 2 C-2.24551856 3.09587955 -5.9592839 2.92865836 -10.3125 2.5625 C-11.56675781 2.46066406 -12.82101563 2.35882813 -14.11328125 2.25390625 C-15.06589844 2.17011719 -16.01851562 2.08632812 -17 2 C-17 1.67 -17 1.34 -17 1 C-3.93023256 -0.30232558 -3.93023256 -0.30232558 0 0 Z " fill="#81B7DD" transform="translate(146,223)"/>
<path d="M0 0 C1.23556641 0.01740234 1.23556641 0.01740234 2.49609375 0.03515625 C3.32238281 0.04417969 4.14867187 0.05320312 5 0.0625 C5.63808594 0.07410156 6.27617187 0.08570313 6.93359375 0.09765625 C3.25133104 2.28044085 -0.6645141 2.95349665 -4.81640625 3.72265625 C-5.86248047 3.92375 -5.86248047 3.92375 -6.9296875 4.12890625 C-8.64092557 4.45708889 -10.35353796 4.77809127 -12.06640625 5.09765625 C-12.06640625 4.43765625 -12.06640625 3.77765625 -12.06640625 3.09765625 C-11.10927734 2.89849609 -11.10927734 2.89849609 -10.1328125 2.6953125 C-9.30652344 2.51871094 -8.48023438 2.34210938 -7.62890625 2.16015625 C-6.80519531 1.98613281 -5.98148437 1.81210937 -5.1328125 1.6328125 C-2.78442822 1.0246298 -2.4256184 0.11463225 0 0 Z " fill="#3F81AC" transform="translate(307.06640625,490.90234375)"/>
<path d="M0 0 C0.99 0.33 1.98 0.66 3 1 C3.6875 3.0625 3.6875 3.0625 4 5 C-0.21878192 5.19622241 -3.17010894 4.80230168 -7 3 C-7 2.67 -7 2.34 -7 2 C-4.69 2 -2.38 2 0 2 C0 1.34 0 0.68 0 0 Z " fill="#65AEDD" transform="translate(165,481)"/>
<path d="M0 0 C0.66 0.33 1.32 0.66 2 1 C1 4 1 4 -2 6 C-4.04296875 6.1953125 -4.04296875 6.1953125 -6.1875 6.125 C-8.0746875 6.063125 -8.0746875 6.063125 -10 6 C-6.71739341 3.81159561 -3.49181927 1.84114107 0 0 Z " fill="#7AB9DE" transform="translate(243,389)"/>
<path d="M0 0 C0.33 1.32 0.66 2.64 1 4 C0.34 4 -0.32 4 -1 4 C-1.0825 4.7425 -1.165 5.485 -1.25 6.25 C-2.1396946 9.51221354 -3.48503749 10.80954878 -6 13 C-6 9.32965255 -4.9247108 7.9000569 -3 4.8125 C-2.443125 3.91144531 -1.88625 3.01039063 -1.3125 2.08203125 C-0.6628125 1.05142578 -0.6628125 1.05142578 0 0 Z " fill="#68A0C4" transform="translate(370,186)"/>
<path d="M0 0 C1.27609323 0.90933009 2.54565553 1.82782853 3.8125 2.75 C4.87404297 3.51570313 4.87404297 3.51570313 5.95703125 4.296875 C8.02977691 6.02482358 9.47375854 7.78526476 11 10 C8.03 9.505 8.03 9.505 5 9 C4.67 8.01 4.34 7.02 4 6 C3.319375 5.319375 2.63875 4.63875 1.9375 3.9375 C1.298125 3.298125 0.65875 2.65875 0 2 C0 1.34 0 0.68 0 0 Z " fill="#6BA3C8" transform="translate(415,62)"/>
<path d="M0 0 C1.32 0.33 2.64 0.66 4 1 C3.02433888 2.16959987 2.044375 3.33561177 1.0625 4.5 C0.51722656 5.1496875 -0.02804687 5.799375 -0.58984375 6.46875 C-1.05519531 6.9740625 -1.52054687 7.479375 -2 8 C-2.33 8 -2.66 8 -3 8 C-3.33 6.02 -3.66 4.04 -4 2 C-3.01 2 -2.02 2 -1 2 C-0.67 1.34 -0.34 0.68 0 0 Z " fill="#5C9BC5" transform="translate(429,420)"/>
<path d="M0 0 C0.68707555 2.49064888 1 4.37886292 1 7 C0.01 7.495 0.01 7.495 -1 8 C-2.13350534 10.01669827 -2.13350534 10.01669827 -3 12 C-4.41116678 8.79280276 -3.89413879 7.71609948 -2.625 4.3125 C-1 1 -1 1 0 0 Z " fill="#5493BD" transform="translate(283,329)"/>
<path d="M0 0 C1.65 0.99 3.3 1.98 5 3 C3.92598892 5.91517292 3.22189824 7.77810176 1 10 C0.63883954 8.5225254 0.28624952 7.04295325 -0.0625 5.5625 C-0.25972656 4.73878906 -0.45695312 3.91507813 -0.66015625 3.06640625 C-0.82837891 2.04353516 -0.82837891 2.04353516 -1 1 C-0.67 0.67 -0.34 0.34 0 0 Z " fill="#458BB8" transform="translate(293,176)"/>
<path d="M0 0 C0.66 0 1.32 0 2 0 C1.36934243 3.21852831 0.21979305 5.50801069 -1.5625 8.25 C-2.01753906 8.95640625 -2.47257812 9.6628125 -2.94140625 10.390625 C-3.29074219 10.92171875 -3.64007813 11.4528125 -4 12 C-4.33 10.68 -4.66 9.36 -5 8 C-4.34 8 -3.68 8 -3 8 C-2.87625 7.236875 -2.7525 6.47375 -2.625 5.6875 C-2 3 -2 3 0 0 Z " fill="#6199B9" transform="translate(303,167)"/>
<path d="M0 0 C3.57410797 2.68058098 6.31941902 5.42589203 9 9 C8.67 9.66 8.34 10.32 8 11 C6.35 10.67 4.7 10.34 3 10 C3.061875 9.236875 3.12375 8.47375 3.1875 7.6875 C2.96666486 4.52219632 2.30301466 4.01513783 0 2 C0 1.34 0 0.68 0 0 Z " fill="#9CC7E0" transform="translate(441,88)"/>
<path d="M0 0 C-3.83968051 2.6571444 -6.66976147 3.43240448 -11.3125 3.6875 C-12.38113281 3.75324219 -13.44976562 3.81898437 -14.55078125 3.88671875 C-15.76314453 3.94279297 -15.76314453 3.94279297 -17 4 C-14.05276949 2.03517966 -11.88022174 1.2438783 -8.5 0.3125 C-7.5409375 0.04050781 -6.581875 -0.23148437 -5.59375 -0.51171875 C-3 -1 -3 -1 0 0 Z " fill="#4C99CA" transform="translate(192,8)"/>
<path d="M0 0 C1.98 0.66 3.96 1.32 6 2 C6.33 3.98 6.66 5.96 7 8 C6.34 7.67 5.68 7.34 5 7 C5 6.34 5 5.68 5 5 C3.68 4.67 2.36 4.34 1 4 C0.67 2.68 0.34 1.36 0 0 Z " fill="#67ACD8" transform="translate(46,395)"/>
<path d="M0 0 C2.58967303 3.80834269 1.81691368 6.61837206 1 11 C0.814375 12.299375 0.62875 13.59875 0.4375 14.9375 C0.293125 15.948125 0.14875 16.95875 0 18 C-0.33 18 -0.66 18 -1 18 C-1.11269443 11.8894576 -0.89604368 6.04829486 0 0 Z " fill="#AFDCEE" transform="translate(1,213)"/>
<path d="M0 0 C1.32 0.33 2.64 0.66 4 1 C3.01 1.495 3.01 1.495 2 2 C2.33 3.32 2.66 4.64 3 6 C-0.68754757 5.50168276 -2.60490662 4.89932357 -5 2 C-3.68 2 -2.36 2 -1 2 C-0.67 1.34 -0.34 0.68 0 0 Z " fill="#4F9CD0" transform="translate(116,456)"/>
<path d="M0 0 C1.1577506 3.47325181 1.06866652 6.36067448 1 10 C0.67 8.68 0.34 7.36 0 6 C-1.65 6.33 -3.3 6.66 -5 7 C-3.47793991 4.37098712 -2.15634036 2.15634036 0 0 Z " fill="#5AA6D8" transform="translate(249,384)"/>
<path d="M0 0 C0.6875 1.75 0.6875 1.75 1 4 C-0.3125 6.25 -0.3125 6.25 -2 8 C-2.66 8 -3.32 8 -4 8 C-4 8.99 -4 9.98 -4 11 C-4.66 11 -5.32 11 -6 11 C-4.54955729 6.89041233 -2.48889248 3.56741255 0 0 Z " fill="#8BB4CF" transform="translate(357,207)"/>
<path d="M0 0 C0.33 1.32 0.66 2.64 1 4 C0.34 4 -0.32 4 -1 4 C-0.896875 4.763125 -0.79375 5.52625 -0.6875 6.3125 C-0.790625 7.199375 -0.89375 8.08625 -1 9 C-3.5 10.8125 -3.5 10.8125 -6 12 C-4.68139111 7.38486888 -2.78644563 3.90102388 0 0 Z " fill="#80BBDF" transform="translate(34,122)"/>
<path d="M0 0 C2.4375 0.375 2.4375 0.375 5 1 C5.33 1.66 5.66 2.32 6 3 C5.34 3 4.68 3 4 3 C3.01 4.485 3.01 4.485 2 6 C1.01 5.67 0.02 5.34 -1 5 C-0.67 3.35 -0.34 1.7 0 0 Z " fill="#3791CD" transform="translate(195,386)"/>
<path d="M0 0 C0.99 0.66 1.98 1.32 3 2 C2.39301257 6.12751449 0.96189209 9.3321148 -1 13 C-1.33 13 -1.66 13 -2 13 C-2 11.35 -2 9.7 -2 8 C-1.34 8 -0.68 8 0 8 C0 5.36 0 2.72 0 0 Z " fill="#85B4D3" transform="translate(475,351)"/>
<path d="M0 0 C3.74525799 3.74525799 3.68909949 7.98270909 4 13 C0.87506296 9.87506296 0.04088867 7.08354985 -0.125 2.6875 C-0.08375 1.800625 -0.0425 0.91375 0 0 Z " fill="#7AB8E0" transform="translate(14,331)"/>
<path d="M0 0 C0.33 0.66 0.66 1.32 1 2 C0.0390625 3.9453125 0.0390625 3.9453125 -1.375 6.125 C-1.83648437 6.84945313 -2.29796875 7.57390625 -2.7734375 8.3203125 C-3.17820313 8.87460937 -3.58296875 9.42890625 -4 10 C-4.33 10 -4.66 10 -5 10 C-5 8.02 -5 6.04 -5 4 C-4.34 4 -3.68 4 -3 4 C-3 3.34 -3 2.68 -3 2 C-2.01 1.34 -1.02 0.68 0 0 Z " fill="#97C9E5" transform="translate(246,264)"/>
<path d="M0 0 C0.33 0 0.66 0 1 0 C1.08114106 1.77007714 1.13925505 3.54122098 1.1875 5.3125 C1.23970703 6.79169922 1.23970703 6.79169922 1.29296875 8.30078125 C1 11 1 11 -0.51171875 12.85546875 C-1.00285156 13.23316406 -1.49398438 13.61085937 -2 14 C-1.85795259 12.41632253 -1.71119847 10.83306682 -1.5625 9.25 C-1.48128906 8.36828125 -1.40007813 7.4865625 -1.31640625 6.578125 C-1.03761535 4.30649548 -0.61209423 2.20148177 0 0 Z " fill="#4D9BCD" transform="translate(6,193)"/>
<path d="M0 0 C2.96175123 0.61277612 4.38058783 1.25372522 7 3 C7.6875 5.125 7.6875 5.125 8 7 C5.05043472 5.63055898 2.47531189 4.12169591 0 2 C0 1.34 0 0.68 0 0 Z " fill="#96C5E3" transform="translate(85,438)"/>
<path d="M0 0 C2.66666667 2.66666667 5.33333333 5.33333333 8 8 C7.67 8.66 7.34 9.32 7 10 C4.0625 8.375 4.0625 8.375 1 6 C0.125 2.75 0.125 2.75 0 0 Z " fill="#83BDE1" transform="translate(131,301)"/>
<path d="M0 0 C1.32 0 2.64 0 4 0 C4 1.65 4 3.3 4 5 C5.32 4.34 6.64 3.68 8 3 C7.34 4.65 6.68 6.3 6 8 C1.125 3.375 1.125 3.375 0 0 Z " fill="#3E94CD" transform="translate(167,240)"/>
<path d="M0 0 C3.0916909 2.52956528 3.90931332 5.22454612 5 9 C3.68 8.67 2.36 8.34 1 8 C0.67 5.36 0.34 2.72 0 0 Z " fill="#7BAEC9" transform="translate(469,129)"/>
<path d="M0 0 C0.66 0.99 1.32 1.98 2 3 C0.35 4.98 -1.3 6.96 -3 9 C-3.75 7.3125 -3.75 7.3125 -4 5 C-2.0625 2.25 -2.0625 2.25 0 0 Z " fill="#419AD6" transform="translate(57,91)"/>
<path d="M0 0 C3 1.8125 3 1.8125 6 4 C6 4.99 6 5.98 6 7 C3.5625 6.3125 3.5625 6.3125 1 5 C0.1875 2.375 0.1875 2.375 0 0 Z " fill="#64ABD9" transform="translate(124,294)"/>
<path d="M0 0 C3.68851835 0.99689685 4.80574807 1.68919691 6.875 5 C7.24625 5.99 7.6175 6.98 8 8 C7.67 8.66 7.34 9.32 7 10 C6.731875 9.195625 6.46375 8.39125 6.1875 7.5625 C5.795625 6.716875 5.40375 5.87125 5 5 C4.01 4.67 3.02 4.34 2 4 C0.8125 1.9375 0.8125 1.9375 0 0 Z " fill="#82BBDD" transform="translate(203,287)"/>
<path d="M0 0 C2.475 0.495 2.475 0.495 5 1 C5.33 2.65 5.66 4.3 6 6 C6.99 6.33 7.98 6.66 9 7 C8.67 7.66 8.34 8.32 8 9 C6.66079162 7.88200014 5.32877444 6.75538103 4 5.625 C2.88625 4.68527344 2.88625 4.68527344 1.75 3.7265625 C1.1725 3.15679687 0.595 2.58703125 0 2 C0 1.34 0 0.68 0 0 Z " fill="#86BCDE" transform="translate(170,246)"/>
<path d="M0 0 C0.33 0.66 0.66 1.32 1 2 C0.00390625 3.9453125 0.00390625 3.9453125 -1.4375 6.125 C-1.91058594 6.84945312 -2.38367188 7.57390625 -2.87109375 8.3203125 C-3.24363281 8.87460938 -3.61617188 9.42890625 -4 10 C-5 7 -5 7 -4.25 4.4375 C-3 2 -3 2 0 0 Z " fill="#8CBBD5" transform="translate(319,144)"/>
<path d="M0 0 C0.33 0.66 0.66 1.32 1 2 C-0.30406884 4.01920337 -1.63823419 6.01924973 -3 8 C-3.33 8 -3.66 8 -4 8 C-4 5.69 -4 3.38 -4 1 C-2.68 0.67 -1.36 0.34 0 0 Z " fill="#80B5D3" transform="translate(327,131)"/>
<path d="M0 0 C1.98 1.65 3.96 3.3 6 5 C4 5.66666667 2 6.33333333 0 7 C0 4.66666667 0 2.33333333 0 0 Z " fill="#609EC5" transform="translate(426,72)"/>
<path d="M0 0 C0.66 0.33 1.32 0.66 2 1 C-0.64 3.97 -3.28 6.94 -6 10 C-6.66 9.67 -7.32 9.34 -8 9 C-8 8.34 -8 7.68 -8 7 C-6.25 5.2734375 -6.25 5.2734375 -4 3.375 C-3.2575 2.74335937 -2.515 2.11171875 -1.75 1.4609375 C-1.1725 0.97882812 -0.595 0.49671875 0 0 Z " fill="#91C4E7" transform="translate(91,55)"/>
<path d="M0 0 C2.31 0.33 4.62 0.66 7 1 C6.67 2.32 6.34 3.64 6 5 C4.125 4.75 4.125 4.75 2 4 C0.75 1.9375 0.75 1.9375 0 0 Z " fill="#6FB0D8" transform="translate(105,453)"/>
<path d="M0 0 C4.875 4.75 4.875 4.75 6 7 C4.35 7 2.7 7 1 7 C0 2.25 0 2.25 0 0 Z " fill="#6AACD9" transform="translate(179,361)"/>
<path d="M0 0 C0.33 0.66 0.66 1.32 1 2 C-0.25 5.5625 -0.25 5.5625 -2 9 C-2.99 9.33 -3.98 9.66 -5 10 C-3.66511872 6.40608886 -2.03977277 3.24509304 0 0 Z " fill="#85AFCD" transform="translate(268,353)"/>
<path d="M0 0 C3.875 0.875 3.875 0.875 5 2 C5.04063832 3.66617115 5.042721 5.33388095 5 7 C3.68 6.34 2.36 5.68 1 5 C1 4.01 1 3.02 1 2 C0.67 1.34 0.34 0.68 0 0 Z " fill="#6AADD9" transform="translate(176,251)"/>
<path d="M0 0 C3.14958831 3.42346555 3.56179109 6.44262737 4 11 C1 9 1 9 0.48828125 6.8359375 C0.43027344 6.02382812 0.37226563 5.21171875 0.3125 4.375 C0.24675781 3.55773437 0.18101562 2.74046875 0.11328125 1.8984375 C0.07589844 1.27195313 0.03851563 0.64546875 0 0 Z " fill="#81B1CD" transform="translate(476,142)"/>
<path d="M0 0 C1.98 0.66 3.96 1.32 6 2 C5.34 3.65 4.68 5.3 4 7 C3.67 6.01 3.34 5.02 3 4 C2.34 4 1.68 4 1 4 C0.67 2.68 0.34 1.36 0 0 Z " fill="#5398C7" transform="translate(260,231)"/>
<path d="M0 0 C1.5 1.375 1.5 1.375 3 3 C3 3.66 3 4.32 3 5 C1.68 5.33 0.36 5.66 -1 6 C-1 6.66 -1 7.32 -1 8 C-1.66 7.67 -2.32 7.34 -3 7 C-2.01 4.69 -1.02 2.38 0 0 Z " fill="#4095CC" transform="translate(20,152)"/>
<path d="M0 0 C1.98 0 3.96 0 6 0 C4.63016497 3.16115776 4.0109362 3.9927092 1 6 C0.67 4.02 0.34 2.04 0 0 Z " fill="#5093BE" transform="translate(412,434)"/>
<path d="M0 0 C-0.33 0.598125 -0.66 1.19625 -1 1.8125 C-2.20787988 4.05386471 -2.20787988 4.05386471 -2 7 C-4.2477975 4.94766315 -5.0022242 3.99332739 -6 1 C-3.92446352 0.4465236 -2.15634036 0 0 0 Z " fill="#56A3D5" transform="translate(46,385)"/>
<path d="M0 0 C0.6875 1.75 0.6875 1.75 1 4 C-0.3125 6.25 -0.3125 6.25 -2 8 C-2.66 8 -3.32 8 -4 8 C-2.87548273 5.0280615 -1.77706209 2.66559313 0 0 Z " fill="#88B7D2" transform="translate(254,376)"/>
<path d="M0 0 C0.66 1.32 1.32 2.64 2 4 C1.01 5.485 1.01 5.485 0 7 C-0.99 7 -1.98 7 -3 7 C-2.25 2.25 -2.25 2.25 0 0 Z " fill="#357BA8" transform="translate(300,303)"/>
<path d="M0 0 C1.32 0.33 2.64 0.66 4 1 C1.69 2.65 -0.62 4.3 -3 6 C-3.33 5.01 -3.66 4.02 -4 3 C-3.01 3 -2.02 3 -1 3 C-0.67 2.01 -0.34 1.02 0 0 Z " fill="#76A6C6" transform="translate(341,109)"/>
<path d="M0 0 C0.33 0.66 0.66 1.32 1 2 C-0.25 5.0625 -0.25 5.0625 -2 8 C-2.99 8.33 -3.98 8.66 -5 9 C-3.7508258 5.54074837 -2.32472205 2.85306797 0 0 Z " fill="#95C9E8" transform="translate(49,99)"/>
<path d="M0 0 C2.31 0 4.62 0 7 0 C4.06171403 2.50298434 1.82097239 3.46930939 -2 4 C-1.34 2.68 -0.68 1.36 0 0 Z " fill="#84B5D3" transform="translate(353,475)"/>
<path d="M0 0 C0.99 0.66 1.98 1.32 3 2 C2.34 2 1.68 2 1 2 C1 3.65 1 5.3 1 7 C-0.65 5.35 -2.3 3.7 -4 2 C-3.01 2 -2.02 2 -1 2 C-0.67 1.34 -0.34 0.68 0 0 Z " fill="#78BBE7" transform="translate(215,296)"/>
<path d="M0 0 C0.66 0.66 1.32 1.32 2 2 C1.01 3.98 0.02 5.96 -1 8 C-1.33 8 -1.66 8 -2 8 C-2.125 5.125 -2.125 5.125 -2 2 C-1.34 1.34 -0.68 0.68 0 0 Z " fill="#7BB4D7" transform="translate(249,256)"/>
<path d="M0 0 C0.66 0.99 1.32 1.98 2 3 C1.125 6.1875 1.125 6.1875 0 9 C-2 6 -2 6 -1.6875 3.9375 C-1 2 -1 2 0 0 Z " fill="#5497C4" transform="translate(292,183)"/>
<path d="M0 0 C2.97 0.495 2.97 0.495 6 1 C6 1.66 6 2.32 6 3 C4.02 3 2.04 3 0 3 C0 2.01 0 1.02 0 0 Z " fill="#2F7CAC" transform="translate(310,488)"/>
<path d="M0 0 C1.125 2.0625 1.125 2.0625 2 4 C-3.75 2.25 -3.75 2.25 -6 0 C-2.25 -1.125 -2.25 -1.125 0 0 Z " fill="#80BDE2" transform="translate(144,474)"/>
<path d="M0 0 C-5.75 4 -5.75 4 -8 4 C-5.97675095 -0.48005146 -4.79569304 -1.43870791 0 0 Z " fill="#5790B5" transform="translate(387,460)"/>
<path d="M0 0 C1.33332095 2.6666419 0.67102033 4.16680303 0 7 C-1.32 7.33 -2.64 7.66 -4 8 C-2.87548273 5.0280615 -1.77706209 2.66559313 0 0 Z " fill="#88B6D3" transform="translate(262,363)"/>
<path d="M0 0 C1.32 0 2.64 0 4 0 C3.67 1.32 3.34 2.64 3 4 C1.68 4 0.36 4 -1 4 C-0.67 2.68 -0.34 1.36 0 0 Z " fill="#3D91CA" transform="translate(243,261)"/>
<path d="M0 0 C0.99 0 1.98 0 3 0 C1.8141763 3.37503669 0.72426311 5.64722731 -2 8 C-2 6.68 -2 5.36 -2 4 C-1.34 4 -0.68 4 0 4 C0 2.68 0 1.36 0 0 Z " fill="#82B2CD" transform="translate(278,208)"/>
<path d="M0 0 C0.33 1.32 0.66 2.64 1 4 C0.34 4 -0.32 4 -1 4 C-1 5.32 -1 6.64 -1 8 C-1.99 8 -2.98 8 -4 8 C-2.87548273 5.0280615 -1.77706209 2.66559313 0 0 Z " fill="#72A5C7" transform="translate(362,199)"/>
<path d="M0 0 C1 2 1 2 0.25 5.0625 C-0.1625 6.031875 -0.575 7.00125 -1 8 C-1.99 8.33 -2.98 8.66 -4 9 C-2.94124926 5.59687262 -1.99097846 2.98646769 0 0 Z " fill="#A6CAE0" transform="translate(379,170)"/>
</svg>
